<?xml version="1.0" encoding="UTF-8"?><svg id="a" xmlns="http://www.w3.org/2000/svg" viewBox="0 0 256 256"><defs><style>.b{fill:#020202;}.b,.c{stroke-width:0px;}.c{fill:#fff;}</style></defs><rect class="b" y=".16" width="256" height="256" rx="57.68" ry="57.68"/><path class="c" d="m92.57,80.81c26.09.02,47.15,21.34,47.06,47.62-.09,26.02-21.19,47.04-47.28,47.09-26.04.05-47.05-21.22-47.03-47.63.01-25.99,21.21-47.1,47.25-47.08Z"/><path class="c" d="m144.01,130.38c.24-13.25,1.7-24.06,7.18-33.82,2.08-3.7,4.93-7.22,8.16-9.98,5.21-4.45,11.71-4.42,16.86.18,3.4,3.03,6.71,6.78,8.51,10.88,9.04,20.57,9.08,41.33-.39,61.84-1.39,3.02-3.52,5.86-5.85,8.26-6.77,6.97-15.45,6.74-22.08-.38-6.38-6.85-9.26-15.37-10.93-24.32-.91-4.88-1.16-9.89-1.47-12.67Z"/><path class="c" d="m212.94,130.91c-1.04,7.91-2.33,18.39-3.84,28.84-.29,2.04-1.2,4.07-2.18,5.91-1.78,3.33-4.1,3.36-5.65-.12-1.45-3.25-2.56-6.75-3.16-10.25-3.35-19.51-3.36-39.02.88-58.42.49-2.24,1.36-4.47,2.46-6.49,1.64-3,4.09-3.07,5.28.13,1.83,4.91,3.41,10.03,4.15,15.2,1.06,7.43,1.27,14.98,2.05,25.19Z"/></svg>