<svg width="324" height="323" viewBox="0 0 324 323" fill="none" xmlns="http://www.w3.org/2000/svg">
<rect width="324" height="323" fill="#EFEFEF"/>
<path d="M83.6329 208.88C82.2353 208.88 81.1451 208.49 80.3624 207.709C79.6356 206.928 79.2722 206.091 79.2722 205.198C79.2722 204.306 79.6077 203.497 80.2785 202.772C81.0053 202.047 82.0675 201.684 83.4652 201.684H105.352V162.609L77.2596 117.259H70.2154C68.8178 117.259 67.7556 116.925 67.0288 116.255C66.3579 115.586 66.0225 114.861 66.0225 114.08C66.0225 113.299 66.3859 112.574 67.1127 111.904C67.8394 111.235 68.9017 110.9 70.2993 110.9H97.9728C99.4264 110.9 100.489 111.235 101.159 111.904C101.886 112.574 102.25 113.299 102.25 114.08C102.25 114.861 101.886 115.586 101.159 116.255C100.489 116.925 99.4543 117.259 98.0567 117.259H86.6518L109.797 155.916L132.271 117.259H122.963C121.565 117.259 120.503 116.925 119.776 116.255C119.105 115.586 118.77 114.861 118.77 114.08C118.77 113.299 119.133 112.574 119.86 111.904C120.587 111.235 121.649 110.9 123.047 110.9H144.934C146.388 110.9 147.45 111.263 148.121 111.988C148.847 112.657 149.211 113.382 149.211 114.163C149.211 114.944 148.875 115.67 148.204 116.339C147.534 116.952 146.499 117.259 145.102 117.259H140.489L113.403 163.028V201.684H132.858C134.2 201.684 135.206 202.047 135.877 202.772C136.548 203.497 136.883 204.306 136.883 205.198C136.883 206.091 136.52 206.928 135.793 207.709C135.122 208.49 134.088 208.88 132.691 208.88H83.6329Z" fill="#101010"/>
<path d="M77.2497 205.198C77.2497 203.744 77.8178 202.459 78.7937 201.404L78.8233 201.374L78.848 201.345C80.0738 200.122 81.7295 199.666 83.4652 199.666V201.684C82.0675 201.684 81.0053 202.047 80.2785 202.772C79.6077 203.497 79.2722 204.306 79.2722 205.198C79.2722 206.091 79.6356 206.928 80.3624 207.709C81.1451 208.49 82.2353 208.88 83.6329 208.88H132.691C134.088 208.88 135.122 208.49 135.793 207.709C136.52 206.928 136.883 206.091 136.883 205.198C136.883 204.306 136.548 203.497 135.877 202.772C135.206 202.047 134.2 201.684 132.858 201.684V199.666C134.555 199.666 136.187 200.134 137.362 201.404C138.338 202.459 138.906 203.744 138.906 205.198C138.906 206.669 138.294 207.952 137.323 209.018C137.314 209.028 137.306 209.038 137.298 209.047C137.289 209.057 137.282 209.072 137.273 209.082L137.268 209.077C136.092 210.402 134.43 210.898 132.691 210.898H83.6329C81.8476 210.898 80.1868 210.388 78.9319 209.136L78.9072 209.106L78.8825 209.082C77.8801 208.005 77.2497 206.696 77.2497 205.198ZM149.211 114.163C149.211 113.382 148.847 112.657 148.121 111.988C147.45 111.263 146.388 110.9 144.934 110.9V108.882C146.63 108.882 148.291 109.298 149.487 110.506C150.512 111.45 151.233 112.679 151.233 114.163C151.233 115.589 150.599 116.804 149.635 117.766L149.6 117.796L149.571 117.825C148.371 118.923 146.743 119.277 145.102 119.277H141.644L115.425 163.574V199.666H132.858V201.684H113.403V163.028L140.489 117.259H145.102C146.499 117.259 147.534 116.952 148.204 116.339C148.875 115.67 149.211 114.944 149.211 114.163ZM64 114.08C64 112.596 64.7169 111.366 65.7413 110.423C66.9711 109.29 68.6034 108.882 70.2993 108.882L70.2993 110.9C68.9017 110.9 67.8394 111.235 67.1127 111.904C66.3859 112.574 66.0225 113.299 66.0225 114.08C66.0225 114.861 66.3579 115.586 67.0288 116.255C67.7556 116.925 68.8178 117.259 70.2154 117.259H77.2596L105.352 162.609V201.684H83.4652V199.666H103.33V163.171L76.1398 119.277H70.2154C68.5195 119.277 66.8873 118.869 65.6575 117.737L65.6279 117.707L65.5983 117.683C64.6342 116.721 64 115.505 64 114.08ZM102.25 114.08C102.25 113.299 101.886 112.574 101.159 111.904C100.489 111.235 99.4264 110.9 97.9728 110.9V108.882C99.6549 108.882 101.32 109.262 102.526 110.423C102.546 110.441 102.57 110.458 102.59 110.477C103.584 111.414 104.272 112.623 104.272 114.08C104.272 115.536 103.578 116.741 102.585 117.678C102.566 117.697 102.55 117.718 102.531 117.737L102.526 117.732C101.334 118.883 99.7112 119.277 98.0567 119.277H90.2134L109.767 151.939L128.764 119.277H122.963C121.267 119.277 119.635 118.869 118.405 117.737L118.375 117.707L118.346 117.683C117.382 116.721 116.747 115.505 116.747 114.08C116.747 112.596 117.464 111.366 118.489 110.423C119.719 109.29 121.351 108.882 123.047 108.882V110.9C121.649 110.9 120.587 111.235 119.86 111.904C119.133 112.574 118.77 113.299 118.77 114.08C118.77 114.861 119.105 115.586 119.776 116.255C120.503 116.925 121.565 117.259 122.963 117.259H132.271L109.797 155.916L86.6518 117.259H98.0567C99.4543 117.259 100.489 116.925 101.159 116.255C101.886 115.586 102.25 114.861 102.25 114.08ZM144.934 108.882V110.9H123.047V108.882H144.934ZM97.9728 108.882V110.9H70.2993L70.2993 108.882H97.9728Z" fill="#101010"/>
<path d="M250.897 98C255.659 98 258.041 98.0006 259.52 99.4766C260.999 100.953 261 103.329 261 108.08V213.92C261 218.671 260.999 221.047 259.52 222.523C258.041 223.999 255.659 224 250.897 224H180.179C175.418 224 173.036 223.999 171.557 222.523C170.077 221.047 170.077 218.672 170.077 213.92V108.08C170.077 103.328 170.077 100.953 171.557 99.4766C173.036 98.0014 175.418 98 180.179 98H250.897ZM210.487 178.64C205.725 178.64 203.344 178.64 201.864 180.117C200.385 181.593 200.385 183.968 200.385 188.72V193.76C200.385 198.512 200.385 200.887 201.864 202.363C203.344 203.84 205.725 203.84 210.487 203.84H220.59C225.352 203.84 227.733 203.84 229.212 202.363C230.692 200.887 230.692 198.512 230.692 193.76V188.72C230.692 183.968 230.692 181.593 229.212 180.117C227.733 178.64 225.352 178.64 220.59 178.64H210.487Z" fill="#101010"/>
</svg>
