<svg width="197" height="127" viewBox="0 0 197 127" fill="none" xmlns="http://www.w3.org/2000/svg">
<path d="M19.6329 110.88C18.2353 110.88 17.1451 110.49 16.3624 109.709C15.6356 108.928 15.2722 108.091 15.2722 107.198C15.2722 106.306 15.6077 105.497 16.2785 104.772C17.0053 104.047 18.0675 103.684 19.4652 103.684H41.3524V64.6095L13.2596 19.2593H6.21544C4.81779 19.2593 3.75557 18.9246 3.0288 18.2552C2.35792 17.5859 2.02249 16.8607 2.02249 16.0798C2.02249 15.2988 2.38588 14.5737 3.11265 13.9043C3.83943 13.2349 4.90165 12.9002 6.2993 12.9002H33.9728C35.4264 12.9002 36.4886 13.2349 37.1595 13.9043C37.8863 14.5737 38.2496 15.2988 38.2496 16.0798C38.2496 16.8607 37.8863 17.5859 37.1595 18.2552C36.4886 18.9246 35.4543 19.2593 34.0567 19.2593H22.6518L45.797 57.9157L68.2712 19.2593H58.9629C57.5652 19.2593 56.503 18.9246 55.7762 18.2552C55.1053 17.5859 54.7699 16.8607 54.7699 16.0798C54.7699 15.2988 55.1333 14.5737 55.8601 13.9043C56.5869 13.2349 57.6491 12.9002 59.0467 12.9002H80.934C82.3875 12.9002 83.4497 13.2628 84.1206 13.988C84.8474 14.6573 85.2108 15.3825 85.2108 16.1634C85.2108 16.9444 84.8753 17.6695 84.2045 18.3389C83.5336 18.9525 82.4993 19.2593 81.1017 19.2593H76.4894L49.4029 65.0278V103.684H68.8582C70.2 103.684 71.2063 104.047 71.8772 104.772C72.5481 105.497 72.8835 106.306 72.8835 107.198C72.8835 108.091 72.5201 108.928 71.7933 109.709C71.1224 110.49 70.0882 110.88 68.6905 110.88H19.6329Z" fill="#EFEFEF"/>
<path d="M13.2497 107.198C13.2497 105.744 13.8178 104.459 14.7937 103.404L14.8233 103.374L14.848 103.345C16.0738 102.122 17.7295 101.666 19.4652 101.666V103.684C18.0675 103.684 17.0053 104.047 16.2785 104.772C15.6077 105.497 15.2722 106.306 15.2722 107.198C15.2722 108.091 15.6356 108.928 16.3624 109.709C17.1451 110.49 18.2353 110.88 19.6329 110.88H68.6905C70.0882 110.88 71.1224 110.49 71.7933 109.709C72.5201 108.928 72.8835 108.091 72.8835 107.198C72.8835 106.306 72.5481 105.497 71.8772 104.772C71.2063 104.047 70.2 103.684 68.8582 103.684V101.666C70.5546 101.666 72.1867 102.134 73.362 103.404C74.3379 104.459 74.906 105.744 74.906 107.198C74.906 108.669 74.2937 109.952 73.3225 111.018C73.3141 111.028 73.3063 111.038 73.2978 111.047C73.2887 111.057 73.2824 111.072 73.2732 111.082L73.2683 111.077C72.0925 112.402 70.4305 112.898 68.6905 112.898H19.6329C17.8476 112.898 16.1868 112.388 14.9319 111.136L14.9072 111.106L14.8825 111.082C13.8801 110.005 13.2497 108.696 13.2497 107.198ZM85.2108 16.1634C85.2108 15.3825 84.8474 14.6573 84.1206 13.988C83.4497 13.2628 82.3875 12.9002 80.934 12.9002V10.8823C82.6299 10.8823 84.2907 11.298 85.487 12.5065C86.5117 13.4502 87.2333 14.6791 87.2333 16.1634C87.2333 17.589 86.599 18.8044 85.635 19.7662L85.6005 19.7958L85.5709 19.8253C84.3712 20.9225 82.7431 21.2773 81.1017 21.2773H77.6437L51.4254 65.5741V101.666H68.8582V103.684H49.4029V65.0278L76.4894 19.2593H81.1017C82.4993 19.2593 83.5336 18.9525 84.2045 18.3389C84.8753 17.6695 85.2108 16.9444 85.2108 16.1634ZM0 16.0798C0 14.5956 0.716862 13.3665 1.74131 12.4228C2.97113 11.2901 4.6034 10.8823 6.2993 10.8823L6.2993 12.9002C4.90165 12.9002 3.83943 13.2349 3.11265 13.9043C2.38588 14.5737 2.02249 15.2988 2.02249 16.0798C2.02249 16.8607 2.35792 17.5859 3.0288 18.2552C3.75557 18.9246 4.81779 19.2593 6.21544 19.2593H13.2596L41.3524 64.6095V103.684H19.4652V101.666H39.33V65.1705L12.1398 21.2773H6.21544C4.51954 21.2773 2.88727 20.8694 1.65745 19.7367L1.62785 19.7072L1.59826 19.6826C0.634242 18.7207 0 17.5053 0 16.0798ZM38.2496 16.0798C38.2496 15.2988 37.8863 14.5737 37.1595 13.9043C36.4886 13.2349 35.4264 12.9002 33.9728 12.9002V10.8823C35.6549 10.8823 37.3203 11.2617 38.5259 12.4228C38.5457 12.4411 38.5704 12.4585 38.59 12.477C39.5844 13.4136 40.2721 14.6228 40.2721 16.0798C40.2721 17.5355 39.5781 18.7414 38.5851 19.6777C38.5661 19.6966 38.55 19.7182 38.5308 19.7367L38.5259 19.7318C37.3336 20.8826 35.7112 21.2773 34.0567 21.2773H26.2134L45.7674 53.9388L64.7639 21.2773H58.9629C57.267 21.2773 55.6347 20.8694 54.4049 19.7367L54.3753 19.7072L54.3457 19.6826C53.3817 18.7207 52.7474 17.5053 52.7474 16.0798C52.7474 14.5956 53.4643 13.3665 54.4887 12.4228C55.7186 11.2901 57.3508 10.8823 59.0467 10.8823V12.9002C57.6491 12.9002 56.5869 13.2349 55.8601 13.9043C55.1333 14.5737 54.7699 15.2988 54.7699 16.0798C54.7699 16.8607 55.1053 17.5859 55.7762 18.2552C56.503 18.9246 57.5652 19.2593 58.9629 19.2593H68.2712L45.797 57.9157L22.6518 19.2593H34.0567C35.4543 19.2593 36.4886 18.9246 37.1595 18.2552C37.8863 17.5859 38.2496 16.8607 38.2496 16.0798ZM80.934 10.8823V12.9002H59.0467V10.8823H80.934ZM33.9728 10.8823V12.9002H6.2993L6.2993 10.8823H33.9728Z" fill="#EFEFEF"/>
<path d="M186.897 0C191.659 2.79193e-08 194.041 0.000583692 195.52 1.47656C196.999 2.95282 197 5.32929 197 10.08V115.92C197 120.671 196.999 123.047 195.52 124.523C194.041 125.999 191.659 126 186.897 126H116.179C111.418 126 109.036 125.999 107.557 124.523C106.077 123.047 106.077 120.672 106.077 115.92V10.08C106.077 5.32824 106.077 2.95274 107.557 1.47656C109.036 0.00136145 111.418 0 116.179 0H186.897ZM146.487 80.64C141.725 80.64 139.344 80.6404 137.864 82.1166C136.385 83.5927 136.385 85.9682 136.385 90.72V95.76C136.385 100.512 136.385 102.887 137.864 104.363C139.344 105.84 141.725 105.84 146.487 105.84H156.59C161.352 105.84 163.733 105.84 165.212 104.363C166.692 102.887 166.692 100.512 166.692 95.76V90.72C166.692 85.9682 166.692 83.5927 165.212 82.1166C163.733 80.6404 161.352 80.64 156.59 80.64H146.487Z" fill="#EFEFEF"/>
</svg>
