<svg width="324" height="324" viewBox="0 0 324 324" fill="none" xmlns="http://www.w3.org/2000/svg">
<rect width="324" height="324" fill="#101010"/>
<path d="M82.6329 209.88C81.2353 209.88 80.1451 209.49 79.3624 208.709C78.6356 207.928 78.2722 207.091 78.2722 206.198C78.2722 205.306 78.6077 204.497 79.2785 203.772C80.0053 203.047 81.0675 202.684 82.4652 202.684H104.352V163.609L76.2596 118.259H69.2154C67.8178 118.259 66.7556 117.925 66.0288 117.255C65.3579 116.586 65.0225 115.861 65.0225 115.08C65.0225 114.299 65.3859 113.574 66.1127 112.904C66.8394 112.235 67.9017 111.9 69.2993 111.9H96.9728C98.4264 111.9 99.4886 112.235 100.159 112.904C100.886 113.574 101.25 114.299 101.25 115.08C101.25 115.861 100.886 116.586 100.159 117.255C99.4886 117.925 98.4543 118.259 97.0567 118.259H85.6518L108.797 156.916L131.271 118.259H121.963C120.565 118.259 119.503 117.925 118.776 117.255C118.105 116.586 117.77 115.861 117.77 115.08C117.77 114.299 118.133 113.574 118.86 112.904C119.587 112.235 120.649 111.9 122.047 111.9H143.934C145.388 111.9 146.45 112.263 147.121 112.988C147.847 113.657 148.211 114.382 148.211 115.163C148.211 115.944 147.875 116.67 147.204 117.339C146.534 117.952 145.499 118.259 144.102 118.259H139.489L112.403 164.028V202.684H131.858C133.2 202.684 134.206 203.047 134.877 203.772C135.548 204.497 135.883 205.306 135.883 206.198C135.883 207.091 135.52 207.928 134.793 208.709C134.122 209.49 133.088 209.88 131.691 209.88H82.6329Z" fill="#EFEFEF"/>
<path d="M76.2497 206.198C76.2497 204.744 76.8178 203.459 77.7937 202.404L77.8233 202.374L77.848 202.345C79.0738 201.122 80.7295 200.666 82.4652 200.666V202.684C81.0675 202.684 80.0053 203.047 79.2785 203.772C78.6077 204.497 78.2722 205.306 78.2722 206.198C78.2722 207.091 78.6356 207.928 79.3624 208.709C80.1451 209.49 81.2353 209.88 82.6329 209.88H131.691C133.088 209.88 134.122 209.49 134.793 208.709C135.52 207.928 135.883 207.091 135.883 206.198C135.883 205.306 135.548 204.497 134.877 203.772C134.206 203.047 133.2 202.684 131.858 202.684V200.666C133.555 200.666 135.187 201.134 136.362 202.404C137.338 203.459 137.906 204.744 137.906 206.198C137.906 207.669 137.294 208.952 136.323 210.018C136.314 210.028 136.306 210.038 136.298 210.047C136.289 210.057 136.282 210.072 136.273 210.082L136.268 210.077C135.092 211.402 133.43 211.898 131.691 211.898H82.6329C80.8476 211.898 79.1868 211.388 77.9319 210.136L77.9072 210.106L77.8825 210.082C76.8801 209.005 76.2497 207.696 76.2497 206.198ZM148.211 115.163C148.211 114.382 147.847 113.657 147.121 112.988C146.45 112.263 145.388 111.9 143.934 111.9V109.882C145.63 109.882 147.291 110.298 148.487 111.506C149.512 112.45 150.233 113.679 150.233 115.163C150.233 116.589 149.599 117.804 148.635 118.766L148.6 118.796L148.571 118.825C147.371 119.923 145.743 120.277 144.102 120.277H140.644L114.425 164.574V200.666H131.858V202.684H112.403V164.028L139.489 118.259H144.102C145.499 118.259 146.534 117.952 147.204 117.339C147.875 116.67 148.211 115.944 148.211 115.163ZM63 115.08C63 113.596 63.7169 112.366 64.7413 111.423C65.9711 110.29 67.6034 109.882 69.2993 109.882L69.2993 111.9C67.9017 111.9 66.8394 112.235 66.1127 112.904C65.3859 113.574 65.0225 114.299 65.0225 115.08C65.0225 115.861 65.3579 116.586 66.0288 117.255C66.7556 117.925 67.8178 118.259 69.2154 118.259H76.2596L104.352 163.609V202.684H82.4652V200.666H102.33V164.171L75.1398 120.277H69.2154C67.5195 120.277 65.8873 119.869 64.6575 118.737L64.6279 118.707L64.5983 118.683C63.6342 117.721 63 116.505 63 115.08ZM101.25 115.08C101.25 114.299 100.886 113.574 100.159 112.904C99.4886 112.235 98.4264 111.9 96.9728 111.9V109.882C98.6549 109.882 100.32 110.262 101.526 111.423C101.546 111.441 101.57 111.458 101.59 111.477C102.584 112.414 103.272 113.623 103.272 115.08C103.272 116.536 102.578 117.741 101.585 118.678C101.566 118.697 101.55 118.718 101.531 118.737L101.526 118.732C100.334 119.883 98.7112 120.277 97.0567 120.277H89.2134L108.767 152.939L127.764 120.277H121.963C120.267 120.277 118.635 119.869 117.405 118.737L117.375 118.707L117.346 118.683C116.382 117.721 115.747 116.505 115.747 115.08C115.747 113.596 116.464 112.366 117.489 111.423C118.719 110.29 120.351 109.882 122.047 109.882V111.9C120.649 111.9 119.587 112.235 118.86 112.904C118.133 113.574 117.77 114.299 117.77 115.08C117.77 115.861 118.105 116.586 118.776 117.255C119.503 117.925 120.565 118.259 121.963 118.259H131.271L108.797 156.916L85.6518 118.259H97.0567C98.4543 118.259 99.4886 117.925 100.159 117.255C100.886 116.586 101.25 115.861 101.25 115.08ZM143.934 109.882V111.9H122.047V109.882H143.934ZM96.9728 109.882V111.9H69.2993L69.2993 109.882H96.9728Z" fill="#EFEFEF"/>
<path d="M249.897 99C254.659 99 257.041 99.0006 258.52 100.477C259.999 101.953 260 104.329 260 109.08V214.92C260 219.671 259.999 222.047 258.52 223.523C257.041 224.999 254.659 225 249.897 225H179.179C174.418 225 172.036 224.999 170.557 223.523C169.077 222.047 169.077 219.672 169.077 214.92V109.08C169.077 104.328 169.077 101.953 170.557 100.477C172.036 99.0014 174.418 99 179.179 99H249.897ZM209.487 179.64C204.725 179.64 202.344 179.64 200.864 181.117C199.385 182.593 199.385 184.968 199.385 189.72V194.76C199.385 199.512 199.385 201.887 200.864 203.363C202.344 204.84 204.725 204.84 209.487 204.84H219.59C224.352 204.84 226.733 204.84 228.212 203.363C229.692 201.887 229.692 199.512 229.692 194.76V189.72C229.692 184.968 229.692 182.593 228.212 181.117C226.733 179.64 224.352 179.64 219.59 179.64H209.487Z" fill="#EFEFEF"/>
</svg>
