<svg width="1294" height="324" viewBox="0 0 1294 324" fill="none" xmlns="http://www.w3.org/2000/svg">
<rect width="1294" height="324" fill="#101010"/>
<path d="M1112 214.95C1110.87 214.95 1109.77 214.61 1108.69 213.93C1107.67 213.307 1106.51 211.578 1105.2 208.745L1080.22 154.94H1071.63C1070.22 154.94 1069.25 154.572 1068.74 153.835C1068.29 153.098 1068.06 152.305 1068.06 151.455C1068.06 150.548 1068.32 149.755 1068.83 149.075C1069.34 148.338 1070.39 147.97 1071.97 147.97H1098.75C1100.16 147.97 1101.07 148.338 1101.47 149.075C1101.86 149.812 1102.06 150.633 1102.06 151.54C1102.06 152.39 1101.86 153.183 1101.47 153.92C1101.07 154.6 1100.19 154.94 1098.83 154.94H1089.57L1112.26 205.94L1133 154.94H1125.77C1124.36 154.94 1123.45 154.6 1123.05 153.92C1122.66 153.183 1122.46 152.39 1122.46 151.54C1122.46 150.633 1122.66 149.812 1123.05 149.075C1123.51 148.338 1124.44 147.97 1125.86 147.97H1148.04C1149.68 147.97 1150.73 148.338 1151.19 149.075C1151.7 149.755 1151.95 150.548 1151.95 151.455C1151.95 152.305 1151.72 153.098 1151.27 153.835C1150.82 154.572 1149.85 154.94 1148.38 154.94H1140.82L1118.12 209.17C1117.05 211.777 1116.03 213.392 1115.06 214.015C1114.16 214.638 1113.14 214.95 1112 214.95Z" fill="#EFEFEF"/>
<path d="M1008.14 215.205C1000.61 215.205 993.923 213.788 988.087 210.955C982.307 208.065 977.774 203.928 974.488 198.545C971.258 193.162 969.644 186.702 969.644 179.165C969.644 171.912 971.343 165.707 974.743 160.55C978.199 155.393 982.761 151.455 988.427 148.735C994.15 146.015 1000.41 144.655 1007.21 144.655C1015.99 144.655 1023.27 147.063 1029.05 151.88C1034.89 156.697 1037.81 163.752 1037.81 173.045C1037.81 175.142 1037.21 176.898 1036.02 178.315C1034.83 179.732 1033.25 180.44 1031.26 180.44H977.803C978.086 189.677 981.004 196.618 986.557 201.265C992.11 205.912 999.079 208.235 1007.46 208.235C1011.6 208.235 1015.74 207.47 1019.87 205.94C1024.01 204.41 1027.72 202.087 1031.01 198.97C1032.2 198.007 1033.36 197.525 1034.49 197.525C1035.51 197.525 1036.33 197.893 1036.96 198.63C1037.58 199.367 1037.89 200.245 1037.89 201.265C1037.89 202.512 1037.38 203.702 1036.36 204.835C1034.27 207.102 1031.57 209 1028.29 210.53C1025 212.06 1021.55 213.222 1017.92 214.015C1014.35 214.808 1011.09 215.205 1008.14 215.205ZM978.058 174.235H1030.58C1030.47 172.138 1030.13 169.815 1029.56 167.265C1029 164.658 1027.92 162.165 1026.33 159.785C1024.8 157.405 1022.51 155.45 1019.45 153.92C1016.45 152.39 1012.42 151.625 1007.38 151.625C999.107 151.625 992.393 153.58 987.237 157.49C982.137 161.4 979.078 166.982 978.058 174.235Z" fill="#EFEFEF"/>
<path d="M894.766 215.205C888.137 215.205 882.414 213.703 877.598 210.7C872.782 207.64 869.071 203.475 866.464 198.205C863.914 192.878 862.639 186.787 862.639 179.93C862.639 173.187 863.943 167.152 866.549 161.825C869.155 156.498 872.838 152.305 877.598 149.245C882.414 146.185 888.137 144.655 894.766 144.655C900.262 144.655 904.88 145.477 908.62 147.12C912.359 148.763 915.787 150.945 918.904 153.665V121.025L906.325 121.96C905.305 122.017 904.484 121.705 903.86 121.025C903.294 120.345 903.01 119.58 903.01 118.73C903.01 118.05 903.237 117.342 903.69 116.605C904.2 115.812 905.107 115.358 906.41 115.245L923.238 113.46C924.655 113.347 925.646 113.63 926.213 114.31C926.78 114.99 927.063 115.812 927.063 116.775V206.535L940.152 205.6C941.342 205.6 942.191 205.912 942.701 206.535C943.268 207.102 943.551 207.782 943.551 208.575C943.551 209.368 943.268 210.162 942.701 210.955C942.191 211.748 941.398 212.202 940.322 212.315L923.918 214.015C921.482 214.015 920.179 212.598 920.009 209.765L919.669 204.665C917.176 207.668 913.748 210.19 909.385 212.23C905.022 214.213 900.149 215.205 894.766 215.205ZM894.936 208.235C900.659 208.235 905.475 207.073 909.385 204.75C913.294 202.37 916.467 199.423 918.904 195.91V162.59C916.241 159.247 912.983 156.583 909.13 154.6C905.277 152.617 900.659 151.625 895.276 151.625C889.893 151.625 885.361 152.957 881.678 155.62C878.051 158.227 875.332 161.683 873.518 165.99C871.705 170.24 870.799 174.887 870.799 179.93C870.799 184.973 871.705 189.648 873.518 193.955C875.388 198.262 878.108 201.718 881.678 204.325C885.247 206.932 889.667 208.235 894.936 208.235Z" fill="#EFEFEF"/>
<path d="M657.385 213.76C656.082 213.76 655.091 213.392 654.411 212.655C653.787 211.918 653.476 211.097 653.476 210.19C653.476 209.34 653.759 208.575 654.326 207.895C654.949 207.158 655.855 206.79 657.045 206.79H688.407V121.11L658.405 123.49C658.292 123.49 658.179 123.518 658.065 123.575C658.009 123.575 657.924 123.575 657.81 123.575C656.677 123.575 655.799 123.207 655.176 122.47C654.609 121.733 654.326 120.912 654.326 120.005C654.326 119.212 654.552 118.475 655.006 117.795C655.459 117.115 656.139 116.718 657.045 116.605L692.572 113.375C692.685 113.375 692.798 113.375 692.912 113.375C693.082 113.318 693.28 113.29 693.507 113.29C695.546 113.29 696.566 114.197 696.566 116.01V206.79H725.463C726.597 206.79 727.418 207.158 727.928 207.895C728.495 208.632 728.778 209.425 728.778 210.275C728.778 211.182 728.495 212.003 727.928 212.74C727.362 213.42 726.512 213.76 725.378 213.76H657.385Z" fill="#EFEFEF"/>
<path d="M551.996 213.76C550.693 213.76 549.701 213.392 549.021 212.655C548.398 211.918 548.086 211.097 548.086 210.19C548.086 209.34 548.37 208.575 548.936 207.895C549.56 207.158 550.466 206.79 551.656 206.79H583.018V121.11L553.016 123.49C552.903 123.49 552.789 123.518 552.676 123.575C552.619 123.575 552.534 123.575 552.421 123.575C551.288 123.575 550.409 123.207 549.786 122.47C549.22 121.733 548.936 120.912 548.936 120.005C548.936 119.212 549.163 118.475 549.616 117.795C550.069 117.115 550.749 116.718 551.656 116.605L587.182 113.375C587.296 113.375 587.409 113.375 587.522 113.375C587.692 113.318 587.891 113.29 588.117 113.29C590.157 113.29 591.177 114.197 591.177 116.01V206.79H620.074C621.207 206.79 622.029 207.158 622.539 207.895C623.105 208.632 623.389 209.425 623.389 210.275C623.389 211.182 623.105 212.003 622.539 212.74C621.972 213.42 621.122 213.76 619.989 213.76H551.996Z" fill="#EFEFEF"/>
<path d="M481.198 215.205C473.662 215.205 466.976 213.788 461.14 210.955C455.361 208.065 450.828 203.928 447.542 198.545C444.312 193.162 442.697 186.702 442.697 179.165C442.697 171.912 444.397 165.707 447.797 160.55C451.253 155.393 455.814 151.455 461.48 148.735C467.203 146.015 473.464 144.655 480.263 144.655C489.046 144.655 496.327 147.063 502.106 151.88C507.942 156.697 510.86 163.752 510.86 173.045C510.86 175.142 510.265 176.898 509.075 178.315C507.885 179.732 506.299 180.44 504.316 180.44H450.856C451.139 189.677 454.058 196.618 459.61 201.265C465.163 205.912 472.132 208.235 480.518 208.235C484.654 208.235 488.791 207.47 492.927 205.94C497.063 204.41 500.774 202.087 504.061 198.97C505.251 198.007 506.412 197.525 507.545 197.525C508.565 197.525 509.387 197.893 510.01 198.63C510.633 199.367 510.945 200.245 510.945 201.265C510.945 202.512 510.435 203.702 509.415 204.835C507.319 207.102 504.627 209 501.341 210.53C498.055 212.06 494.598 213.222 490.972 214.015C487.402 214.808 484.144 215.205 481.198 215.205ZM451.111 174.235H503.636C503.523 172.138 503.183 169.815 502.616 167.265C502.049 164.658 500.973 162.165 499.386 159.785C497.856 157.405 495.562 155.45 492.502 153.92C489.499 152.39 485.476 151.625 480.433 151.625C472.161 151.625 465.446 153.58 460.29 157.49C455.191 161.4 452.131 166.982 451.111 174.235Z" fill="#EFEFEF"/>
<path d="M335.948 213.76C334.645 213.76 333.653 213.392 332.973 212.655C332.35 211.862 332.038 211.012 332.038 210.105C332.038 209.255 332.322 208.49 332.888 207.81C333.511 207.13 334.418 206.79 335.608 206.79H344.787V121.025L332.208 121.79C331.188 121.847 330.367 121.563 329.743 120.94C329.177 120.317 328.894 119.58 328.894 118.73C328.894 118.05 329.092 117.313 329.488 116.52C329.942 115.727 330.678 115.302 331.698 115.245L347.762 113.63C348.102 113.573 348.413 113.545 348.697 113.545C348.98 113.488 349.235 113.46 349.461 113.46C351.785 113.46 352.946 114.565 352.946 116.775V159.445C355.099 155.252 358.641 151.738 363.57 148.905C368.5 146.072 373.882 144.655 379.718 144.655C387.934 144.655 393.969 146.78 397.822 151.03C401.675 155.223 403.601 161.032 403.601 168.455V206.79H412.865C413.998 206.79 414.848 207.158 415.415 207.895C415.981 208.575 416.265 209.34 416.265 210.19C416.265 211.097 415.953 211.918 415.33 212.655C414.763 213.392 413.885 213.76 412.695 213.76H383.373C382.07 213.76 381.078 213.392 380.398 212.655C379.775 211.862 379.463 211.012 379.463 210.105C379.463 209.255 379.747 208.49 380.313 207.81C380.937 207.13 381.843 206.79 383.033 206.79H395.442V167.86C395.442 162.817 394.167 158.85 391.617 155.96C389.124 153.07 385.299 151.625 380.143 151.625C374.704 151.625 369.944 152.673 365.865 154.77C361.785 156.867 358.612 159.445 356.346 162.505C354.079 165.565 352.946 168.568 352.946 171.515V206.79H361.87C363.23 206.79 364.25 207.158 364.93 207.895C365.61 208.575 365.95 209.34 365.95 210.19C365.95 211.097 365.581 211.918 364.845 212.655C364.165 213.392 363.117 213.76 361.7 213.76H335.948Z" fill="#EFEFEF"/>
<path d="M269.315 215.205C264.442 215.205 259.654 214.468 254.951 212.995C250.305 211.522 246.31 208.887 242.967 205.09V210.19C242.967 211.437 242.656 212.343 242.032 212.91C241.409 213.477 240.701 213.76 239.908 213.76C239.058 213.76 238.264 213.477 237.528 212.91C236.848 212.287 236.508 211.465 236.508 210.445V191.235C236.508 189.648 236.848 188.515 237.528 187.835C238.264 187.155 239.001 186.815 239.738 186.815C240.531 186.815 241.239 187.07 241.862 187.58C242.486 188.033 242.797 189.252 242.797 191.235C242.797 194.465 243.93 197.355 246.197 199.905C248.52 202.455 251.636 204.495 255.546 206.025C259.512 207.498 263.932 208.235 268.805 208.235C275.151 208.235 280.052 207.243 283.508 205.26C287.021 203.277 288.778 200.188 288.778 195.995C288.778 193.275 288.069 191.008 286.653 189.195C285.236 187.325 282.602 186.022 278.749 185.285L256.141 180.865C250.815 179.845 246.509 178.032 243.222 175.425C239.936 172.762 238.293 168.937 238.293 163.95C238.293 158.85 239.653 154.912 242.372 152.135C245.092 149.358 248.548 147.432 252.741 146.355C256.934 145.222 261.24 144.655 265.66 144.655C270.533 144.655 275.264 145.392 279.854 146.865C284.443 148.338 287.616 150.208 289.373 152.475V149.33C289.316 147.913 289.656 146.865 290.392 146.185C291.186 145.448 292.036 145.08 292.942 145.08C293.849 145.08 294.642 145.42 295.322 146.1C296.059 146.78 296.427 147.828 296.427 149.245V166.33C296.144 168.427 294.954 169.475 292.857 169.475C291.384 169.475 290.449 168.88 290.052 167.69C289.713 166.5 289.514 164.687 289.458 162.25C287.871 158.51 284.868 155.818 280.448 154.175C276.086 152.475 270.958 151.625 265.065 151.625C260.079 151.625 255.829 152.418 252.316 154.005C248.803 155.535 247.047 158.425 247.047 162.675C247.047 165.112 247.783 167.18 249.257 168.88C250.73 170.523 253.591 171.827 257.841 172.79L279.854 177.21C284.783 178.173 288.863 180.015 292.092 182.735C295.379 185.398 297.022 189.847 297.022 196.08C297.022 202.653 294.415 207.498 289.203 210.615C283.99 213.675 277.36 215.205 269.315 215.205Z" fill="#EFEFEF"/>
<path d="M136.898 213.76C135.481 213.76 134.377 213.363 133.583 212.57C132.847 211.777 132.478 210.927 132.478 210.02C132.478 209.113 132.818 208.292 133.498 207.555C134.235 206.818 135.311 206.45 136.728 206.45H158.911V166.755L130.439 120.685H123.299C121.883 120.685 120.806 120.345 120.07 119.665C119.39 118.985 119.05 118.248 119.05 117.455C119.05 116.662 119.418 115.925 120.155 115.245C120.891 114.565 121.968 114.225 123.384 114.225H151.432C152.905 114.225 153.981 114.565 154.661 115.245C155.398 115.925 155.766 116.662 155.766 117.455C155.766 118.248 155.398 118.985 154.661 119.665C153.981 120.345 152.933 120.685 151.517 120.685H139.958L163.415 159.955L186.193 120.685H176.759C175.342 120.685 174.266 120.345 173.529 119.665C172.849 118.985 172.509 118.248 172.509 117.455C172.509 116.662 172.878 115.925 173.614 115.245C174.351 114.565 175.427 114.225 176.844 114.225H199.027C200.5 114.225 201.576 114.593 202.256 115.33C202.993 116.01 203.361 116.747 203.361 117.54C203.361 118.333 203.021 119.07 202.341 119.75C201.661 120.373 200.613 120.685 199.197 120.685H194.522L167.07 167.18V206.45H186.788C188.148 206.45 189.168 206.818 189.848 207.555C190.528 208.292 190.868 209.113 190.868 210.02C190.868 210.927 190.499 211.777 189.763 212.57C189.083 213.363 188.034 213.76 186.618 213.76H136.898Z" fill="#EFEFEF"/>
<path d="M1066.01 151.455C1066.01 150.137 1066.39 148.904 1067.19 147.845C1068.31 146.296 1070.25 145.92 1071.97 145.92V147.97C1070.39 147.97 1069.34 148.338 1068.83 149.075C1068.32 149.755 1068.06 150.548 1068.06 151.455C1068.06 152.305 1068.29 153.098 1068.74 153.835C1069.25 154.572 1070.22 154.94 1071.63 154.94H1080.22L1105.2 208.745C1106.51 211.578 1107.67 213.307 1108.69 213.93C1109.77 214.61 1110.87 214.95 1112 214.95C1113.14 214.95 1114.16 214.638 1115.06 214.015C1116.03 213.392 1117.05 211.777 1118.12 209.17L1140.82 154.94H1148.38C1149.85 154.94 1150.82 154.572 1151.27 153.835C1151.72 153.098 1151.95 152.305 1151.95 151.455C1151.95 150.548 1151.7 149.755 1151.19 149.075C1150.73 148.338 1149.68 147.97 1148.04 147.97V145.92C1149.72 145.92 1151.72 146.26 1152.82 147.85L1152.83 147.845C1153.62 148.904 1154 150.137 1154 151.455C1154 152.691 1153.66 153.857 1153.02 154.91C1151.98 156.585 1150.06 156.99 1148.38 156.99H1142.18L1120.01 209.945L1120.02 209.95C1119.45 211.316 1118.88 212.489 1118.28 213.43C1117.72 214.326 1117.04 215.153 1116.22 215.7L1116.22 215.705C1116.21 215.715 1116.19 215.725 1116.18 215.735L1116.17 215.73C1114.93 216.574 1113.52 217 1112 217C1110.45 217 1108.98 216.526 1107.62 215.675C1106.74 215.135 1105.99 214.262 1105.35 213.31C1104.69 212.322 1104.02 211.072 1103.35 209.6L1078.91 156.99H1071.63C1069.95 156.99 1068.13 156.553 1067.06 155L1067 154.91C1066.35 153.857 1066.01 152.691 1066.01 151.455ZM1102.06 151.54C1102.06 150.633 1101.86 149.812 1101.47 149.075C1101.07 148.338 1100.16 147.97 1098.75 147.97V145.92C1100.17 145.92 1101.83 146.236 1102.87 147.5L1103.27 148.105L1103.64 148.915C1103.96 149.746 1104.11 150.627 1104.11 151.54C1104.11 152.723 1103.83 153.85 1103.27 154.89L1103.24 154.955L1103.23 154.95C1102.26 156.616 1100.38 156.99 1098.83 156.99H1092.72L1112.17 200.715L1129.96 156.99H1125.77C1124.21 156.99 1122.27 156.637 1121.28 154.95L1121.25 154.89C1120.69 153.85 1120.41 152.723 1120.41 151.54C1120.41 150.324 1120.68 149.164 1121.25 148.105L1121.28 148.05L1121.31 148C1122.33 146.345 1124.2 145.92 1125.86 145.92V147.97C1124.44 147.97 1123.51 148.338 1123.05 149.075C1122.66 149.812 1122.46 150.633 1122.46 151.54C1122.46 152.39 1122.66 153.183 1123.05 153.92C1123.45 154.6 1124.36 154.94 1125.77 154.94H1133L1112.26 205.94L1089.57 154.94H1098.83C1100.19 154.94 1101.07 154.6 1101.47 153.92C1101.86 153.183 1102.06 152.39 1102.06 151.54ZM1148.04 145.92V147.97H1125.86V145.92H1148.04ZM1098.75 145.92V147.97H1071.97V145.92H1098.75Z" fill="#EFEFEF"/>
<path d="M1037.81 173.045C1037.81 163.752 1034.89 156.697 1029.05 151.88C1023.27 147.063 1015.99 144.655 1007.21 144.655C1000.41 144.655 994.15 146.015 988.427 148.735C982.761 151.455 978.199 155.393 974.743 160.55C971.343 165.707 969.644 171.912 969.644 179.165C969.644 186.702 971.258 193.162 974.488 198.545C977.774 203.928 982.307 208.065 988.087 210.955C993.923 213.788 1000.61 215.205 1008.14 215.205C1011.09 215.205 1014.35 214.808 1017.92 214.015C1021.55 213.222 1025 212.06 1028.29 210.53C1031.57 209 1034.27 207.102 1036.36 204.835C1037.38 203.702 1037.89 202.512 1037.89 201.265C1037.89 200.245 1037.58 199.367 1036.96 198.63C1036.33 197.893 1035.51 197.525 1034.49 197.525C1033.36 197.525 1032.2 198.007 1031.01 198.97C1027.72 202.087 1024.01 204.41 1019.87 205.94C1015.74 207.47 1011.6 208.235 1007.46 208.235V206.185C1011.34 206.185 1015.24 205.471 1019.16 204.02C1023.03 202.589 1026.51 200.416 1029.6 197.485L1029.66 197.43L1029.72 197.38C1031.14 196.225 1032.75 195.475 1034.49 195.475C1036.07 195.475 1037.48 196.08 1038.52 197.305C1039.48 198.434 1039.94 199.791 1039.94 201.265C1039.94 203.124 1039.16 204.783 1037.88 206.205L1037.87 206.225C1035.56 208.718 1032.64 210.762 1029.15 212.385C1025.73 213.98 1022.13 215.185 1018.36 216.01C1014.68 216.828 1011.27 217.255 1008.14 217.255C1000.35 217.255 993.348 215.784 987.192 212.795L987.172 212.785C981.058 209.728 976.23 205.33 972.738 199.61L972.733 199.6C969.278 193.84 967.594 186.998 967.594 179.165C967.594 171.583 969.378 164.971 973.033 159.425L973.043 159.41C976.706 153.946 981.55 149.766 987.542 146.89L987.547 146.885C993.564 144.025 1000.13 142.605 1007.21 142.605C1016.38 142.605 1024.15 145.131 1030.36 150.3L1031.52 151.32C1037.14 156.563 1039.86 163.902 1039.86 173.045C1039.86 175.554 1039.13 177.796 1037.59 179.63C1035.98 181.547 1033.8 182.49 1031.26 182.49H979.973C980.594 190.22 983.292 195.862 987.872 199.695C992.999 203.985 999.48 206.185 1007.46 206.185V208.235C999.079 208.235 992.11 205.912 986.557 201.265C981.004 196.618 978.086 189.677 977.803 180.44H1031.26C1033.25 180.44 1034.83 179.732 1036.02 178.315C1037.21 176.898 1037.81 175.142 1037.81 173.045ZM1007.38 151.625C1012.42 151.625 1016.45 152.39 1019.45 153.92C1022.51 155.45 1024.8 157.405 1026.33 159.785L1024.61 160.89C1023.32 158.88 1021.33 157.149 1018.53 155.75L1018.52 155.745C1015.91 154.416 1012.25 153.675 1007.38 153.675C999.433 153.675 993.188 155.541 988.477 159.11L988.482 159.115C984.414 162.234 981.74 166.545 980.508 172.185H1028.34C1028.17 170.8 1027.92 169.308 1027.56 167.71V167.7C1027.05 165.361 1026.08 163.103 1024.63 160.92L1024.61 160.89L1026.33 159.785C1027.92 162.165 1029 164.658 1029.56 167.265C1030.13 169.815 1030.47 172.138 1030.58 174.235H978.058C979.078 166.982 982.137 161.4 987.237 157.49C992.393 153.58 999.107 151.625 1007.38 151.625Z" fill="#EFEFEF"/>
<path d="M920.009 209.765C920.179 212.598 921.482 214.015 923.918 214.015L940.322 212.315C941.398 212.202 942.191 211.748 942.701 210.955C943.268 210.162 943.551 209.368 943.551 208.575C943.551 207.782 943.268 207.102 942.701 206.535C942.191 205.912 941.342 205.6 940.152 205.6L927.063 206.535V116.775C927.063 115.812 926.78 114.99 926.213 114.31C925.646 113.63 924.655 113.347 923.238 113.46L906.41 115.245C905.107 115.358 904.2 115.812 903.69 116.605C903.237 117.342 903.01 118.05 903.01 118.73C903.01 119.58 903.294 120.345 903.86 121.025C904.484 121.705 905.305 122.017 906.325 121.96L918.904 121.025V153.665C915.787 150.945 912.359 148.763 908.62 147.12C904.88 145.477 900.262 144.655 894.766 144.655C888.137 144.655 882.414 146.185 877.598 149.245C872.838 152.305 869.155 156.498 866.549 161.825C863.943 167.152 862.639 173.187 862.639 179.93C862.639 186.787 863.914 192.878 866.464 198.205C869.071 203.475 872.782 207.64 877.598 210.7C882.414 213.703 888.137 215.205 894.766 215.205C900.149 215.205 905.022 214.213 909.385 212.23L910.23 214.095C905.57 216.213 900.404 217.255 894.766 217.255C887.819 217.255 881.706 215.678 876.513 212.44L876.498 212.43C871.357 209.163 867.396 204.709 864.629 199.115L864.619 199.09C861.918 193.446 860.59 187.044 860.59 179.93C860.59 172.918 861.948 166.568 864.709 160.925C867.472 155.279 871.404 150.792 876.493 147.52L876.498 147.515C881.693 144.214 887.812 142.605 894.766 142.605C900.453 142.605 905.372 143.455 909.445 145.245C912.061 146.395 914.53 147.8 916.854 149.45V123.225L906.475 124L906.44 124.005C904.882 124.092 903.436 123.594 902.35 122.41L902.32 122.375L902.285 122.335C901.427 121.304 900.961 120.08 900.961 118.73C900.961 117.581 901.347 116.503 901.946 115.53L901.966 115.495C902.817 114.171 904.165 113.524 905.61 113.285L906.235 113.205L923.023 111.425L923.073 111.42C924.744 111.286 926.587 111.559 927.788 113C928.688 114.081 929.113 115.379 929.113 116.775V204.33L940.077 203.55H940.152C941.592 203.55 943.089 203.924 944.141 205.09L944.151 205.085C945.097 206.031 945.601 207.232 945.601 208.575C945.601 209.85 945.143 211.016 944.421 212.055L944.426 212.06C943.528 213.457 942.128 214.182 940.537 214.35L924.128 216.05L924.023 216.065H923.918C922.29 216.065 920.746 215.575 919.609 214.34C918.52 213.156 918.066 211.567 917.964 209.9L917.919 209.285C915.737 211.115 913.176 212.717 910.25 214.085L910.23 214.095L909.385 212.23C913.748 210.19 917.176 207.668 919.669 204.665L920.009 209.765ZM870.799 179.93C870.799 174.887 871.705 170.24 873.518 165.99C875.332 161.683 878.051 158.227 881.678 155.62C885.361 152.957 889.893 151.625 895.276 151.625C900.659 151.625 905.277 152.617 909.13 154.6C912.983 156.583 916.241 159.247 918.904 162.59V195.91C916.467 199.423 913.294 202.37 909.385 204.75C905.475 207.073 900.659 208.235 894.936 208.235V206.185C900.375 206.185 904.802 205.085 908.32 203C911.811 200.875 914.641 198.283 916.854 195.24V163.33C914.459 160.469 911.582 158.164 908.195 156.42C904.694 154.618 900.41 153.675 895.276 153.675C890.243 153.675 886.15 154.913 882.877 157.28L882.872 157.285C879.568 159.661 877.082 162.81 875.408 166.785L875.403 166.795C873.708 170.768 872.848 175.138 872.848 179.93C872.848 184.714 873.705 189.11 875.398 193.14L876.083 194.6C877.767 197.912 880.038 200.589 882.887 202.67C886.043 204.974 890.016 206.185 894.936 206.185V208.235C889.667 208.235 885.247 206.932 881.678 204.325C878.108 201.718 875.388 198.262 873.518 193.955C871.705 189.648 870.799 184.973 870.799 179.93Z" fill="#EFEFEF"/>
<path d="M651.426 210.19C651.426 208.84 651.892 207.616 652.751 206.585L652.761 206.57C653.862 205.268 655.406 204.74 657.045 204.74V206.79C655.855 206.79 654.949 207.158 654.326 207.895C653.759 208.575 653.476 209.34 653.476 210.19C653.476 211.097 653.787 211.918 654.411 212.655C655.091 213.392 656.082 213.76 657.385 213.76H725.378C726.512 213.76 727.362 213.42 727.928 212.74C728.495 212.003 728.778 211.182 728.778 210.275C728.778 209.425 728.495 208.632 727.928 207.895C727.418 207.158 726.597 206.79 725.463 206.79V204.74C727.036 204.74 728.553 205.274 729.548 206.645C729.561 206.662 729.575 206.683 729.588 206.7C729.595 206.71 729.606 206.72 729.613 206.73C730.39 207.771 730.828 208.964 730.828 210.275C730.828 211.645 730.387 212.905 729.553 213.99L729.503 214.05C728.443 215.322 726.935 215.81 725.378 215.81H657.385C655.692 215.81 654.081 215.318 652.906 214.045L652.876 214.01L652.846 213.98C651.931 212.899 651.426 211.614 651.426 210.19ZM696.566 116.01C696.566 114.197 695.546 113.29 693.507 113.29C693.28 113.29 693.082 113.318 692.912 113.375H692.572L657.045 116.605C656.139 116.718 655.459 117.115 655.006 117.795C654.552 118.475 654.326 119.212 654.326 120.005C654.326 120.912 654.609 121.733 655.176 122.47C655.799 123.207 656.677 123.575 657.81 123.575H658.065C658.179 123.518 658.292 123.49 658.405 123.49L688.407 121.11V206.79H657.045V204.74H686.357V123.325L658.765 125.51L658.55 125.625H657.81C656.191 125.625 654.692 125.073 653.611 123.795L653.581 123.755L653.551 123.72C652.716 122.635 652.276 121.375 652.276 120.005C652.276 118.795 652.631 117.665 653.301 116.66C654.125 115.423 655.372 114.753 656.79 114.575L656.86 114.565L692.387 111.335L692.477 111.325H692.722C692.992 111.273 693.255 111.24 693.507 111.24C694.787 111.24 696.129 111.522 697.161 112.44C698.24 113.399 698.616 114.721 698.616 116.01V204.74H725.463V206.79H696.566V116.01Z" fill="#EFEFEF"/>
<path d="M546.037 210.19C546.037 208.84 546.503 207.616 547.361 206.585L547.371 206.57C548.473 205.268 550.017 204.74 551.656 204.74V206.79C550.466 206.79 549.56 207.158 548.936 207.895C548.37 208.575 548.086 209.34 548.086 210.19C548.086 211.097 548.398 211.918 549.021 212.655C549.701 213.392 550.693 213.76 551.996 213.76H619.989C621.122 213.76 621.972 213.42 622.539 212.74C623.105 212.003 623.389 211.182 623.389 210.275C623.389 209.425 623.105 208.632 622.539 207.895C622.029 207.158 621.207 206.79 620.074 206.79V204.74C621.647 204.74 623.163 205.274 624.159 206.645C624.172 206.662 624.186 206.683 624.199 206.7C624.206 206.71 624.216 206.72 624.224 206.73C625 207.771 625.439 208.964 625.439 210.275C625.439 211.645 624.998 212.905 624.164 213.99L624.114 214.05C623.054 215.322 621.546 215.81 619.989 215.81H551.996C550.302 215.81 548.692 215.318 547.516 214.045L547.486 214.01L547.456 213.98C546.542 212.899 546.037 211.614 546.037 210.19ZM591.177 116.01C591.177 114.197 590.157 113.29 588.117 113.29C587.891 113.29 587.692 113.318 587.522 113.375H587.182L551.656 116.605C550.749 116.718 550.069 117.115 549.616 117.795C549.163 118.475 548.936 119.212 548.936 120.005C548.936 120.912 549.22 121.733 549.786 122.47C550.409 123.207 551.288 123.575 552.421 123.575H552.676C552.789 123.518 552.903 123.49 553.016 123.49L583.018 121.11V206.79H551.656V204.74H580.968V123.325L553.376 125.51L553.161 125.625H552.421C550.802 125.625 549.303 125.073 548.221 123.795L548.191 123.755L548.161 123.72C547.327 122.635 546.886 121.375 546.886 120.005C546.886 118.795 547.241 117.665 547.911 116.66C548.736 115.423 549.982 114.753 551.401 114.575L551.471 114.565L586.997 111.335L587.087 111.325H587.332C587.603 111.273 587.866 111.24 588.117 111.24C589.397 111.24 590.739 111.522 591.772 112.44C592.851 113.399 593.227 114.721 593.227 116.01V204.74H620.074V206.79H591.177V116.01Z" fill="#EFEFEF"/>
<path d="M510.86 173.045C510.86 163.752 507.942 156.697 502.106 151.88C496.327 147.063 489.046 144.655 480.263 144.655C473.464 144.655 467.203 146.015 461.48 148.735C455.814 151.455 451.253 155.393 447.797 160.55C444.397 165.707 442.697 171.912 442.697 179.165C442.697 186.702 444.312 193.162 447.542 198.545C450.828 203.928 455.361 208.065 461.14 210.955C466.976 213.788 473.662 215.205 481.198 215.205C484.144 215.205 487.402 214.808 490.972 214.015C494.598 213.222 498.055 212.06 501.341 210.53C504.627 209 507.319 207.102 509.415 204.835C510.435 203.702 510.945 202.512 510.945 201.265C510.945 200.245 510.633 199.367 510.01 198.63C509.387 197.893 508.565 197.525 507.545 197.525C506.412 197.525 505.251 198.007 504.061 198.97C500.774 202.087 497.063 204.41 492.927 205.94C488.791 207.47 484.654 208.235 480.518 208.235V206.185C484.396 206.185 488.293 205.471 492.217 204.02C496.086 202.589 499.56 200.416 502.651 197.485L502.711 197.43L502.771 197.38C504.198 196.225 505.802 195.475 507.545 195.475C509.128 195.475 510.538 196.08 511.575 197.305C512.53 198.434 512.995 199.791 512.995 201.265C512.995 203.124 512.214 204.783 510.935 206.205L510.92 206.225C508.615 208.718 505.692 210.762 502.206 212.385C498.781 213.98 495.181 215.185 491.412 216.01C487.731 216.828 484.324 217.255 481.198 217.255C473.402 217.255 466.402 215.784 460.245 212.795L460.225 212.785C454.111 209.728 449.283 205.33 445.792 199.61L445.787 199.6C442.331 193.84 440.647 186.998 440.647 179.165C440.647 171.583 442.431 164.971 446.087 159.425L446.097 159.41C449.759 153.946 454.604 149.766 460.595 146.89L460.6 146.885C466.617 144.025 473.182 142.605 480.263 142.605C489.437 142.605 497.205 145.131 503.411 150.3L504.571 151.32C510.196 156.563 512.91 163.902 512.91 173.045C512.91 175.554 512.185 177.796 510.645 179.63C509.035 181.547 506.854 182.49 504.316 182.49H453.026C453.647 190.22 456.345 195.862 460.925 199.695C466.052 203.985 472.533 206.185 480.518 206.185V208.235C472.132 208.235 465.163 205.912 459.61 201.265C454.058 196.618 451.139 189.677 450.856 180.44H504.316C506.299 180.44 507.885 179.732 509.075 178.315C510.265 176.898 510.86 175.142 510.86 173.045ZM480.433 151.625C485.476 151.625 489.499 152.39 492.502 153.92C495.562 155.45 497.856 157.405 499.386 159.785L497.661 160.89C496.368 158.88 494.385 157.149 491.587 155.75L491.572 155.745C488.964 154.416 485.3 153.675 480.433 153.675C472.486 153.675 466.241 155.541 461.53 159.11L461.535 159.115C457.467 162.234 454.793 166.545 453.561 172.185H501.391C501.224 170.8 500.971 169.308 500.616 167.71V167.7C500.108 165.361 499.136 163.103 497.681 160.92L497.661 160.89L499.386 159.785C500.973 162.165 502.049 164.658 502.616 167.265C503.183 169.815 503.523 172.138 503.636 174.235H451.111C452.131 166.982 455.191 161.4 460.29 157.49C465.446 153.58 472.161 151.625 480.433 151.625Z" fill="#EFEFEF"/>
<path d="M329.988 210.105C329.988 208.755 330.455 207.531 331.313 206.5L331.348 206.46L331.378 206.425C332.494 205.208 334.021 204.74 335.608 204.74V206.79C334.418 206.79 333.511 207.13 332.888 207.81C332.322 208.49 332.038 209.255 332.038 210.105C332.038 211.012 332.35 211.862 332.973 212.655C333.653 213.392 334.645 213.76 335.948 213.76H361.7C363.117 213.76 364.165 213.392 364.845 212.655C365.581 211.918 365.95 211.097 365.95 210.19C365.95 209.34 365.61 208.575 364.93 207.895C364.25 207.158 363.23 206.79 361.87 206.79V204.74C363.562 204.74 365.188 205.201 366.375 206.445C367.384 207.454 368 208.724 368 210.19C368 211.722 367.353 213.046 366.295 214.105L366.29 214.1C365.088 215.361 363.42 215.81 361.7 215.81H335.948C334.254 215.81 332.644 215.318 331.468 214.045L331.413 213.985L331.363 213.92C330.49 212.809 329.988 211.522 329.988 210.105ZM377.414 210.105C377.414 208.755 377.88 207.531 378.738 206.5L378.773 206.46L378.803 206.425C379.92 205.208 381.446 204.74 383.033 204.74V206.79C381.843 206.79 380.937 207.13 380.313 207.81C379.747 208.49 379.463 209.255 379.463 210.105C379.463 211.012 379.775 211.862 380.398 212.655C381.078 213.392 382.07 213.76 383.373 213.76H412.695C413.885 213.76 414.763 213.392 415.33 212.655C415.953 211.918 416.265 211.097 416.265 210.19C416.265 209.34 415.981 208.575 415.415 207.895C414.848 207.158 413.998 206.79 412.865 206.79V204.74C414.453 204.74 415.946 205.279 416.985 206.585C417.001 206.605 417.023 206.625 417.04 206.645C417.868 207.664 418.314 208.866 418.314 210.19C418.314 211.614 417.809 212.899 416.895 213.98L416.89 213.975C415.831 215.297 414.296 215.81 412.695 215.81H383.373C381.68 215.81 380.069 215.318 378.893 214.045L378.838 213.985L378.788 213.92C377.916 212.809 377.414 211.522 377.414 210.105ZM403.601 168.455C403.601 161.032 401.675 155.223 397.822 151.03C393.969 146.78 387.934 144.655 379.718 144.655C373.882 144.655 368.5 146.072 363.57 148.905C358.641 151.738 355.099 155.252 352.946 159.445V116.775C352.946 114.565 351.785 113.46 349.461 113.46C349.235 113.46 348.98 113.488 348.697 113.545C348.413 113.545 348.102 113.573 347.762 113.63L331.698 115.245C330.678 115.302 329.942 115.727 329.488 116.52C329.092 117.313 328.894 118.05 328.894 118.73C328.894 119.58 329.177 120.317 329.743 120.94C330.367 121.563 331.188 121.847 332.208 121.79L344.787 121.025V206.79H335.608V204.74H342.737V123.2L332.333 123.835H332.323C330.823 123.918 329.396 123.492 328.294 122.39L328.259 122.355L328.229 122.32C327.316 121.316 326.844 120.084 326.844 118.73C326.844 117.65 327.162 116.599 327.659 115.605L327.709 115.505C328.536 114.057 329.915 113.317 331.493 113.205L347.557 111.59C347.869 111.542 348.18 111.51 348.487 111.5C348.807 111.445 349.135 111.41 349.461 111.41C350.914 111.41 352.383 111.756 353.486 112.805C354.608 113.872 354.996 115.327 354.996 116.775V153.04C357.062 150.811 359.581 148.836 362.55 147.13C367.799 144.113 373.534 142.605 379.718 142.605C388.25 142.605 394.942 144.816 399.326 149.645C403.621 154.319 405.651 160.679 405.651 168.455V204.74H412.865V206.79H403.601V168.455ZM393.392 167.86C393.392 163.159 392.211 159.728 390.082 157.315L390.067 157.3C388.087 155.004 384.924 153.675 380.143 153.675C374.969 153.675 370.541 154.667 366.8 156.59C362.943 158.572 360.035 160.964 357.991 163.725C355.909 166.535 354.996 169.121 354.996 171.515V204.74H361.87V206.79H352.946V171.515C352.946 168.568 354.079 165.565 356.346 162.505C358.612 159.445 361.785 156.867 365.865 154.77C369.944 152.673 374.704 151.625 380.143 151.625C385.299 151.625 389.124 153.07 391.617 155.96C394.167 158.85 395.442 162.817 395.442 167.86V206.79H383.033V204.74H393.392V167.86Z" fill="#EFEFEF"/>
<path d="M242.797 191.235C242.797 189.252 242.486 188.033 241.862 187.58C241.239 187.07 240.531 186.815 239.738 186.815C239.001 186.815 238.264 187.155 237.528 187.835C236.848 188.515 236.508 189.648 236.508 191.235V210.445C236.508 211.465 236.848 212.287 237.528 212.91C238.264 213.477 239.058 213.76 239.908 213.76C240.701 213.76 241.409 213.477 242.032 212.91C242.656 212.343 242.967 211.437 242.967 210.19V205.09C246.31 208.887 250.305 211.522 254.951 212.995C259.654 214.468 264.442 215.205 269.315 215.205C277.36 215.205 283.99 213.675 289.203 210.615C294.415 207.498 297.022 202.653 297.022 196.08C297.022 189.847 295.379 185.398 292.092 182.735C288.863 180.015 284.783 178.173 279.854 177.21L257.841 172.79C253.591 171.827 250.73 170.523 249.257 168.88C247.783 167.18 247.047 165.112 247.047 162.675C247.047 158.425 248.803 155.535 252.316 154.005C255.829 152.418 260.079 151.625 265.065 151.625C270.958 151.625 276.086 152.475 280.448 154.175C284.868 155.818 287.871 158.51 289.458 162.25C289.514 164.687 289.713 166.5 290.052 167.69C290.449 168.88 291.384 169.475 292.857 169.475C294.954 169.475 296.144 168.427 296.427 166.33V149.245C296.427 147.828 296.059 146.78 295.322 146.1C294.642 145.42 293.849 145.08 292.942 145.08C292.036 145.08 291.186 145.448 290.392 146.185C289.656 146.865 289.316 147.913 289.373 149.33V152.475C287.616 150.208 284.443 148.338 279.854 146.865C275.264 145.392 270.533 144.655 265.66 144.655C261.24 144.655 256.934 145.222 252.741 146.355C248.548 147.432 245.092 149.358 242.372 152.135C239.653 154.912 238.293 158.85 238.293 163.95C238.293 168.937 239.936 172.762 243.222 175.425C246.509 178.032 250.815 179.845 256.141 180.865L278.749 185.285C282.602 186.022 285.236 187.325 286.653 189.195C288.069 191.008 288.778 193.275 288.778 195.995C288.778 200.188 287.021 203.277 283.508 205.26C280.052 207.243 275.151 208.235 268.805 208.235V206.185C274.984 206.185 279.474 205.214 282.488 203.485L282.503 203.475C285.341 201.872 286.728 199.485 286.728 195.995C286.728 193.646 286.124 191.846 285.038 190.455L285.018 190.43C284.054 189.162 282.025 187.995 278.364 187.295H278.354L255.746 182.875C250.192 181.81 245.555 179.891 241.947 177.03L241.932 177.015C238.079 173.891 236.243 169.431 236.243 163.95C236.243 158.487 237.707 153.968 240.907 150.7C243.918 147.627 247.719 145.529 252.231 144.37C256.594 143.193 261.072 142.605 265.66 142.605C270.743 142.605 275.685 143.376 280.478 144.915C283.159 145.775 285.48 146.811 287.383 148.035C287.54 146.773 288.018 145.589 289.003 144.68C290.096 143.666 291.423 143.03 292.942 143.03C294.427 143.03 295.734 143.612 296.772 144.65C298.034 145.852 298.477 147.524 298.477 149.245V166.47L298.457 166.605C298.271 167.976 297.749 169.28 296.677 170.225C295.601 171.173 294.241 171.525 292.857 171.525C291.856 171.525 290.84 171.32 289.952 170.755C289.037 170.172 288.434 169.318 288.108 168.34L288.098 168.295L288.083 168.255C287.694 166.895 287.499 165.025 287.428 162.755C286.065 159.769 283.59 157.529 279.734 156.095L279.704 156.085C275.63 154.498 270.766 153.675 265.065 153.675C260.289 153.675 256.343 154.433 253.161 155.87L253.136 155.885C251.714 156.505 250.747 157.348 250.117 158.385C249.477 159.437 249.097 160.83 249.097 162.675C249.097 164.661 249.681 166.24 250.801 167.535C251.831 168.665 254.128 169.842 258.241 170.78L280.258 175.2C285.448 176.215 289.847 178.177 293.382 181.145L294.097 181.77C297.549 185.007 299.072 189.94 299.072 196.08C299.072 203.302 296.143 208.853 290.252 212.375L290.237 212.38C284.623 215.676 277.608 217.255 269.315 217.255C264.232 217.255 259.239 216.484 254.341 214.95L254.331 214.945C250.887 213.853 247.787 212.156 245.017 209.89V210.19C245.017 211.734 244.631 213.315 243.412 214.425C242.437 215.311 241.244 215.81 239.908 215.81C238.563 215.81 237.337 215.35 236.278 214.535L236.208 214.48L236.143 214.42C234.993 213.365 234.458 211.971 234.458 210.445V191.235C234.458 189.44 234.829 187.634 236.078 186.385L236.108 186.36L236.138 186.33C237.114 185.428 238.325 184.765 239.738 184.765C241.011 184.765 242.174 185.191 243.157 185.995C243.971 186.631 244.349 187.553 244.547 188.325C244.762 189.167 244.847 190.158 244.847 191.235C244.847 193.926 245.769 196.332 247.712 198.525L248.522 199.36C250.494 201.255 253.053 202.847 256.256 204.105C259.962 205.482 264.139 206.185 268.805 206.185V208.235C263.932 208.235 259.512 207.498 255.546 206.025C251.636 204.495 248.52 202.455 246.197 199.905C243.93 197.355 242.797 194.465 242.797 191.235Z" fill="#EFEFEF"/>
<path d="M130.429 210.02C130.429 208.542 131.004 207.237 131.993 206.165L132.023 206.135L132.048 206.105C133.291 204.863 134.969 204.4 136.728 204.4V206.45C135.311 206.45 134.235 206.818 133.498 207.555C132.818 208.292 132.478 209.113 132.478 210.02C132.478 210.927 132.847 211.777 133.583 212.57C134.377 213.363 135.481 213.76 136.898 213.76H186.618C188.034 213.76 189.083 213.363 189.763 212.57C190.499 211.777 190.868 210.927 190.868 210.02C190.868 209.113 190.528 208.292 189.848 207.555C189.168 206.818 188.148 206.45 186.788 206.45V204.4C188.507 204.4 190.161 204.875 191.352 206.165C192.342 207.237 192.917 208.542 192.917 210.02C192.917 211.514 192.297 212.817 191.312 213.9C191.304 213.91 191.296 213.92 191.287 213.93C191.278 213.94 191.272 213.955 191.262 213.965L191.257 213.96C190.066 215.306 188.381 215.81 186.618 215.81H136.898C135.089 215.81 133.405 215.292 132.133 214.02L132.108 213.99L132.083 213.965C131.068 212.871 130.429 211.541 130.429 210.02ZM203.361 117.54C203.361 116.747 202.993 116.01 202.256 115.33C201.576 114.593 200.5 114.225 199.027 114.225V112.175C200.746 112.175 202.429 112.597 203.641 113.825C204.68 114.784 205.411 116.032 205.411 117.54C205.411 118.988 204.768 120.223 203.791 121.2L203.756 121.23L203.726 121.26C202.51 122.375 200.86 122.735 199.197 122.735H195.692L169.12 167.735V204.4H186.788V206.45H167.07V167.18L194.522 120.685H199.197C200.613 120.685 201.661 120.373 202.341 119.75C203.021 119.07 203.361 118.333 203.361 117.54ZM117 117.455C117 115.947 117.727 114.699 118.765 113.74C120.011 112.589 121.666 112.175 123.384 112.175L123.384 114.225C121.968 114.225 120.891 114.565 120.155 115.245C119.418 115.925 119.05 116.662 119.05 117.455C119.05 118.248 119.39 118.985 120.07 119.665C120.806 120.345 121.883 120.685 123.299 120.685H130.439L158.911 166.755V206.45H136.728V204.4H156.861V167.325L129.304 122.735H123.299C121.581 122.735 119.926 122.321 118.68 121.17L118.65 121.14L118.62 121.115C117.643 120.138 117 118.903 117 117.455ZM155.766 117.455C155.766 116.662 155.398 115.925 154.661 115.245C153.981 114.565 152.905 114.225 151.432 114.225V112.175C153.136 112.175 154.824 112.56 156.046 113.74C156.066 113.759 156.091 113.776 156.111 113.795C157.119 114.746 157.816 115.975 157.816 117.455C157.816 118.934 157.113 120.159 156.106 121.11C156.087 121.129 156.07 121.151 156.051 121.17L156.046 121.165C154.838 122.334 153.193 122.735 151.517 122.735H143.567L163.385 155.915L182.638 122.735H176.759C175.04 122.735 173.386 122.321 172.139 121.17L172.109 121.14L172.079 121.115C171.102 120.138 170.46 118.903 170.46 117.455C170.46 115.947 171.186 114.699 172.224 113.74C173.471 112.589 175.125 112.175 176.844 112.175V114.225C175.427 114.225 174.351 114.565 173.614 115.245C172.878 115.925 172.509 116.662 172.509 117.455C172.509 118.248 172.849 118.985 173.529 119.665C174.266 120.345 175.342 120.685 176.759 120.685H186.193L163.415 159.955L139.958 120.685H151.517C152.933 120.685 153.981 120.345 154.661 119.665C155.398 118.985 155.766 118.248 155.766 117.455ZM199.027 112.175V114.225H176.844V112.175H199.027ZM151.432 112.175V114.225H123.384L123.384 112.175H151.432Z" fill="#EFEFEF"/>
<path d="M830.358 96C835.183 96 837.598 96.0006 839.097 97.5C840.595 98.9997 840.597 101.414 840.597 106.24V213.76C840.597 218.586 840.595 221 839.097 222.5C837.598 223.999 835.183 224 830.358 224H758.685C753.859 224 751.445 223.999 749.946 222.5C748.446 221 748.446 218.587 748.446 213.76V106.24C748.446 101.413 748.446 98.9996 749.946 97.5C751.445 96.0014 753.859 96 758.685 96H830.358ZM789.402 177.92C784.575 177.92 782.162 177.92 780.663 179.42C779.163 180.92 779.163 183.333 779.163 188.16V193.28C779.163 198.107 779.163 200.52 780.663 202.02C782.162 203.52 784.575 203.52 789.402 203.52H799.641C804.468 203.52 806.881 203.52 808.38 202.02C809.879 200.52 809.88 198.107 809.88 193.28V188.16C809.88 183.333 809.879 180.92 808.38 179.42C806.881 177.92 804.468 177.92 799.641 177.92H789.402Z" fill="#EFEFEF"/>
</svg>
