<svg width="1024" height="127" viewBox="0 0 1024 127" fill="none" xmlns="http://www.w3.org/2000/svg">
<path d="M982.531 118.021C981.412 118.021 980.321 117.683 979.258 117.009C978.251 116.39 977.104 114.675 975.817 111.864L951.142 58.4795H942.666C941.267 58.4795 940.316 58.1141 939.812 57.3832C939.365 56.6523 939.141 55.8651 939.141 55.0218C939.141 54.1222 939.393 53.335 939.896 52.6604C940.4 51.9294 941.435 51.564 943.002 51.564H969.438C970.837 51.564 971.732 51.9294 972.124 52.6604C972.516 53.3913 972.711 54.2065 972.711 55.1061C972.711 55.9495 972.516 56.7366 972.124 57.4675C971.732 58.1422 970.865 58.4795 969.522 58.4795H960.374L982.783 109.081L1003.26 58.4795H996.127C994.728 58.4795 993.833 58.1422 993.441 57.4675C993.049 56.7366 992.854 55.9495 992.854 55.1061C992.854 54.2065 993.049 53.3913 993.441 52.6604C993.889 51.9294 994.812 51.564 996.211 51.564H1018.12C1019.74 51.564 1020.77 51.9294 1021.22 52.6604C1021.72 53.335 1021.98 54.1222 1021.98 55.0218C1021.98 55.8651 1021.75 56.6523 1021.3 57.3832C1020.86 58.1141 1019.91 58.4795 1018.45 58.4795H1010.98L988.573 112.286C987.51 114.872 986.503 116.475 985.552 117.093C984.657 117.711 983.65 118.021 982.531 118.021Z" fill="#EFEFEF"/>
<path d="M879.973 118.274C872.532 118.274 865.93 116.868 860.167 114.057C854.46 111.189 849.984 107.085 846.739 101.744C843.549 96.4026 841.955 89.9931 841.955 82.5153C841.955 75.3186 843.633 69.1621 846.99 64.0457C850.403 58.9293 854.907 55.0218 860.502 52.323C866.153 49.6243 872.336 48.2749 879.05 48.2749C887.722 48.2749 894.912 50.6644 900.619 55.4434C906.382 60.2225 909.263 67.2224 909.263 76.4431C909.263 78.5234 908.676 80.2663 907.501 81.6719C906.326 83.0775 904.759 83.7803 902.801 83.7803H850.012C850.291 92.9448 853.173 99.8323 858.656 104.443C864.139 109.053 871.021 111.358 879.302 111.358C883.386 111.358 887.471 110.599 891.555 109.081C895.639 107.563 899.304 105.258 902.549 102.166C903.724 101.21 904.871 100.732 905.99 100.732C906.997 100.732 907.809 101.097 908.424 101.828C909.04 102.559 909.347 103.431 909.347 104.443C909.347 105.68 908.844 106.86 907.837 107.985C905.766 110.234 903.109 112.117 899.864 113.635C896.619 115.153 893.206 116.306 889.625 117.093C886.1 117.88 882.883 118.274 879.973 118.274ZM850.263 77.6238H902.13C902.018 75.5435 901.682 73.2383 901.123 70.7082C900.563 68.1219 899.5 65.6481 897.933 63.2867C896.423 60.9253 894.157 58.9855 891.135 57.4675C888.17 55.9495 884.198 55.1904 879.218 55.1904C871.049 55.1904 864.419 57.1302 859.327 61.0096C854.292 64.8891 851.271 70.4271 850.263 77.6238Z" fill="#EFEFEF"/>
<path d="M768.016 118.274C761.47 118.274 755.819 116.784 751.063 113.804C746.307 110.768 742.642 106.635 740.069 101.407C737.551 96.1215 736.292 90.0774 736.292 83.2743C736.292 76.5836 737.579 70.5958 740.153 65.3107C742.726 60.0257 746.363 55.8651 751.063 52.829C755.819 49.7929 761.47 48.2749 768.016 48.2749C773.443 48.2749 778.003 49.0901 781.696 50.7206C785.389 52.3511 788.774 54.5157 791.851 57.2145V24.8295L779.43 25.7572C778.423 25.8134 777.612 25.5042 776.996 24.8295C776.437 24.1548 776.157 23.3958 776.157 22.5524C776.157 21.8777 776.381 21.1749 776.828 20.444C777.332 19.6569 778.227 19.2071 779.514 19.0946L796.131 17.3236C797.53 17.2111 798.509 17.4923 799.069 18.167C799.628 18.8416 799.908 19.6569 799.908 20.6127V109.671L812.833 108.744C814.007 108.744 814.847 109.053 815.35 109.671C815.91 110.234 816.19 110.908 816.19 111.696C816.19 112.483 815.91 113.27 815.35 114.057C814.847 114.844 814.063 115.294 813 115.406L796.803 117.093C794.397 117.093 793.11 115.687 792.942 112.876L792.606 107.816C790.145 110.796 786.76 113.298 782.451 115.322C778.143 117.29 773.331 118.274 768.016 118.274ZM768.184 111.358C773.835 111.358 778.591 110.206 782.451 107.9C786.312 105.539 789.445 102.615 791.851 99.1295V66.0698C789.221 62.7526 786.004 60.11 782.2 58.1422C778.395 56.1743 773.835 55.1904 768.52 55.1904C763.204 55.1904 758.728 56.5117 755.091 59.1542C751.511 61.7405 748.825 65.1702 747.035 69.4432C745.244 73.66 744.349 78.2704 744.349 83.2743C744.349 88.2782 745.244 92.9167 747.035 97.1897C748.881 101.463 751.567 104.892 755.091 107.479C758.616 110.065 762.981 111.358 768.184 111.358Z" fill="#EFEFEF"/>
<path d="M533.611 116.84C532.324 116.84 531.345 116.475 530.674 115.744C530.058 115.013 529.75 114.197 529.75 113.298C529.75 112.455 530.03 111.696 530.59 111.021C531.205 110.29 532.1 109.924 533.275 109.924H564.244V24.9138L534.618 27.2752C534.506 27.2752 534.394 27.3033 534.282 27.3596C534.226 27.3596 534.142 27.3596 534.031 27.3596C532.912 27.3596 532.044 26.9941 531.429 26.2632C530.869 25.5323 530.59 24.717 530.59 23.8175C530.59 23.0303 530.813 22.2994 531.261 21.6247C531.709 20.95 532.38 20.5565 533.275 20.444L568.356 17.2393C568.468 17.2393 568.58 17.2393 568.692 17.2393C568.86 17.183 569.056 17.1549 569.279 17.1549C571.294 17.1549 572.301 18.0545 572.301 19.8537V109.924H600.836C601.955 109.924 602.766 110.29 603.269 111.021C603.829 111.752 604.109 112.539 604.109 113.382C604.109 114.282 603.829 115.097 603.269 115.828C602.71 116.503 601.871 116.84 600.752 116.84H533.611Z" fill="#EFEFEF"/>
<path d="M429.543 116.84C428.256 116.84 427.277 116.475 426.605 115.744C425.99 115.013 425.682 114.197 425.682 113.298C425.682 112.455 425.962 111.696 426.521 111.021C427.137 110.29 428.032 109.924 429.207 109.924H460.176V24.9138L430.55 27.2752C430.438 27.2752 430.326 27.3033 430.214 27.3596C430.158 27.3596 430.074 27.3596 429.962 27.3596C428.843 27.3596 427.976 26.9941 427.361 26.2632C426.801 25.5323 426.521 24.717 426.521 23.8175C426.521 23.0303 426.745 22.2994 427.193 21.6247C427.64 20.95 428.312 20.5565 429.207 20.444L464.288 17.2393C464.4 17.2393 464.512 17.2393 464.624 17.2393C464.792 17.183 464.988 17.1549 465.211 17.1549C467.226 17.1549 468.233 18.0545 468.233 19.8537V109.924H496.767C497.886 109.924 498.698 110.29 499.201 111.021C499.761 111.752 500.041 112.539 500.041 113.382C500.041 114.282 499.761 115.097 499.201 115.828C498.642 116.503 497.803 116.84 496.684 116.84H429.543Z" fill="#EFEFEF"/>
<path d="M359.632 118.274C352.191 118.274 345.589 116.868 339.826 114.057C334.119 111.189 329.643 107.085 326.398 101.744C323.209 96.4026 321.614 89.9931 321.614 82.5153C321.614 75.3186 323.293 69.1621 326.65 64.0457C330.063 58.9293 334.567 55.0218 340.162 52.323C345.813 49.6243 351.995 48.2749 358.709 48.2749C367.382 48.2749 374.571 50.6644 380.278 55.4434C386.041 60.2225 388.923 67.2224 388.923 76.4431C388.923 78.5234 388.335 80.2663 387.16 81.6719C385.985 83.0775 384.419 83.7803 382.46 83.7803H329.671C329.951 92.9448 332.832 99.8323 338.315 104.443C343.798 109.053 350.68 111.358 358.961 111.358C363.045 111.358 367.13 110.599 371.214 109.081C375.299 107.563 378.963 105.258 382.209 102.166C383.384 101.21 384.531 100.732 385.65 100.732C386.657 100.732 387.468 101.097 388.083 101.828C388.699 102.559 389.007 103.431 389.007 104.443C389.007 105.68 388.503 106.86 387.496 107.985C385.426 110.234 382.768 112.117 379.523 113.635C376.278 115.153 372.865 116.306 369.284 117.093C365.759 117.88 362.542 118.274 359.632 118.274ZM329.923 77.6238H381.789C381.677 75.5435 381.341 73.2383 380.782 70.7082C380.222 68.1219 379.159 65.6481 377.593 63.2867C376.082 60.9253 373.816 58.9855 370.795 57.4675C367.829 55.9495 363.857 55.1904 358.877 55.1904C350.708 55.1904 344.078 57.1302 338.987 61.0096C333.951 64.8891 330.93 70.4271 329.923 77.6238Z" fill="#EFEFEF"/>
<path d="M216.203 116.84C214.916 116.84 213.937 116.475 213.266 115.744C212.65 114.956 212.342 114.113 212.342 113.214C212.342 112.37 212.622 111.611 213.182 110.936C213.797 110.262 214.692 109.924 215.867 109.924H224.931V24.8295L212.51 25.5885C211.503 25.6447 210.692 25.3636 210.076 24.7452C209.517 24.1267 209.237 23.3958 209.237 22.5524C209.237 21.8777 209.433 21.1468 209.825 20.3597C210.272 19.5726 211 19.1509 212.007 19.0946L227.869 17.4923C228.204 17.436 228.512 17.4079 228.792 17.4079C229.072 17.3517 229.323 17.3236 229.547 17.3236C231.841 17.3236 232.988 18.42 232.988 20.6127V62.9493C235.114 58.7888 238.611 55.3029 243.479 52.4917C248.347 49.6805 253.662 48.2749 259.425 48.2749C267.538 48.2749 273.497 50.3833 277.301 54.6001C281.106 58.7607 283.008 64.5236 283.008 71.8889V109.924H292.156C293.275 109.924 294.114 110.29 294.674 111.021C295.233 111.696 295.513 112.455 295.513 113.298C295.513 114.197 295.205 115.013 294.59 115.744C294.03 116.475 293.163 116.84 291.988 116.84H263.034C261.747 116.84 260.768 116.475 260.096 115.744C259.481 114.956 259.173 114.113 259.173 113.214C259.173 112.37 259.453 111.611 260.012 110.936C260.628 110.262 261.523 109.924 262.698 109.924H274.951V71.2986C274.951 66.2947 273.692 62.359 271.175 59.4916C268.713 56.6241 264.936 55.1904 259.845 55.1904C254.473 55.1904 249.773 56.2306 245.745 58.3109C241.717 60.3911 238.583 62.9493 236.345 65.9854C234.107 69.0215 232.988 72.0014 232.988 74.925V109.924H241.8C243.143 109.924 244.15 110.29 244.822 111.021C245.493 111.696 245.829 112.455 245.829 113.298C245.829 114.197 245.465 115.013 244.738 115.744C244.066 116.475 243.031 116.84 241.633 116.84H216.203Z" fill="#EFEFEF"/>
<path d="M150.405 118.274C145.593 118.274 140.866 117.543 136.222 116.081C131.634 114.619 127.689 112.005 124.388 108.238V113.298C124.388 114.535 124.08 115.434 123.465 115.997C122.849 116.559 122.15 116.84 121.367 116.84C120.528 116.84 119.744 116.559 119.017 115.997C118.345 115.378 118.01 114.563 118.01 113.551V94.491C118.01 92.9167 118.345 91.7922 119.017 91.1175C119.744 90.4429 120.472 90.1055 121.199 90.1055C121.982 90.1055 122.682 90.3585 123.297 90.8645C123.913 91.3143 124.22 92.5231 124.22 94.491C124.22 97.6957 125.339 100.563 127.577 103.093C129.871 105.623 132.949 107.647 136.809 109.165C140.726 110.627 145.09 111.358 149.902 111.358C156.168 111.358 161.008 110.374 164.421 108.406C167.89 106.439 169.624 103.374 169.624 99.2138C169.624 96.515 168.925 94.2661 167.526 92.4669C166.127 90.6115 163.526 89.3184 159.721 88.5875L137.397 84.202C132.137 83.19 127.885 81.3908 124.64 78.8045C121.395 76.162 119.772 72.3668 119.772 67.4191C119.772 62.359 121.115 58.4514 123.801 55.6964C126.486 52.9415 129.899 51.0299 134.04 49.9616C138.18 48.8371 142.432 48.2749 146.796 48.2749C151.608 48.2749 156.28 49.0058 160.812 50.4676C165.344 51.9294 168.477 53.7848 170.212 56.0338V52.9134C170.156 51.5078 170.491 50.4676 171.219 49.7929C172.002 49.062 172.841 48.6966 173.737 48.6966C174.632 48.6966 175.415 49.0339 176.086 49.7086C176.814 50.3833 177.178 51.4234 177.178 52.829V69.7805C176.898 71.8608 175.723 72.901 173.653 72.901C172.198 72.901 171.275 72.3106 170.883 71.1299C170.547 69.9492 170.352 68.1501 170.296 65.7324C168.729 62.0216 165.764 59.351 161.399 57.7205C157.091 56.0338 152.028 55.1904 146.209 55.1904C141.285 55.1904 137.089 55.9776 133.62 57.5518C130.151 59.0699 128.417 61.9373 128.417 66.1541C128.417 68.5717 129.144 70.6239 130.599 72.3106C132.053 73.9411 134.879 75.2343 139.075 76.1901L160.812 80.5755C165.68 81.5314 169.708 83.3586 172.897 86.0574C176.142 88.6999 177.765 93.1135 177.765 99.2981C177.765 105.82 175.191 110.627 170.044 113.72C164.896 116.756 158.35 118.274 150.405 118.274Z" fill="#EFEFEF"/>
<path d="M19.6485 116.84C18.2498 116.84 17.1587 116.446 16.3754 115.659C15.6481 114.872 15.2844 114.029 15.2844 113.129C15.2844 112.23 15.6201 111.414 16.2915 110.683C17.0189 109.953 18.0819 109.587 19.4807 109.587H41.3854V70.2022L13.2702 24.4921H6.22039C4.82163 24.4921 3.75856 24.1548 3.03121 23.4801C2.3598 22.8054 2.0241 22.0745 2.0241 21.2874C2.0241 20.5002 2.38777 19.7693 3.11513 19.0946C3.84249 18.42 4.90555 18.0826 6.30432 18.0826H33.9999C35.4546 18.0826 36.5177 18.42 37.1891 19.0946C37.9164 19.7693 38.2801 20.5002 38.2801 21.2874C38.2801 22.0745 37.9164 22.8054 37.1891 23.4801C36.5177 24.1548 35.4826 24.4921 34.0838 24.4921H22.6699L45.8334 63.4554L68.3256 24.4921H59.0098C57.611 24.4921 56.548 24.1548 55.8206 23.4801C55.1492 22.8054 54.8135 22.0745 54.8135 21.2874C54.8135 20.5002 55.1772 19.7693 55.9045 19.0946C56.6319 18.42 57.695 18.0826 59.0937 18.0826H80.9984C82.4531 18.0826 83.5162 18.4481 84.1876 19.179C84.9149 19.8537 85.2786 20.5846 85.2786 21.3717C85.2786 22.1589 84.9429 22.8898 84.2715 23.5645C83.6001 24.1829 82.565 24.4921 81.1662 24.4921H76.5503L49.4422 70.6239V109.587H68.9131C70.2559 109.587 71.263 109.953 71.9344 110.683C72.6058 111.414 72.9415 112.23 72.9415 113.129C72.9415 114.029 72.5778 114.872 71.8505 115.659C71.1791 116.446 70.144 116.84 68.7452 116.84H19.6485Z" fill="#EFEFEF"/>
<path d="M937.117 55.0218C937.117 53.7137 937.493 52.4905 938.277 51.44C939.381 49.9032 941.295 49.53 943.002 49.53V51.564C941.435 51.564 940.4 51.9294 939.896 52.6604C939.393 53.335 939.141 54.1222 939.141 55.0218C939.141 55.8651 939.365 56.6523 939.812 57.3832C940.316 58.1141 941.267 58.4795 942.666 58.4795H951.142L975.817 111.864C977.104 114.675 978.251 116.39 979.258 117.009C980.321 117.683 981.412 118.021 982.531 118.021C983.65 118.021 984.657 117.711 985.552 117.093C986.503 116.475 987.51 114.872 988.573 112.286L1010.98 58.4795H1018.45C1019.91 58.4795 1020.86 58.1141 1021.3 57.3832C1021.75 56.6523 1021.98 55.8651 1021.98 55.0218C1021.98 54.1222 1021.72 53.335 1021.22 52.6604C1020.77 51.9294 1019.74 51.564 1018.12 51.564V49.53C1019.78 49.53 1021.75 49.8672 1022.83 51.4449L1022.84 51.44C1023.62 52.4905 1024 53.7137 1024 55.0218C1024 56.2481 1023.67 57.4045 1023.03 58.4498C1022.01 60.112 1020.11 60.5135 1018.45 60.5135H1012.33L990.44 113.055L990.444 113.06C989.888 114.415 989.318 115.579 988.731 116.513C988.172 117.402 987.505 118.223 986.692 118.765L986.697 118.77C986.683 118.78 986.668 118.79 986.653 118.8L986.648 118.795C985.417 119.632 984.027 120.055 982.531 120.055C980.992 120.055 979.54 119.585 978.201 118.74C977.33 118.204 976.597 117.338 975.965 116.394C975.309 115.413 974.649 114.173 973.98 112.712L949.854 60.5135H942.666C941 60.5135 939.21 60.0798 938.149 58.5391L938.089 58.4498C937.449 57.4045 937.117 56.2481 937.117 55.0218ZM972.711 55.1061C972.711 54.2065 972.516 53.3913 972.124 52.6604C971.732 51.9294 970.837 51.564 969.438 51.564V49.53C970.841 49.53 972.486 49.8439 973.506 51.0977L973.906 51.6979L974.271 52.5016C974.584 53.3259 974.736 54.2002 974.736 55.1061C974.736 56.2796 974.459 57.3985 973.906 58.4299L973.872 58.4944L973.867 58.4895C972.907 60.1427 971.051 60.5135 969.522 60.5135H963.489L982.699 103.897L1000.26 60.5135H996.127C994.583 60.5135 992.665 60.1633 991.693 58.4895L991.659 58.4299C991.107 57.3985 990.83 56.2796 990.83 55.1061C990.83 53.8997 991.096 52.7489 991.659 51.6979L991.689 51.6434L991.718 51.5937C992.725 49.9512 994.573 49.53 996.211 49.53V51.564C994.812 51.564 993.889 51.9294 993.441 52.6604C993.049 53.3913 992.854 54.2065 992.854 55.1061C992.854 55.9495 993.049 56.7366 993.441 57.4675C993.833 58.1422 994.728 58.4795 996.127 58.4795H1003.26L982.783 109.081L960.374 58.4795H969.522C970.865 58.4795 971.732 58.1422 972.124 57.4675C972.516 56.7366 972.711 55.9495 972.711 55.1061ZM1018.12 49.53V51.564H996.211V49.53H1018.12ZM969.438 49.53V51.564H943.002V49.53H969.438Z" fill="#EFEFEF"/>
<path d="M909.263 76.4431C909.263 67.2224 906.382 60.2225 900.619 55.4434C894.912 50.6644 887.722 48.2749 879.05 48.2749C872.336 48.2749 866.153 49.6243 860.502 52.323C854.907 55.0218 850.403 58.9293 846.99 64.0457C843.633 69.1621 841.955 75.3186 841.955 82.5153C841.955 89.9931 843.549 96.4026 846.739 101.744C849.984 107.085 854.46 111.189 860.167 114.057C865.93 116.868 872.532 118.274 879.973 118.274C882.883 118.274 886.1 117.88 889.625 117.093C893.206 116.306 896.619 115.153 899.864 113.635C903.109 112.117 905.766 110.234 907.837 107.985C908.844 106.86 909.347 105.68 909.347 104.443C909.347 103.431 909.04 102.559 908.424 101.828C907.809 101.097 906.997 100.732 905.99 100.732C904.871 100.732 903.724 101.21 902.549 102.166C899.304 105.258 895.639 107.563 891.555 109.081C887.471 110.599 883.386 111.358 879.302 111.358V109.324C883.131 109.324 886.979 108.616 890.854 107.176C894.674 105.756 898.105 103.6 901.157 100.692L901.216 100.638L901.276 100.588C902.685 99.4419 904.268 98.6979 905.99 98.6979C907.553 98.6979 908.945 99.2978 909.969 100.514C910.912 101.633 911.371 102.98 911.371 104.443C911.371 106.288 910.601 107.934 909.337 109.344L909.323 109.364C907.046 111.837 904.16 113.865 900.718 115.476C897.336 117.058 893.781 118.254 890.059 119.072C886.424 119.884 883.06 120.308 879.973 120.308C872.275 120.308 865.362 118.848 859.283 115.883L859.263 115.873C853.226 112.839 848.459 108.475 845.011 102.801L845.006 102.791C841.593 97.0755 839.931 90.2872 839.931 82.5153C839.931 74.9925 841.692 68.432 845.302 62.9295L845.312 62.9146C848.929 57.4929 853.712 53.3461 859.629 50.4924L859.634 50.4875C865.575 47.6499 872.058 46.2409 879.05 46.2409C888.109 46.2409 895.779 48.7467 901.908 53.8758L903.053 54.8878C908.607 60.0903 911.287 67.3714 911.287 76.4431C911.287 78.9328 910.571 81.1567 909.051 82.9766C907.462 84.8783 905.308 85.8143 902.801 85.8143H852.154C852.767 93.4838 855.432 99.0823 859.954 102.885C865.017 107.141 871.417 109.324 879.302 109.324V111.358C871.021 111.358 864.139 109.053 858.656 104.443C853.173 99.8323 850.291 92.9448 850.012 83.7803H902.801C904.759 83.7803 906.326 83.0775 907.501 81.6719C908.676 80.2663 909.263 78.5234 909.263 76.4431ZM879.218 55.1904C884.198 55.1904 888.17 55.9495 891.135 57.4675C894.157 58.9855 896.423 60.9253 897.933 63.2867L896.23 64.383C894.953 62.3884 892.995 60.6715 890.232 59.2832L890.217 59.2782C887.642 57.9601 884.024 57.2244 879.218 57.2244C871.37 57.2244 865.204 59.0755 860.552 62.617L860.557 62.6219C856.54 65.7168 853.899 69.9938 852.683 75.5898H899.913C899.748 74.2154 899.499 72.7355 899.148 71.1498V71.1398C898.646 68.8192 897.687 66.5783 896.25 64.4128L896.23 64.383L897.933 63.2867C899.5 65.6481 900.563 68.1219 901.123 70.7082C901.682 73.2383 902.018 75.5435 902.13 77.6238H850.263C851.271 70.4271 854.292 64.8891 859.327 61.0096C864.419 57.1302 871.049 55.1904 879.218 55.1904Z" fill="#EFEFEF"/>
<path d="M792.942 112.876C793.11 115.687 794.397 117.093 796.803 117.093L813 115.406C814.063 115.294 814.847 114.844 815.35 114.057C815.91 113.27 816.19 112.483 816.19 111.696C816.19 110.908 815.91 110.234 815.35 109.671C814.847 109.053 814.007 108.744 812.833 108.744L799.908 109.671V20.6127C799.908 19.6569 799.628 18.8416 799.069 18.167C798.509 17.4923 797.53 17.2111 796.131 17.3236L779.514 19.0946C778.227 19.2071 777.332 19.6569 776.828 20.444C776.381 21.1749 776.157 21.8777 776.157 22.5524C776.157 23.3958 776.437 24.1548 776.996 24.8295C777.612 25.5042 778.423 25.8134 779.43 25.7572L791.851 24.8295V57.2145C788.774 54.5157 785.389 52.3511 781.696 50.7206C778.003 49.0901 773.443 48.2749 768.016 48.2749C761.47 48.2749 755.819 49.7929 751.063 52.829C746.363 55.8651 742.726 60.0257 740.153 65.3107C737.579 70.5958 736.292 76.5836 736.292 83.2743C736.292 90.0774 737.551 96.1215 740.069 101.407C742.642 106.635 746.307 110.768 751.063 113.804C755.819 116.784 761.47 118.274 768.016 118.274C773.331 118.274 778.143 117.29 782.451 115.322L783.286 117.172C778.685 119.274 773.583 120.308 768.016 120.308C761.156 120.308 755.119 118.743 749.992 115.53L749.977 115.52C744.9 112.279 740.989 107.86 738.257 102.309L738.247 102.285C735.579 96.6848 734.268 90.3323 734.268 83.2743C734.268 76.3168 735.609 70.0167 738.336 64.4178C741.064 58.8162 744.946 54.364 749.972 51.1175L749.977 51.1125C755.107 47.8378 761.149 46.2409 768.016 46.2409C773.632 46.2409 778.489 47.0847 782.511 48.8603C785.094 50.0012 787.532 51.3955 789.827 53.0324V27.0123L779.578 27.7812L779.544 27.7862C778.005 27.8721 776.578 27.3789 775.505 26.2037L775.476 26.1689L775.441 26.1293C774.593 25.1061 774.133 23.8914 774.133 22.5524C774.133 21.412 774.514 20.3425 775.105 19.3774L775.125 19.3427C775.966 18.0289 777.297 17.3874 778.724 17.15L779.341 17.0706L795.919 15.3045L795.968 15.2995C797.618 15.1669 799.438 15.4377 800.624 16.8672C801.513 17.9399 801.932 19.2272 801.932 20.6127V107.484L812.758 106.71H812.833C814.254 106.71 815.733 107.081 816.772 108.238L816.782 108.233C817.716 109.172 818.214 110.363 818.214 111.696C818.214 112.96 817.761 114.118 817.049 115.148L817.053 115.153C816.167 116.539 814.784 117.259 813.213 117.425L797.01 119.112L796.906 119.127H796.803C795.195 119.127 793.67 118.641 792.547 117.415C791.472 116.241 791.023 114.664 790.923 113.01L790.878 112.4C788.724 114.216 786.195 115.805 783.305 117.162L783.286 117.172L782.451 115.322C786.76 113.298 790.145 110.796 792.606 107.816L792.942 112.876ZM744.349 83.2743C744.349 78.2704 745.244 73.66 747.035 69.4432C748.825 65.1702 751.511 61.7405 755.091 59.1542C758.728 56.5117 763.204 55.1904 768.52 55.1904C773.835 55.1904 778.395 56.1743 782.2 58.1422C786.004 60.11 789.221 62.7526 791.851 66.0698V99.1295C789.445 102.615 786.312 105.539 782.451 107.9C778.591 110.206 773.835 111.358 768.184 111.358V109.324C773.555 109.324 777.926 108.233 781.4 106.164C784.847 104.055 787.642 101.483 789.827 98.4647V66.804C787.462 63.9658 784.621 61.6783 781.276 59.948C777.819 58.1597 773.589 57.2244 768.52 57.2244C763.549 57.2244 759.508 58.4529 756.276 60.8012L756.271 60.8062C753.008 63.1635 750.553 66.288 748.901 70.232L748.896 70.2419C747.222 74.1842 746.373 78.5194 746.373 83.2743C746.373 88.0213 747.219 92.3823 748.891 96.3811L749.567 97.8297C751.23 101.116 753.472 103.772 756.286 105.837C759.402 108.122 763.325 109.324 768.184 109.324V111.358C762.981 111.358 758.616 110.065 755.091 107.479C751.567 104.892 748.881 101.463 747.035 97.1897C745.244 92.9167 744.349 88.2782 744.349 83.2743Z" fill="#EFEFEF"/>
<path d="M527.726 113.298C527.726 111.959 528.187 110.744 529.035 109.721L529.044 109.706C530.132 108.415 531.657 107.89 533.275 107.89V109.924C532.1 109.924 531.205 110.29 530.59 111.021C530.03 111.696 529.75 112.455 529.75 113.298C529.75 114.197 530.058 115.013 530.674 115.744C531.345 116.475 532.324 116.84 533.611 116.84H600.752C601.871 116.84 602.71 116.503 603.269 115.828C603.829 115.097 604.109 114.282 604.109 113.382C604.109 112.539 603.829 111.752 603.269 111.021C602.766 110.29 601.955 109.924 600.836 109.924V107.89C602.389 107.89 603.886 108.42 604.869 109.781C604.882 109.798 604.896 109.818 604.908 109.835C604.916 109.845 604.926 109.855 604.933 109.865C605.7 110.897 606.133 112.082 606.133 113.382C606.133 114.742 605.698 115.992 604.874 117.068L604.825 117.128C603.778 118.39 602.289 118.874 600.752 118.874H533.611C531.939 118.874 530.348 118.386 529.188 117.123L529.158 117.088L529.128 117.058C528.225 115.986 527.726 114.711 527.726 113.298ZM572.301 19.8537C572.301 18.0545 571.294 17.1549 569.279 17.1549C569.056 17.1549 568.86 17.183 568.692 17.2393H568.356L533.275 20.444C532.38 20.5565 531.709 20.95 531.261 21.6247C530.813 22.2994 530.59 23.0303 530.59 23.8175C530.59 24.717 530.869 25.5323 531.429 26.2632C532.044 26.9941 532.912 27.3596 534.031 27.3596H534.282C534.394 27.3033 534.506 27.2752 534.618 27.2752L564.244 24.9138V109.924H533.275V107.89H562.22V27.1115L534.974 29.2795L534.761 29.3936H534.031C532.432 29.3936 530.952 28.8461 529.884 27.5779L529.854 27.5382L529.824 27.5034C529 26.4269 528.566 25.1772 528.566 23.8175C528.566 22.617 528.916 21.4961 529.578 20.4986C530.392 19.2714 531.623 18.6061 533.023 18.4299L533.093 18.42L568.174 15.2152L568.262 15.2053H568.504C568.771 15.1539 569.031 15.1209 569.279 15.1209C570.543 15.1209 571.869 15.4007 572.888 16.3116C573.953 17.263 574.325 18.5748 574.325 19.8537V107.89H600.836V109.924H572.301V19.8537Z" fill="#EFEFEF"/>
<path d="M423.658 113.298C423.658 111.959 424.118 110.744 424.966 109.721L424.976 109.706C426.064 108.415 427.589 107.89 429.207 107.89V109.924C428.032 109.924 427.137 110.29 426.521 111.021C425.962 111.696 425.682 112.455 425.682 113.298C425.682 114.197 425.99 115.013 426.605 115.744C427.277 116.475 428.256 116.84 429.543 116.84H496.684C497.803 116.84 498.642 116.503 499.201 115.828C499.761 115.097 500.041 114.282 500.041 113.382C500.041 112.539 499.761 111.752 499.201 111.021C498.698 110.29 497.886 109.924 496.767 109.924V107.89C498.321 107.89 499.818 108.42 500.801 109.781C500.814 109.798 500.827 109.818 500.84 109.835C500.847 109.845 500.858 109.855 500.865 109.865C501.632 110.897 502.065 112.082 502.065 113.382C502.065 114.742 501.63 115.992 500.806 117.068L500.756 117.128C499.71 118.39 498.221 118.874 496.684 118.874H429.543C427.87 118.874 426.28 118.386 425.119 117.123L425.09 117.088L425.06 117.058C424.157 115.986 423.658 114.711 423.658 113.298ZM468.233 19.8537C468.233 18.0545 467.226 17.1549 465.211 17.1549C464.988 17.1549 464.792 17.183 464.624 17.2393H464.288L429.207 20.444C428.312 20.5565 427.64 20.95 427.193 21.6247C426.745 22.2994 426.521 23.0303 426.521 23.8175C426.521 24.717 426.801 25.5323 427.361 26.2632C427.976 26.9941 428.843 27.3596 429.962 27.3596H430.214C430.326 27.3033 430.438 27.2752 430.55 27.2752L460.176 24.9138V109.924H429.207V107.89H458.152V27.1115L430.905 29.2795L430.693 29.3936H429.962C428.364 29.3936 426.884 28.8461 425.815 27.5779L425.786 27.5382L425.756 27.5034C424.932 26.4269 424.497 25.1772 424.497 23.8175C424.497 22.617 424.848 21.4961 425.509 20.4986C426.324 19.2714 427.555 18.6061 428.955 18.4299L429.024 18.42L464.105 15.2152L464.194 15.2053H464.436C464.703 15.1539 464.963 15.1209 465.211 15.1209C466.475 15.1209 467.8 15.4007 468.82 16.3116C469.885 17.263 470.257 18.5748 470.257 19.8537V107.89H496.767V109.924H468.233V19.8537Z" fill="#EFEFEF"/>
<path d="M388.923 76.4431C388.923 67.2224 386.041 60.2225 380.278 55.4434C374.571 50.6644 367.382 48.2749 358.709 48.2749C351.995 48.2749 345.813 49.6243 340.162 52.323C334.567 55.0218 330.063 58.9293 326.65 64.0457C323.293 69.1621 321.614 75.3186 321.614 82.5153C321.614 89.9931 323.209 96.4026 326.398 101.744C329.643 107.085 334.119 111.189 339.826 114.057C345.589 116.868 352.191 118.274 359.632 118.274C362.542 118.274 365.759 117.88 369.284 117.093C372.865 116.306 376.278 115.153 379.523 113.635C382.768 112.117 385.426 110.234 387.496 107.985C388.503 106.86 389.007 105.68 389.007 104.443C389.007 103.431 388.699 102.559 388.083 101.828C387.468 101.097 386.657 100.732 385.65 100.732C384.531 100.732 383.384 101.21 382.209 102.166C378.963 105.258 375.299 107.563 371.214 109.081C367.13 110.599 363.045 111.358 358.961 111.358V109.324C362.791 109.324 366.638 108.616 370.513 107.176C374.334 105.756 377.765 103.6 380.816 100.692L380.876 100.638L380.935 100.588C382.344 99.4419 383.928 98.6979 385.65 98.6979C387.213 98.6979 388.605 99.2978 389.629 100.514C390.572 101.633 391.031 102.98 391.031 104.443C391.031 106.288 390.26 107.934 388.997 109.344L388.982 109.364C386.705 111.837 383.819 113.865 380.377 115.476C376.995 117.058 373.44 118.254 369.718 119.072C366.084 119.884 362.719 120.308 359.632 120.308C351.934 120.308 345.022 118.848 338.942 115.883L338.923 115.873C332.885 112.839 328.118 108.475 324.67 102.801L324.665 102.791C321.253 97.0755 319.59 90.2872 319.59 82.5153C319.59 74.9925 321.351 68.432 324.961 62.9295L324.971 62.9146C328.588 57.4929 333.372 53.3461 339.288 50.4924L339.293 50.4875C345.235 47.6499 351.717 46.2409 358.709 46.2409C367.768 46.2409 375.438 48.7467 381.567 53.8758L382.712 54.8878C388.267 60.0903 390.947 67.3714 390.947 76.4431C390.947 78.9328 390.231 81.1567 388.71 82.9766C387.121 84.8783 384.967 85.8143 382.46 85.8143H331.814C332.427 93.4838 335.091 99.0823 339.614 102.885C344.676 107.141 351.076 109.324 358.961 109.324V111.358C350.68 111.358 343.798 109.053 338.315 104.443C332.832 99.8323 329.951 92.9448 329.671 83.7803H382.46C384.419 83.7803 385.985 83.0775 387.16 81.6719C388.335 80.2663 388.923 78.5234 388.923 76.4431ZM358.877 55.1904C363.857 55.1904 367.829 55.9495 370.795 57.4675C373.816 58.9855 376.082 60.9253 377.593 63.2867L375.889 64.383C374.613 62.3884 372.654 60.6715 369.891 59.2832L369.876 59.2782C367.301 57.9601 363.683 57.2244 358.877 57.2244C351.03 57.2244 344.863 59.0755 340.211 62.617L340.216 62.6219C336.199 65.7168 333.558 69.9938 332.342 75.5898H379.572C379.407 74.2154 379.158 72.7355 378.807 71.1498V71.1398C378.305 68.8192 377.346 66.5783 375.909 64.4128L375.889 64.383L377.593 63.2867C379.159 65.6481 380.222 68.1219 380.782 70.7082C381.341 73.2383 381.677 75.5435 381.789 77.6238H329.923C330.93 70.4271 333.951 64.8891 338.987 61.0096C344.078 57.1302 350.708 55.1904 358.877 55.1904Z" fill="#EFEFEF"/>
<path d="M210.318 113.214C210.318 111.875 210.779 110.66 211.627 109.637L211.661 109.597L211.691 109.562C212.793 108.354 214.3 107.89 215.867 107.89V109.924C214.692 109.924 213.797 110.262 213.182 110.936C212.622 111.611 212.342 112.37 212.342 113.214C212.342 114.113 212.65 114.956 213.266 115.744C213.937 116.475 214.916 116.84 216.203 116.84H241.633C243.031 116.84 244.066 116.475 244.738 115.744C245.465 115.013 245.829 114.197 245.829 113.298C245.829 112.455 245.493 111.696 244.822 111.021C244.15 110.29 243.143 109.924 241.8 109.924V107.89C243.471 107.89 245.077 108.348 246.249 109.582C247.245 110.583 247.853 111.843 247.853 113.298C247.853 114.818 247.215 116.132 246.17 117.182L246.165 117.177C244.978 118.428 243.33 118.874 241.633 118.874H216.203C214.531 118.874 212.94 118.386 211.78 117.123L211.725 117.063L211.676 116.999C210.814 115.896 210.318 114.62 210.318 113.214ZM257.149 113.214C257.149 111.875 257.609 110.66 258.457 109.637L258.492 109.597L258.521 109.562C259.624 108.354 261.131 107.89 262.698 107.89V109.924C261.523 109.924 260.628 110.262 260.012 110.936C259.453 111.611 259.173 112.37 259.173 113.214C259.173 114.113 259.481 114.956 260.096 115.744C260.768 116.475 261.747 116.84 263.034 116.84H291.988C293.163 116.84 294.03 116.475 294.59 115.744C295.205 115.013 295.513 114.197 295.513 113.298C295.513 112.455 295.233 111.696 294.674 111.021C294.114 110.29 293.275 109.924 292.156 109.924V107.89C293.724 107.89 295.199 108.426 296.224 109.721C296.24 109.741 296.262 109.761 296.278 109.781C297.096 110.792 297.537 111.984 297.537 113.298C297.537 114.711 297.038 115.986 296.135 117.058L296.13 117.053C295.085 118.365 293.569 118.874 291.988 118.874H263.034C261.361 118.874 259.771 118.386 258.61 117.123L258.556 117.063L258.507 116.999C257.645 115.896 257.149 114.62 257.149 113.214ZM283.008 71.8889C283.008 64.5236 281.106 58.7607 277.301 54.6001C273.497 50.3833 267.538 48.2749 259.425 48.2749C253.662 48.2749 248.347 49.6805 243.479 52.4917C238.611 55.3029 235.114 58.7888 232.988 62.9493V20.6127C232.988 18.42 231.841 17.3236 229.547 17.3236C229.323 17.3236 229.072 17.3517 228.792 17.4079C228.512 17.4079 228.204 17.436 227.869 17.4923L212.007 19.0946C211 19.1509 210.272 19.5726 209.825 20.3597C209.433 21.1468 209.237 21.8777 209.237 22.5524C209.237 23.3958 209.517 24.1267 210.076 24.7452C210.692 25.3636 211.503 25.6447 212.51 25.5885L224.931 24.8295V109.924H215.867V107.89H222.907V26.9875L212.634 27.6175H212.624C211.143 27.7002 209.733 27.2775 208.645 26.1838L208.61 26.1491L208.581 26.1144C207.679 25.1182 207.213 23.8962 207.213 22.5524C207.213 21.4812 207.527 20.4384 208.018 19.4518L208.067 19.3526C208.884 17.916 210.246 17.1819 211.804 17.0706L227.666 15.4682C227.975 15.421 228.282 15.3887 228.585 15.3789C228.901 15.324 229.225 15.2896 229.547 15.2896C230.981 15.2896 232.432 15.6327 233.521 16.6737C234.629 17.7328 235.012 19.1765 235.012 20.6127V56.5944C237.052 54.3825 239.54 52.4236 242.472 50.7305C247.655 47.7375 253.318 46.2409 259.425 46.2409C267.85 46.2409 274.457 48.4349 278.787 53.2259C283.028 57.8639 285.032 64.174 285.032 71.8889V107.89H292.156V109.924H283.008V71.8889ZM272.927 71.2986C272.927 66.634 271.761 63.2298 269.659 60.836L269.644 60.8211C267.689 58.5435 264.565 57.2244 259.845 57.2244C254.735 57.2244 250.362 58.2091 246.668 60.1166C242.86 62.0831 239.989 64.4567 237.97 67.1959C235.914 69.9842 235.012 72.5495 235.012 74.925V107.89H241.8V109.924H232.988V74.925C232.988 72.0014 234.107 69.0215 236.345 65.9854C238.583 62.9493 241.717 60.3911 245.745 58.3109C249.773 56.2306 254.473 55.1904 259.845 55.1904C264.936 55.1904 268.713 56.6241 271.175 59.4916C273.692 62.359 274.951 66.2947 274.951 71.2986V109.924H262.698V107.89H272.927V71.2986Z" fill="#EFEFEF"/>
<path d="M124.22 94.491C124.22 92.5231 123.913 91.3143 123.297 90.8645C122.682 90.3585 121.982 90.1055 121.199 90.1055C120.472 90.1055 119.744 90.4429 119.017 91.1175C118.345 91.7922 118.01 92.9167 118.01 94.491V113.551C118.01 114.563 118.345 115.378 119.017 115.997C119.744 116.559 120.528 116.84 121.367 116.84C122.15 116.84 122.849 116.559 123.465 115.997C124.08 115.434 124.388 114.535 124.388 113.298V108.238C127.689 112.005 131.634 114.619 136.222 116.081C140.866 117.543 145.593 118.274 150.405 118.274C158.35 118.274 164.896 116.756 170.044 113.72C175.191 110.627 177.765 105.82 177.765 99.2981C177.765 93.1135 176.142 88.6999 172.897 86.0574C169.708 83.3586 165.68 81.5314 160.812 80.5755L139.075 76.1901C134.879 75.2343 132.053 73.9411 130.599 72.3106C129.144 70.6239 128.417 68.5717 128.417 66.1541C128.417 61.9373 130.151 59.0699 133.62 57.5518C137.089 55.9776 141.285 55.1904 146.209 55.1904C152.028 55.1904 157.091 56.0338 161.399 57.7205C165.764 59.351 168.729 62.0216 170.296 65.7324C170.352 68.1501 170.547 69.9492 170.883 71.1299C171.275 72.3106 172.198 72.901 173.653 72.901C175.723 72.901 176.898 71.8608 177.178 69.7805V52.829C177.178 51.4234 176.814 50.3833 176.086 49.7086C175.415 49.0339 174.632 48.6966 173.737 48.6966C172.841 48.6966 172.002 49.062 171.219 49.7929C170.491 50.4676 170.156 51.5078 170.212 52.9134V56.0338C168.477 53.7848 165.344 51.9294 160.812 50.4676C156.28 49.0058 151.608 48.2749 146.796 48.2749C142.432 48.2749 138.18 48.8371 134.04 49.9616C129.899 51.0299 126.486 52.9415 123.801 55.6964C121.115 58.4514 119.772 62.359 119.772 67.4191C119.772 72.3668 121.395 76.162 124.64 78.8045C127.885 81.3908 132.137 83.19 137.397 84.202L159.721 88.5875C163.526 89.3184 166.127 90.6115 167.526 92.4669C168.925 94.2661 169.624 96.515 169.624 99.2138C169.624 103.374 167.89 106.439 164.421 108.406C161.008 110.374 156.168 111.358 149.902 111.358V109.324C156.003 109.324 160.437 108.361 163.414 106.645L163.428 106.635C166.231 105.045 167.6 102.676 167.6 99.2138C167.6 96.8827 167.004 95.0968 165.931 93.7171L165.912 93.6923C164.96 92.4342 162.956 91.2763 159.341 90.5818H159.331L137.007 86.1963C131.523 85.1397 126.943 83.2359 123.381 80.397L123.366 80.3821C119.561 77.2829 117.748 72.8571 117.748 67.4191C117.748 61.9992 119.194 57.5147 122.354 54.2727C125.327 51.2233 129.08 49.1419 133.536 47.9921C137.844 46.8245 142.266 46.2409 146.796 46.2409C151.815 46.2409 156.695 47.0061 161.429 48.5329C164.076 49.3866 166.368 50.414 168.247 51.6285C168.402 50.3759 168.874 49.2017 169.846 48.2997C170.926 47.2937 172.237 46.6626 173.737 46.6626C175.203 46.6626 176.493 47.2398 177.518 48.2699C178.765 49.4628 179.202 51.1217 179.202 52.829V69.9195L179.182 70.0534C178.999 71.4138 178.483 72.7073 177.424 73.6451C176.362 74.5853 175.019 74.935 173.653 74.935C172.664 74.935 171.661 74.7316 170.784 74.171C169.88 73.5927 169.285 72.7455 168.963 71.7748L168.953 71.7302L168.938 71.6905C168.554 70.3412 168.361 68.4856 168.291 66.2335C166.946 63.2706 164.501 61.0481 160.693 59.6255L160.664 59.6156C156.642 58.041 151.839 57.2244 146.209 57.2244C141.492 57.2244 137.596 57.9768 134.454 59.4023L134.43 59.4171C133.025 60.0319 132.07 60.8686 131.448 61.8976C130.817 62.941 130.441 64.3233 130.441 66.1541C130.441 68.125 131.017 69.6914 132.124 70.9761C133.14 72.0975 135.409 73.2652 139.47 74.1958L161.212 78.5812C166.336 79.5884 170.68 81.5347 174.171 84.4798L174.877 85.0999C178.286 88.3114 179.789 93.2059 179.789 99.2981C179.789 106.464 176.897 111.972 171.081 115.466L171.066 115.471C165.522 118.741 158.594 120.308 150.405 120.308C145.387 120.308 140.456 119.543 135.619 118.021L135.609 118.016C132.209 116.932 129.147 115.248 126.412 113V113.298C126.412 114.83 126.031 116.399 124.827 117.5C123.865 118.379 122.686 118.874 121.367 118.874C120.039 118.874 118.828 118.417 117.783 117.609L117.714 117.554L117.649 117.495C116.514 116.448 115.986 115.065 115.986 113.551V94.491C115.986 92.7104 116.351 90.9186 117.585 89.6789L117.615 89.6541L117.644 89.6243C118.609 88.7298 119.804 88.0715 121.199 88.0715C122.456 88.0715 123.605 88.4944 124.576 89.2919C125.379 89.9226 125.753 90.8376 125.948 91.6037C126.161 92.4389 126.244 93.4228 126.244 94.491C126.244 97.1608 127.155 99.548 129.073 101.724L129.873 102.552C131.82 104.433 134.348 106.013 137.51 107.26C141.17 108.626 145.294 109.324 149.902 109.324V111.358C145.09 111.358 140.726 110.627 136.809 109.165C132.949 107.647 129.871 105.623 127.577 103.093C125.339 100.563 124.22 97.6957 124.22 94.491Z" fill="#EFEFEF"/>
<path d="M13.2603 113.129C13.2603 111.663 13.8288 110.368 14.8055 109.304L14.8351 109.275L14.8598 109.245C16.0866 108.012 17.7436 107.553 19.4807 107.553V109.587C18.0819 109.587 17.0189 109.953 16.2915 110.683C15.6201 111.414 15.2844 112.23 15.2844 113.129C15.2844 114.029 15.6481 114.872 16.3754 115.659C17.1587 116.446 18.2498 116.84 19.6485 116.84H68.7452C70.144 116.84 71.1791 116.446 71.8505 115.659C72.5778 114.872 72.9415 114.029 72.9415 113.129C72.9415 112.23 72.6058 111.414 71.9344 110.683C71.263 109.953 70.2559 109.587 68.9131 109.587V107.553C70.6108 107.553 72.2442 108.024 73.4204 109.304C74.3971 110.368 74.9656 111.663 74.9656 113.129C74.9656 114.611 74.3529 115.905 73.3809 116.979C73.3725 116.989 73.3646 116.999 73.3562 117.009C73.3471 117.019 73.3407 117.033 73.3315 117.043L73.3266 117.038C72.1499 118.374 70.4865 118.874 68.7452 118.874H19.6485C17.8618 118.874 16.1997 118.36 14.9438 117.098L14.9191 117.068L14.8944 117.043C13.8912 115.958 13.2603 114.638 13.2603 113.129ZM85.2786 21.3717C85.2786 20.5846 84.9149 19.8537 84.1876 19.179C83.5162 18.4481 82.4531 18.0826 80.9984 18.0826V16.0486C82.6957 16.0486 84.3578 16.4677 85.5551 17.6857C86.5806 18.637 87.3027 19.8756 87.3027 21.3717C87.3027 22.8086 86.668 24.0336 85.7032 25.0031L85.6686 25.0329L85.639 25.0627C84.4384 26.1686 82.809 26.5261 81.1662 26.5261H77.7055L51.4663 71.1746V107.553H68.9131V109.587H49.4422V70.6239L76.5503 24.4921H81.1662C82.565 24.4921 83.6001 24.1829 84.2715 23.5645C84.9429 22.8898 85.2786 22.1589 85.2786 21.3717ZM0 21.2874C0 19.7914 0.717432 18.5526 1.7427 17.6014C2.9735 16.4597 4.60707 16.0486 6.30432 16.0486L6.30432 18.0826C4.90555 18.0826 3.84249 18.42 3.11513 19.0946C2.38777 19.7693 2.0241 20.5002 2.0241 21.2874C2.0241 22.0745 2.3598 22.8054 3.03121 23.4801C3.75856 24.1548 4.82163 24.4921 6.22039 24.4921H13.2702L41.3854 70.2022V109.587H19.4807V107.553H39.3613V70.7678L12.1495 26.5261H6.22039C4.52314 26.5261 2.88957 26.115 1.65877 24.9734L1.62915 24.9436L1.59953 24.9188C0.634747 23.9493 0 22.7243 0 21.2874ZM38.2801 21.2874C38.2801 20.5002 37.9164 19.7693 37.1891 19.0946C36.5177 18.42 35.4546 18.0826 33.9999 18.0826V16.0486C35.6833 16.0486 37.3501 16.4311 38.5566 17.6014C38.5764 17.6198 38.6011 17.6374 38.6207 17.656C39.6159 18.6 40.3042 19.8189 40.3042 21.2874C40.3042 22.7547 39.6097 23.9701 38.6158 24.9138C38.5968 24.9329 38.5807 24.9547 38.5615 24.9734L38.5566 24.9684C37.3633 26.1283 35.7396 26.5261 34.0838 26.5261H26.2343L45.8038 59.4469L64.8155 26.5261H59.0098C57.3126 26.5261 55.679 26.115 54.4482 24.9734L54.4186 24.9436L54.3889 24.9188C53.4242 23.9493 52.7894 22.7243 52.7894 21.2874C52.7894 19.7914 53.5068 18.5526 54.5321 17.6014C55.7629 16.4597 57.3965 16.0486 59.0937 16.0486V18.0826C57.695 18.0826 56.6319 18.42 55.9045 19.0946C55.1772 19.7693 54.8135 20.5002 54.8135 21.2874C54.8135 22.0745 55.1492 22.8054 55.8206 23.4801C56.548 24.1548 57.611 24.4921 59.0098 24.4921H68.3256L45.8334 63.4554L22.6699 24.4921H34.0838C35.4826 24.4921 36.5177 24.1548 37.1891 23.4801C37.9164 22.8054 38.2801 22.0745 38.2801 21.2874ZM80.9984 16.0486V18.0826H59.0937V16.0486H80.9984ZM33.9999 16.0486V18.0826H6.30432L6.30432 16.0486H33.9999Z" fill="#EFEFEF"/>
<path d="M704.415 0C709.18 2.81409e-08 711.564 0.000588324 713.045 1.48828C714.524 2.97625 714.526 5.37159 714.526 10.16V116.84C714.526 121.628 714.524 124.024 713.045 125.512C711.564 126.999 709.18 127 704.415 127H633.641C628.876 127 626.492 126.999 625.011 125.512C623.531 124.024 623.53 121.629 623.53 116.84V10.16C623.53 5.37053 623.531 2.97618 625.011 1.48828C626.492 0.00137225 628.876 0 633.641 0H704.415ZM663.973 81.28C659.206 81.28 656.824 81.2804 655.343 82.7683C653.862 84.2562 653.862 86.6505 653.862 91.44V96.52C653.862 101.309 653.862 103.704 655.343 105.192C656.824 106.68 659.206 106.68 663.973 106.68H674.083C678.849 106.68 681.232 106.68 682.713 105.192C684.193 103.704 684.194 101.309 684.194 96.52V91.44C684.194 86.6505 684.193 84.2562 682.713 82.7683C681.232 81.2804 678.849 81.28 674.083 81.28H663.973Z" fill="#EFEFEF"/>
</svg>
