<svg width="1024" height="126" viewBox="0 0 1024 126" fill="none" xmlns="http://www.w3.org/2000/svg">
<g opacity="0.77">
<path d="M982.531 117.091C981.412 117.091 980.321 116.757 979.258 116.087C978.251 115.474 977.104 113.772 975.817 110.983L951.142 58.0191H942.666C941.267 58.0191 940.316 57.6565 939.812 56.9313C939.365 56.2062 939.141 55.4252 939.141 54.5885C939.141 53.696 939.393 52.9151 939.896 52.2457C940.4 51.5205 941.435 51.158 943.002 51.158H969.438C970.837 51.158 971.732 51.5205 972.124 52.2457C972.516 52.9709 972.711 53.7797 972.711 54.6722C972.711 55.5089 972.516 56.2898 972.124 57.015C971.732 57.6844 970.865 58.0191 969.522 58.0191H960.374L982.783 108.222L1003.26 58.0191H996.127C994.728 58.0191 993.833 57.6844 993.441 57.015C993.049 56.2898 992.854 55.5089 992.854 54.6722C992.854 53.7797 993.049 52.9709 993.441 52.2457C993.889 51.5205 994.812 51.158 996.211 51.158H1018.12C1019.74 51.158 1020.77 51.5205 1021.22 52.2457C1021.72 52.9151 1021.98 53.696 1021.98 54.5885C1021.98 55.4252 1021.75 56.2062 1021.3 56.9313C1020.86 57.6565 1019.91 58.0191 1018.45 58.0191H1010.98L988.573 111.402C987.51 113.968 986.503 115.557 985.552 116.171C984.657 116.785 983.65 117.091 982.531 117.091Z" fill="#777777"/>
<path d="M879.973 117.342C872.532 117.342 865.93 115.948 860.167 113.159C854.46 110.314 849.984 106.242 846.739 100.943C843.549 95.6435 841.955 89.2845 841.955 81.8655C841.955 74.7255 843.633 68.6175 846.99 63.5414C850.403 58.4653 854.907 54.5885 860.502 51.911C866.153 49.2335 872.336 47.8948 879.05 47.8948C887.722 47.8948 894.912 50.2655 900.619 55.0069C906.382 59.7483 909.263 66.693 909.263 75.8412C909.263 77.9051 908.676 79.6343 907.501 81.0288C906.326 82.4234 904.759 83.1206 902.801 83.1206H850.012C850.291 92.213 853.173 99.0462 858.656 103.62C864.139 108.194 871.021 110.481 879.302 110.481C883.386 110.481 887.471 109.728 891.555 108.222C895.639 106.716 899.304 104.429 902.549 101.361C903.724 100.413 904.871 99.9387 905.99 99.9387C906.997 99.9387 907.809 100.301 908.424 101.026C909.04 101.752 909.347 102.616 909.347 103.62C909.347 104.847 908.844 106.019 907.837 107.134C905.766 109.366 903.109 111.234 899.864 112.74C896.619 114.247 893.206 115.39 889.625 116.171C886.1 116.952 882.883 117.342 879.973 117.342ZM850.263 77.0126H902.13C902.018 74.9487 901.682 72.6616 901.123 70.1515C900.563 67.5855 899.5 65.1312 897.933 62.7884C896.423 60.4455 894.157 58.5211 891.135 57.015C888.17 55.5089 884.198 54.7559 879.218 54.7559C871.049 54.7559 864.419 56.6803 859.327 60.5292C854.292 64.3781 851.271 69.8726 850.263 77.0126Z" fill="#777777"/>
<path d="M768.016 117.342C761.47 117.342 755.819 115.864 751.063 112.908C746.307 109.896 742.642 105.796 740.069 100.608C737.551 95.3646 736.292 89.3681 736.292 82.6186C736.292 75.9806 737.579 70.0399 740.153 64.7965C742.726 59.553 746.363 55.4252 751.063 52.413C755.819 49.4009 761.47 47.8948 768.016 47.8948C773.443 47.8948 778.003 48.7036 781.696 50.3212C785.389 51.9389 788.774 54.0865 791.851 56.764V24.634L779.43 25.5544C778.423 25.6102 777.612 25.3034 776.996 24.634C776.437 23.9646 776.157 23.2116 776.157 22.3748C776.157 21.7055 776.381 21.0082 776.828 20.283C777.332 19.5021 778.227 19.0559 779.514 18.9443L796.131 17.1872C797.53 17.0756 798.509 17.3545 799.069 18.0239C799.628 18.6933 799.908 19.5021 799.908 20.4504V108.808L812.833 107.887C814.007 107.887 814.847 108.194 815.35 108.808C815.91 109.366 816.19 110.035 816.19 110.816C816.19 111.597 815.91 112.378 815.35 113.159C814.847 113.94 814.063 114.386 813 114.498L796.803 116.171C794.397 116.171 793.11 114.776 792.942 111.987L792.606 106.967C790.145 109.924 786.76 112.406 782.451 114.414C778.143 116.366 773.331 117.342 768.016 117.342ZM768.184 110.481C773.835 110.481 778.591 109.338 782.451 107.051C786.312 104.708 789.445 101.807 791.851 98.3489V65.5495C789.221 62.2584 786.004 59.6367 782.2 57.6844C778.395 55.732 773.835 54.7559 768.52 54.7559C763.204 54.7559 758.728 56.0667 755.091 58.6884C751.511 61.2544 748.825 64.657 747.035 68.8964C745.244 73.08 744.349 77.6541 744.349 82.6186C744.349 87.5831 745.244 92.1851 747.035 96.4245C748.881 100.664 751.567 104.066 755.091 106.632C758.616 109.198 762.981 110.481 768.184 110.481Z" fill="#777777"/>
<path d="M533.611 115.92C532.324 115.92 531.345 115.557 530.674 114.832C530.058 114.107 529.75 113.298 529.75 112.406C529.75 111.569 530.03 110.816 530.59 110.147C531.205 109.421 532.1 109.059 533.275 109.059H564.244V24.7177L534.618 27.0605C534.506 27.0605 534.394 27.0884 534.282 27.1441C534.226 27.1441 534.142 27.1441 534.031 27.1441C532.912 27.1441 532.044 26.7816 531.429 26.0564C530.869 25.3312 530.59 24.5224 530.59 23.6299C530.59 22.849 530.813 22.1238 531.261 21.4545C531.709 20.7851 532.38 20.3946 533.275 20.283L568.356 17.1035C568.468 17.1035 568.58 17.1035 568.692 17.1035C568.86 17.0477 569.056 17.0198 569.279 17.0198C571.294 17.0198 572.301 17.9123 572.301 19.6973V109.059H600.836C601.955 109.059 602.766 109.421 603.269 110.147C603.829 110.872 604.109 111.653 604.109 112.489C604.109 113.382 603.829 114.191 603.269 114.916C602.71 115.585 601.871 115.92 600.752 115.92H533.611Z" fill="#777777"/>
<path d="M429.543 115.92C428.256 115.92 427.277 115.557 426.605 114.832C425.99 114.107 425.682 113.298 425.682 112.406C425.682 111.569 425.962 110.816 426.521 110.147C427.137 109.421 428.032 109.059 429.207 109.059H460.176V24.7177L430.55 27.0605C430.438 27.0605 430.326 27.0884 430.214 27.1441C430.158 27.1441 430.074 27.1441 429.962 27.1441C428.843 27.1441 427.976 26.7816 427.361 26.0564C426.801 25.3312 426.521 24.5224 426.521 23.6299C426.521 22.849 426.745 22.1238 427.193 21.4545C427.64 20.7851 428.312 20.3946 429.207 20.283L464.288 17.1035C464.4 17.1035 464.512 17.1035 464.624 17.1035C464.792 17.0477 464.988 17.0198 465.211 17.0198C467.226 17.0198 468.233 17.9123 468.233 19.6973V109.059H496.767C497.886 109.059 498.698 109.421 499.201 110.147C499.761 110.872 500.041 111.653 500.041 112.489C500.041 113.382 499.761 114.191 499.201 114.916C498.642 115.585 497.803 115.92 496.684 115.92H429.543Z" fill="#777777"/>
<path d="M359.632 117.342C352.191 117.342 345.589 115.948 339.826 113.159C334.119 110.314 329.643 106.242 326.398 100.943C323.209 95.6435 321.614 89.2845 321.614 81.8655C321.614 74.7255 323.293 68.6175 326.65 63.5414C330.063 58.4653 334.567 54.5885 340.162 51.911C345.813 49.2335 351.995 47.8948 358.709 47.8948C367.382 47.8948 374.571 50.2655 380.278 55.0069C386.041 59.7483 388.923 66.693 388.923 75.8412C388.923 77.9051 388.335 79.6343 387.16 81.0288C385.985 82.4234 384.419 83.1206 382.46 83.1206H329.671C329.951 92.213 332.832 99.0462 338.315 103.62C343.798 108.194 350.68 110.481 358.961 110.481C363.045 110.481 367.13 109.728 371.214 108.222C375.299 106.716 378.963 104.429 382.209 101.361C383.384 100.413 384.531 99.9387 385.65 99.9387C386.657 99.9387 387.468 100.301 388.083 101.026C388.699 101.752 389.007 102.616 389.007 103.62C389.007 104.847 388.503 106.019 387.496 107.134C385.426 109.366 382.768 111.234 379.523 112.74C376.278 114.247 372.865 115.39 369.284 116.171C365.759 116.952 362.542 117.342 359.632 117.342ZM329.923 77.0126H381.789C381.677 74.9487 381.341 72.6616 380.782 70.1515C380.222 67.5855 379.159 65.1312 377.593 62.7884C376.082 60.4455 373.816 58.5211 370.795 57.015C367.829 55.5089 363.857 54.7559 358.877 54.7559C350.708 54.7559 344.078 56.6803 338.987 60.5292C333.951 64.3781 330.93 69.8726 329.923 77.0126Z" fill="#777777"/>
<path d="M216.203 115.92C214.916 115.92 213.937 115.557 213.266 114.832C212.65 114.051 212.342 113.215 212.342 112.322C212.342 111.485 212.622 110.732 213.182 110.063C213.797 109.394 214.692 109.059 215.867 109.059H224.931V24.634L212.51 25.387C211.503 25.4428 210.692 25.1639 210.076 24.5503C209.517 23.9367 209.237 23.2116 209.237 22.3748C209.237 21.7055 209.433 20.9803 209.825 20.1994C210.272 19.4184 211 19.0001 212.007 18.9443L227.869 17.3545C228.204 17.2987 228.512 17.2709 228.792 17.2709C229.072 17.2151 229.323 17.1872 229.547 17.1872C231.841 17.1872 232.988 18.2749 232.988 20.4504V62.4537C235.114 58.3259 238.611 54.8674 243.479 52.0784C248.347 49.2893 253.662 47.8948 259.425 47.8948C267.538 47.8948 273.497 49.9866 277.301 54.1702C281.106 58.298 283.008 64.0155 283.008 71.3229V109.059H292.156C293.275 109.059 294.114 109.421 294.674 110.147C295.233 110.816 295.513 111.569 295.513 112.406C295.513 113.298 295.205 114.107 294.59 114.832C294.03 115.557 293.163 115.92 291.988 115.92H263.034C261.747 115.92 260.768 115.557 260.096 114.832C259.481 114.051 259.173 113.215 259.173 112.322C259.173 111.485 259.453 110.732 260.012 110.063C260.628 109.394 261.523 109.059 262.698 109.059H274.951V70.7372C274.951 65.7727 273.692 61.868 271.175 59.0231C268.713 56.1783 264.936 54.7559 259.845 54.7559C254.473 54.7559 249.773 55.7878 245.745 57.8517C241.717 59.9156 238.583 62.4537 236.345 65.4659C234.107 68.478 232.988 71.4345 232.988 74.3351V109.059H241.8C243.143 109.059 244.15 109.421 244.822 110.147C245.493 110.816 245.829 111.569 245.829 112.406C245.829 113.298 245.465 114.107 244.738 114.832C244.066 115.557 243.031 115.92 241.633 115.92H216.203Z" fill="#777777"/>
<path d="M150.405 117.342C145.593 117.342 140.866 116.617 136.222 115.167C131.634 113.717 127.689 111.123 124.388 107.385V112.406C124.388 113.633 124.08 114.525 123.465 115.083C122.849 115.641 122.15 115.92 121.367 115.92C120.528 115.92 119.744 115.641 119.017 115.083C118.345 114.47 118.01 113.661 118.01 112.657V93.747C118.01 92.1851 118.345 91.0695 119.017 90.4001C119.744 89.7307 120.472 89.396 121.199 89.396C121.982 89.396 122.682 89.647 123.297 90.1491C123.913 90.5953 124.22 91.7946 124.22 93.747C124.22 96.9265 125.339 99.7713 127.577 102.281C129.871 104.792 132.949 106.8 136.809 108.306C140.726 109.756 145.09 110.481 149.902 110.481C156.168 110.481 161.008 109.505 164.421 107.553C167.89 105.6 169.624 102.56 169.624 98.4326C169.624 95.7551 168.925 93.5238 167.526 91.7388C166.127 89.898 163.526 88.6151 159.721 87.8899L137.397 83.539C132.137 82.5349 127.885 80.7499 124.64 78.184C121.395 75.5623 119.772 71.797 119.772 66.8883C119.772 61.868 121.115 57.9912 123.801 55.2579C126.486 52.5246 129.899 50.628 134.04 49.5682C138.18 48.4526 142.432 47.8948 146.796 47.8948C151.608 47.8948 156.28 48.6199 160.812 50.0702C165.344 51.5205 168.477 53.3613 170.212 55.5926V52.4967C170.156 51.1022 170.491 50.0702 171.219 49.4009C172.002 48.6757 172.841 48.3131 173.737 48.3131C174.632 48.3131 175.415 48.6478 176.086 49.3172C176.814 49.9866 177.178 51.0185 177.178 52.413V69.2311C176.898 71.295 175.723 72.327 173.653 72.327C172.198 72.327 171.275 71.7412 170.883 70.5698C170.547 69.3984 170.352 67.6134 170.296 65.2148C168.729 61.5333 165.764 58.8837 161.399 57.266C157.091 55.5926 152.028 54.7559 146.209 54.7559C141.285 54.7559 137.089 55.5368 133.62 57.0987C130.151 58.6048 128.417 61.4496 128.417 65.6332C128.417 68.0318 129.144 70.0678 130.599 71.7412C132.053 73.3589 134.879 74.6419 139.075 75.5902L160.812 79.9411C165.68 80.8894 169.708 82.7023 172.897 85.3798C176.142 88.0015 177.765 92.3803 177.765 98.5162C177.765 104.987 175.191 109.756 170.044 112.824C164.896 115.836 158.35 117.342 150.405 117.342Z" fill="#777777"/>
<path d="M19.6485 115.92C18.2498 115.92 17.1587 115.53 16.3754 114.749C15.6481 113.968 15.2844 113.131 15.2844 112.238C15.2844 111.346 15.6201 110.537 16.2915 109.812C17.0189 109.087 18.0819 108.724 19.4807 108.724H41.3854V69.6495L13.2702 24.2993H6.22039C4.82163 24.2993 3.75856 23.9646 3.03121 23.2952C2.3598 22.6259 2.0241 21.9007 2.0241 21.1198C2.0241 20.3388 2.38777 19.6137 3.11513 18.9443C3.84249 18.2749 4.90555 17.9402 6.30432 17.9402H33.9999C35.4546 17.9402 36.5177 18.2749 37.1891 18.9443C37.9164 19.6137 38.2801 20.3388 38.2801 21.1198C38.2801 21.9007 37.9164 22.6259 37.1891 23.2952C36.5177 23.9646 35.4826 24.2993 34.0838 24.2993H22.6699L45.8334 62.9557L68.3256 24.2993H59.0098C57.611 24.2993 56.548 23.9646 55.8206 23.2952C55.1492 22.6259 54.8135 21.9007 54.8135 21.1198C54.8135 20.3388 55.1772 19.6137 55.9045 18.9443C56.6319 18.2749 57.695 17.9402 59.0937 17.9402H80.9984C82.4531 17.9402 83.5162 18.3028 84.1876 19.028C84.9149 19.6973 85.2786 20.4225 85.2786 21.2034C85.2786 21.9844 84.9429 22.7095 84.2715 23.3789C83.6001 23.9925 82.565 24.2993 81.1662 24.2993H76.5503L49.4422 70.0678V108.724H68.9131C70.2559 108.724 71.263 109.087 71.9344 109.812C72.6058 110.537 72.9415 111.346 72.9415 112.238C72.9415 113.131 72.5778 113.968 71.8505 114.749C71.1791 115.53 70.144 115.92 68.7452 115.92H19.6485Z" fill="#777777"/>
<path d="M937.117 54.5885C937.117 53.2908 937.493 52.0772 938.277 51.0349C939.381 49.5103 941.295 49.14 943.002 49.14V51.158C941.435 51.158 940.4 51.5205 939.896 52.2457C939.393 52.9151 939.141 53.696 939.141 54.5885C939.141 55.4252 939.365 56.2062 939.812 56.9313C940.316 57.6565 941.267 58.0191 942.666 58.0191H951.142L975.817 110.983C977.104 113.772 978.251 115.474 979.258 116.087C980.321 116.757 981.412 117.091 982.531 117.091C983.65 117.091 984.657 116.785 985.552 116.171C986.503 115.557 987.51 113.968 988.573 111.402L1010.98 58.0191H1018.45C1019.91 58.0191 1020.86 57.6565 1021.3 56.9313C1021.75 56.2062 1021.98 55.4252 1021.98 54.5885C1021.98 53.696 1021.72 52.9151 1021.22 52.2457C1020.77 51.5205 1019.74 51.158 1018.12 51.158V49.14C1019.78 49.14 1021.75 49.4745 1022.83 51.0398L1022.84 51.0349C1023.62 52.0772 1024 53.2908 1024 54.5885C1024 55.8052 1023.67 56.9525 1023.03 57.9895C1022.01 59.6387 1020.11 60.037 1018.45 60.037H1012.33L990.44 112.165L990.444 112.17C989.888 113.514 989.318 114.669 988.731 115.595C988.172 116.477 987.505 117.292 986.692 117.83L986.697 117.835C986.683 117.845 986.668 117.854 986.653 117.864L986.648 117.859C985.417 118.69 984.027 119.109 982.531 119.109C980.992 119.109 979.54 118.643 978.201 117.805C977.33 117.274 976.597 116.414 975.965 115.477C975.309 114.504 974.649 113.274 973.98 111.825L949.854 60.037H942.666C941 60.037 939.21 59.6067 938.149 58.0781L938.089 57.9895C937.449 56.9525 937.117 55.8052 937.117 54.5885ZM972.711 54.6722C972.711 53.7797 972.516 52.9709 972.124 52.2457C971.732 51.5205 970.837 51.158 969.438 51.158V49.14C970.841 49.14 972.486 49.4515 973.506 50.6953L973.906 51.2909L974.271 52.0882C974.584 52.906 974.736 53.7734 974.736 54.6722C974.736 55.8364 974.459 56.9465 973.906 57.9698L973.872 58.0338L973.867 58.0289C972.907 59.6691 971.051 60.037 969.522 60.037H963.489L982.699 103.079L1000.26 60.037H996.127C994.583 60.037 992.665 59.6896 991.693 58.0289L991.659 57.9698C991.107 56.9465 990.83 55.8364 990.83 54.6722C990.83 53.4752 991.096 52.3336 991.659 51.2909L991.689 51.2367L991.718 51.1875C992.725 49.5579 994.573 49.14 996.211 49.14V51.158C994.812 51.158 993.889 51.5205 993.441 52.2457C993.049 52.9709 992.854 53.7797 992.854 54.6722C992.854 55.5089 993.049 56.2898 993.441 57.015C993.833 57.6844 994.728 58.0191 996.127 58.0191H1003.26L982.783 108.222L960.374 58.0191H969.522C970.865 58.0191 971.732 57.6844 972.124 57.015C972.516 56.2898 972.711 55.5089 972.711 54.6722ZM1018.12 49.14V51.158H996.211V49.14H1018.12ZM969.438 49.14V51.158H943.002V49.14H969.438Z" fill="#777777"/>
<path d="M909.263 75.8412C909.263 66.693 906.382 59.7483 900.619 55.0069C894.912 50.2655 887.722 47.8948 879.05 47.8948C872.336 47.8948 866.153 49.2335 860.502 51.911C854.907 54.5885 850.403 58.4653 846.99 63.5414C843.633 68.6175 841.955 74.7255 841.955 81.8655C841.955 89.2845 843.549 95.6435 846.739 100.943C849.984 106.242 854.46 110.314 860.167 113.159C865.93 115.948 872.532 117.342 879.973 117.342C882.883 117.342 886.1 116.952 889.625 116.171C893.206 115.39 896.619 114.247 899.864 112.74C903.109 111.234 905.766 109.366 907.837 107.134C908.844 106.019 909.347 104.847 909.347 103.62C909.347 102.616 909.04 101.752 908.424 101.026C907.809 100.301 906.997 99.9387 905.99 99.9387C904.871 99.9387 903.724 100.413 902.549 101.361C899.304 104.429 895.639 106.716 891.555 108.222C887.471 109.728 883.386 110.481 879.302 110.481V108.463C883.131 108.463 886.979 107.761 890.854 106.332C894.674 104.923 898.105 102.784 901.157 99.8993L901.216 99.8452L901.276 99.7959C902.685 98.6589 904.268 97.9207 905.99 97.9207C907.553 97.9207 908.945 98.5159 909.969 99.7221C910.912 100.833 911.371 102.169 911.371 103.62C911.371 105.451 910.601 107.084 909.337 108.483L909.323 108.503C907.046 110.956 904.16 112.969 900.718 114.566C897.336 116.136 893.781 117.323 890.059 118.135C886.424 118.94 883.06 119.36 879.973 119.36C872.275 119.36 865.362 117.912 859.283 114.97L859.263 114.96C853.226 111.951 848.459 107.621 845.011 101.991L845.006 101.981C841.593 96.3111 839.931 89.5763 839.931 81.8655C839.931 74.402 841.692 67.8932 845.302 62.434L845.312 62.4192C848.929 57.0402 853.712 52.9261 859.629 50.0948L859.634 50.0899C865.575 47.2747 872.058 45.8768 879.05 45.8768C888.109 45.8768 895.779 48.3629 901.908 53.4516L903.053 54.4556C908.607 59.6172 911.287 66.8409 911.287 75.8412C911.287 78.3113 910.571 80.5177 909.051 82.3233C907.462 84.2099 905.308 85.1386 902.801 85.1386H852.154C852.767 92.7477 855.432 98.3021 859.954 102.075C865.017 106.298 871.417 108.463 879.302 108.463V110.481C871.021 110.481 864.139 108.194 858.656 103.62C853.173 99.0462 850.291 92.213 850.012 83.1206H902.801C904.759 83.1206 906.326 82.4234 907.501 81.0288C908.676 79.6343 909.263 77.9051 909.263 75.8412ZM879.218 54.7559C884.198 54.7559 888.17 55.5089 891.135 57.015C894.157 58.5211 896.423 60.4455 897.933 62.7884L896.23 63.8761C894.953 61.8972 892.995 60.1938 890.232 58.8164L890.217 58.8115C887.642 57.5037 884.024 56.7738 879.218 56.7738C871.37 56.7738 865.204 58.6104 860.552 62.1239L860.557 62.1288C856.54 65.1993 853.899 69.4427 852.683 74.9946H899.913C899.748 73.631 899.499 72.1628 899.148 70.5895V70.5797C898.646 68.2774 897.687 66.054 896.25 63.9056L896.23 63.8761L897.933 62.7884C899.5 65.1312 900.563 67.5855 901.123 70.1515C901.682 72.6616 902.018 74.9487 902.13 77.0126H850.263C851.271 69.8726 854.292 64.3781 859.327 60.5292C864.419 56.6803 871.049 54.7559 879.218 54.7559Z" fill="#777777"/>
<path d="M792.942 111.987C793.11 114.776 794.397 116.171 796.803 116.171L813 114.498C814.063 114.386 814.847 113.94 815.35 113.159C815.91 112.378 816.19 111.597 816.19 110.816C816.19 110.035 815.91 109.366 815.35 108.808C814.847 108.194 814.007 107.887 812.833 107.887L799.908 108.808V20.4504C799.908 19.5021 799.628 18.6933 799.069 18.0239C798.509 17.3545 797.53 17.0756 796.131 17.1872L779.514 18.9443C778.227 19.0559 777.332 19.5021 776.828 20.283C776.381 21.0082 776.157 21.7055 776.157 22.3748C776.157 23.2116 776.437 23.9646 776.996 24.634C777.612 25.3034 778.423 25.6102 779.43 25.5544L791.851 24.634V56.764C788.774 54.0865 785.389 51.9389 781.696 50.3212C778.003 48.7036 773.443 47.8948 768.016 47.8948C761.47 47.8948 755.819 49.4009 751.063 52.413C746.363 55.4252 742.726 59.553 740.153 64.7965C737.579 70.0399 736.292 75.9806 736.292 82.6186C736.292 89.3681 737.551 95.3646 740.069 100.608C742.642 105.796 746.307 109.896 751.063 112.908C755.819 115.864 761.47 117.342 768.016 117.342C773.331 117.342 778.143 116.366 782.451 114.414L783.286 116.25C778.685 118.334 773.583 119.36 768.016 119.36C761.156 119.36 755.119 117.808 749.992 114.621L749.977 114.611C744.9 111.395 740.989 107.01 738.257 101.504L738.247 101.479C735.579 95.9235 734.268 89.621 734.268 82.6186C734.268 75.7159 735.609 69.4654 738.336 63.9105C741.064 58.3531 744.946 53.936 749.972 50.715L749.977 50.7101C755.107 47.4611 761.149 45.8768 768.016 45.8768C773.632 45.8768 778.489 46.7139 782.511 48.4755C785.094 49.6075 787.532 50.9908 789.827 52.6148V26.7996L779.578 27.5625L779.544 27.5674C778.005 27.6526 776.578 27.1633 775.505 25.9973L775.476 25.9629L775.441 25.9235C774.593 24.9084 774.133 23.7033 774.133 22.3748C774.133 21.2434 774.514 20.1823 775.105 19.2248L775.125 19.1904C775.966 17.887 777.297 17.2505 778.724 17.0149L779.341 16.9362L795.919 15.184L795.968 15.1791C797.618 15.0475 799.438 15.3161 800.624 16.7344C801.513 17.7987 801.932 19.0758 801.932 20.4504V106.637L812.758 105.87H812.833C814.254 105.87 815.733 106.237 816.772 107.385L816.782 107.381C817.716 108.312 818.214 109.494 818.214 110.816C818.214 112.071 817.761 113.219 817.049 114.242L817.053 114.247C816.167 115.622 814.784 116.336 813.213 116.501L797.01 118.174L796.906 118.189H796.803C795.195 118.189 793.67 117.707 792.547 116.491C791.472 115.326 791.023 113.761 790.923 112.12L790.878 111.515C788.724 113.317 786.195 114.893 783.305 116.24L783.286 116.25L782.451 114.414C786.76 112.406 790.145 109.924 792.606 106.967L792.942 111.987ZM744.349 82.6186C744.349 77.6541 745.244 73.08 747.035 68.8964C748.825 64.657 751.511 61.2544 755.091 58.6884C758.728 56.0667 763.204 54.7559 768.52 54.7559C773.835 54.7559 778.395 55.732 782.2 57.6844C786.004 59.6367 789.221 62.2584 791.851 65.5495V98.3489C789.445 101.807 786.312 104.708 782.451 107.051C778.591 109.338 773.835 110.481 768.184 110.481V108.463C773.555 108.463 777.926 107.381 781.4 105.328C784.847 103.236 787.642 100.684 789.827 97.6894V66.278C787.462 63.4621 784.621 61.1926 781.276 59.4759C777.819 57.7018 773.589 56.7738 768.52 56.7738C763.549 56.7738 759.508 57.9926 756.276 60.3225L756.271 60.3274C753.008 62.6662 750.553 65.766 748.901 69.679L748.896 69.6888C747.222 73.6001 746.373 77.9012 746.373 82.6186C746.373 87.3282 747.219 91.6549 748.891 95.6222L749.567 97.0594C751.23 100.32 753.472 102.955 756.286 105.003C759.402 107.271 763.325 108.463 768.184 108.463V110.481C762.981 110.481 758.616 109.198 755.091 106.632C751.567 104.066 748.881 100.664 747.035 96.4245C745.244 92.1851 744.349 87.5831 744.349 82.6186Z" fill="#777777"/>
<path d="M527.726 112.406C527.726 111.077 528.187 109.872 529.035 108.857L529.044 108.842C530.132 107.561 531.657 107.041 533.275 107.041V109.059C532.1 109.059 531.205 109.421 530.59 110.147C530.03 110.816 529.75 111.569 529.75 112.406C529.75 113.298 530.058 114.107 530.674 114.832C531.345 115.557 532.324 115.92 533.611 115.92H600.752C601.871 115.92 602.71 115.585 603.269 114.916C603.829 114.191 604.109 113.382 604.109 112.489C604.109 111.653 603.829 110.872 603.269 110.147C602.766 109.421 601.955 109.059 600.836 109.059V107.041C602.389 107.041 603.886 107.566 604.869 108.916C604.882 108.933 604.896 108.953 604.908 108.97C604.916 108.98 604.926 108.99 604.933 109C605.7 110.024 606.133 111.199 606.133 112.489C606.133 113.838 605.698 115.078 604.874 116.146L604.825 116.205C603.778 117.458 602.289 117.938 600.752 117.938H533.611C531.939 117.938 530.348 117.454 529.188 116.201L529.158 116.166L529.128 116.137C528.225 115.073 527.726 113.807 527.726 112.406ZM572.301 19.6973C572.301 17.9123 571.294 17.0198 569.279 17.0198C569.056 17.0198 568.86 17.0477 568.692 17.1035H568.356L533.275 20.283C532.38 20.3946 531.709 20.7851 531.261 21.4545C530.813 22.1238 530.59 22.849 530.59 23.6299C530.59 24.5224 530.869 25.3312 531.429 26.0564C532.044 26.7816 532.912 27.1441 534.031 27.1441H534.282C534.394 27.0884 534.506 27.0605 534.618 27.0605L564.244 24.7177V109.059H533.275V107.041H562.22V26.898L534.974 29.0489L534.761 29.1621H534.031C532.432 29.1621 530.952 28.619 529.884 27.3607L529.854 27.3213L529.824 27.2869C529 26.2188 528.566 24.9789 528.566 23.6299C528.566 22.4389 528.916 21.3269 529.578 20.3372C530.392 19.1197 531.623 18.4596 533.023 18.2848L533.093 18.2749L568.174 15.0954L568.262 15.0855H568.504C568.771 15.0346 569.031 15.0019 569.279 15.0019C570.543 15.0019 571.869 15.2794 572.888 16.1831C573.953 17.1271 574.325 18.4286 574.325 19.6973V107.041H600.836V109.059H572.301V19.6973Z" fill="#777777"/>
<path d="M423.658 112.406C423.658 111.077 424.118 109.872 424.966 108.857L424.976 108.842C426.064 107.561 427.589 107.041 429.207 107.041V109.059C428.032 109.059 427.137 109.421 426.521 110.147C425.962 110.816 425.682 111.569 425.682 112.406C425.682 113.298 425.99 114.107 426.605 114.832C427.277 115.557 428.256 115.92 429.543 115.92H496.684C497.803 115.92 498.642 115.585 499.201 114.916C499.761 114.191 500.041 113.382 500.041 112.489C500.041 111.653 499.761 110.872 499.201 110.147C498.698 109.421 497.886 109.059 496.767 109.059V107.041C498.321 107.041 499.818 107.566 500.801 108.916C500.814 108.933 500.827 108.953 500.84 108.97C500.847 108.98 500.858 108.99 500.865 109C501.632 110.024 502.065 111.199 502.065 112.489C502.065 113.838 501.63 115.078 500.806 116.146L500.756 116.205C499.71 117.458 498.221 117.938 496.684 117.938H429.543C427.87 117.938 426.28 117.454 425.119 116.201L425.09 116.166L425.06 116.137C424.157 115.073 423.658 113.807 423.658 112.406ZM468.233 19.6973C468.233 17.9123 467.226 17.0198 465.211 17.0198C464.988 17.0198 464.792 17.0477 464.624 17.1035H464.288L429.207 20.283C428.312 20.3946 427.64 20.7851 427.193 21.4545C426.745 22.1238 426.521 22.849 426.521 23.6299C426.521 24.5224 426.801 25.3312 427.361 26.0564C427.976 26.7816 428.843 27.1441 429.962 27.1441H430.214C430.326 27.0884 430.438 27.0605 430.55 27.0605L460.176 24.7177V109.059H429.207V107.041H458.152V26.898L430.905 29.0489L430.693 29.1621H429.962C428.364 29.1621 426.884 28.619 425.815 27.3607L425.786 27.3213L425.756 27.2869C424.932 26.2188 424.497 24.9789 424.497 23.6299C424.497 22.4389 424.848 21.3269 425.509 20.3372C426.324 19.1197 427.555 18.4596 428.955 18.2848L429.024 18.2749L464.105 15.0954L464.194 15.0855H464.436C464.703 15.0346 464.963 15.0019 465.211 15.0019C466.475 15.0019 467.8 15.2794 468.82 16.1831C469.885 17.1271 470.257 18.4286 470.257 19.6973V107.041H496.767V109.059H468.233V19.6973Z" fill="#777777"/>
<path d="M388.923 75.8412C388.923 66.693 386.041 59.7483 380.278 55.0069C374.571 50.2655 367.382 47.8948 358.709 47.8948C351.995 47.8948 345.813 49.2335 340.162 51.911C334.567 54.5885 330.063 58.4653 326.65 63.5414C323.293 68.6175 321.614 74.7255 321.614 81.8655C321.614 89.2845 323.209 95.6435 326.398 100.943C329.643 106.242 334.119 110.314 339.826 113.159C345.589 115.948 352.191 117.342 359.632 117.342C362.542 117.342 365.759 116.952 369.284 116.171C372.865 115.39 376.278 114.247 379.523 112.74C382.768 111.234 385.426 109.366 387.496 107.134C388.503 106.019 389.007 104.847 389.007 103.62C389.007 102.616 388.699 101.752 388.083 101.026C387.468 100.301 386.657 99.9387 385.65 99.9387C384.531 99.9387 383.384 100.413 382.209 101.361C378.963 104.429 375.299 106.716 371.214 108.222C367.13 109.728 363.045 110.481 358.961 110.481V108.463C362.791 108.463 366.638 107.761 370.513 106.332C374.334 104.923 377.765 102.784 380.816 99.8993L380.876 99.8452L380.935 99.7959C382.344 98.6589 383.928 97.9207 385.65 97.9207C387.213 97.9207 388.605 98.5159 389.629 99.7221C390.572 100.833 391.031 102.169 391.031 103.62C391.031 105.451 390.26 107.084 388.997 108.483L388.982 108.503C386.705 110.956 383.819 112.969 380.377 114.566C376.995 116.136 373.44 117.323 369.718 118.135C366.084 118.94 362.719 119.36 359.632 119.36C351.934 119.36 345.022 117.912 338.942 114.97L338.923 114.96C332.885 111.951 328.118 107.621 324.67 101.991L324.665 101.981C321.253 96.3111 319.59 89.5763 319.59 81.8655C319.59 74.402 321.351 67.8932 324.961 62.434L324.971 62.4192C328.588 57.0402 333.372 52.9261 339.288 50.0948L339.293 50.0899C345.235 47.2747 351.717 45.8768 358.709 45.8768C367.768 45.8768 375.438 48.3629 381.567 53.4516L382.712 54.4556C388.267 59.6172 390.947 66.8409 390.947 75.8412C390.947 78.3113 390.231 80.5177 388.71 82.3233C387.121 84.2099 384.967 85.1386 382.46 85.1386H331.814C332.427 92.7477 335.091 98.3021 339.614 102.075C344.676 106.298 351.076 108.463 358.961 108.463V110.481C350.68 110.481 343.798 108.194 338.315 103.62C332.832 99.0462 329.951 92.213 329.671 83.1206H382.46C384.419 83.1206 385.985 82.4234 387.16 81.0288C388.335 79.6343 388.923 77.9051 388.923 75.8412ZM358.877 54.7559C363.857 54.7559 367.829 55.5089 370.795 57.015C373.816 58.5211 376.082 60.4455 377.593 62.7884L375.889 63.8761C374.613 61.8972 372.654 60.1938 369.891 58.8164L369.876 58.8115C367.301 57.5037 363.683 56.7738 358.877 56.7738C351.03 56.7738 344.863 58.6104 340.211 62.1239L340.216 62.1288C336.199 65.1993 333.558 69.4427 332.342 74.9946H379.572C379.407 73.631 379.158 72.1628 378.807 70.5895V70.5797C378.305 68.2774 377.346 66.054 375.909 63.9056L375.889 63.8761L377.593 62.7884C379.159 65.1312 380.222 67.5855 380.782 70.1515C381.341 72.6616 381.677 74.9487 381.789 77.0126H329.923C330.93 69.8726 333.951 64.3781 338.987 60.5292C344.078 56.6803 350.708 54.7559 358.877 54.7559Z" fill="#777777"/>
<path d="M210.318 112.322C210.318 110.994 210.779 109.789 211.627 108.773L211.661 108.734L211.691 108.7C212.793 107.501 214.3 107.041 215.867 107.041V109.059C214.692 109.059 213.797 109.394 213.182 110.063C212.622 110.732 212.342 111.485 212.342 112.322C212.342 113.215 212.65 114.051 213.266 114.832C213.937 115.557 214.916 115.92 216.203 115.92H241.633C243.031 115.92 244.066 115.557 244.738 114.832C245.465 114.107 245.829 113.298 245.829 112.406C245.829 111.569 245.493 110.816 244.822 110.147C244.15 109.421 243.143 109.059 241.8 109.059V107.041C243.471 107.041 245.077 107.495 246.249 108.719C247.245 109.713 247.853 110.962 247.853 112.406C247.853 113.914 247.215 115.218 246.17 116.26L246.165 116.255C244.978 117.496 243.33 117.938 241.633 117.938H216.203C214.531 117.938 212.94 117.454 211.78 116.201L211.725 116.141L211.676 116.077C210.814 114.984 210.318 113.717 210.318 112.322ZM257.149 112.322C257.149 110.994 257.609 109.789 258.457 108.773L258.492 108.734L258.521 108.7C259.624 107.501 261.131 107.041 262.698 107.041V109.059C261.523 109.059 260.628 109.394 260.012 110.063C259.453 110.732 259.173 111.485 259.173 112.322C259.173 113.215 259.481 114.051 260.096 114.832C260.768 115.557 261.747 115.92 263.034 115.92H291.988C293.163 115.92 294.03 115.557 294.59 114.832C295.205 114.107 295.513 113.298 295.513 112.406C295.513 111.569 295.233 110.816 294.674 110.147C294.114 109.421 293.275 109.059 292.156 109.059V107.041C293.724 107.041 295.199 107.572 296.224 108.857C296.24 108.877 296.262 108.896 296.278 108.916C297.096 109.919 297.537 111.102 297.537 112.406C297.537 113.807 297.038 115.073 296.135 116.137L296.13 116.132C295.085 117.433 293.569 117.938 291.988 117.938H263.034C261.361 117.938 259.771 117.454 258.61 116.201L258.556 116.141L258.507 116.077C257.645 114.984 257.149 113.717 257.149 112.322ZM283.008 71.3229C283.008 64.0155 281.106 58.298 277.301 54.1702C273.497 49.9866 267.538 47.8948 259.425 47.8948C253.662 47.8948 248.347 49.2893 243.479 52.0784C238.611 54.8674 235.114 58.3259 232.988 62.4537V20.4504C232.988 18.2749 231.841 17.1872 229.547 17.1872C229.323 17.1872 229.072 17.2151 228.792 17.2709C228.512 17.2709 228.204 17.2987 227.869 17.3545L212.007 18.9443C211 19.0001 210.272 19.4184 209.825 20.1994C209.433 20.9803 209.237 21.7055 209.237 22.3748C209.237 23.2116 209.517 23.9367 210.076 24.5503C210.692 25.1639 211.503 25.4428 212.51 25.387L224.931 24.634V109.059H215.867V107.041H222.907V26.775L212.634 27.4001H212.624C211.143 27.4821 209.733 27.0628 208.645 25.9777L208.61 25.9432L208.581 25.9087C207.679 24.9204 207.213 23.7081 207.213 22.3748C207.213 21.3121 207.527 20.2775 208.018 19.2987L208.067 19.2002C208.884 17.775 210.246 17.0466 211.804 16.9362L227.666 15.3464C227.975 15.2996 228.282 15.2676 228.585 15.2578C228.901 15.2033 229.225 15.1692 229.547 15.1692C230.981 15.1692 232.432 15.5096 233.521 16.5424C234.629 17.5932 235.012 19.0255 235.012 20.4504V56.1487C237.052 53.9543 239.54 52.0108 242.472 50.3311C247.655 47.3616 253.318 45.8768 259.425 45.8768C267.85 45.8768 274.457 48.0536 278.787 52.8068C283.028 57.4083 285.032 63.6687 285.032 71.3229V107.041H292.156V109.059H283.008V71.3229ZM272.927 70.7372C272.927 66.1093 271.761 62.732 269.659 60.357L269.644 60.3422C267.689 58.0826 264.565 56.7738 259.845 56.7738C254.735 56.7738 250.362 57.7508 246.668 59.6433C242.86 61.5943 239.989 63.9492 237.97 66.6668C235.914 69.4331 235.012 71.9783 235.012 74.3351V107.041H241.8V109.059H232.988V74.3351C232.988 71.4345 234.107 68.478 236.345 65.4659C238.583 62.4537 241.717 59.9156 245.745 57.8517C249.773 55.7878 254.473 54.7559 259.845 54.7559C264.936 54.7559 268.713 56.1783 271.175 59.0231C273.692 61.868 274.951 65.7727 274.951 70.7372V109.059H262.698V107.041H272.927V70.7372Z" fill="#777777"/>
<path d="M124.22 93.747C124.22 91.7946 123.913 90.5953 123.297 90.1491C122.682 89.647 121.982 89.396 121.199 89.396C120.472 89.396 119.744 89.7307 119.017 90.4001C118.345 91.0695 118.01 92.1851 118.01 93.747V112.657C118.01 113.661 118.345 114.47 119.017 115.083C119.744 115.641 120.528 115.92 121.367 115.92C122.15 115.92 122.849 115.641 123.465 115.083C124.08 114.525 124.388 113.633 124.388 112.406V107.385C127.689 111.123 131.634 113.717 136.222 115.167C140.866 116.617 145.593 117.342 150.405 117.342C158.35 117.342 164.896 115.836 170.044 112.824C175.191 109.756 177.765 104.987 177.765 98.5162C177.765 92.3803 176.142 88.0015 172.897 85.3798C169.708 82.7023 165.68 80.8894 160.812 79.9411L139.075 75.5902C134.879 74.6419 132.053 73.3589 130.599 71.7412C129.144 70.0678 128.417 68.0318 128.417 65.6332C128.417 61.4496 130.151 58.6048 133.62 57.0987C137.089 55.5368 141.285 54.7559 146.209 54.7559C152.028 54.7559 157.091 55.5926 161.399 57.266C165.764 58.8837 168.729 61.5333 170.296 65.2148C170.352 67.6134 170.547 69.3984 170.883 70.5698C171.275 71.7412 172.198 72.327 173.653 72.327C175.723 72.327 176.898 71.295 177.178 69.2311V52.413C177.178 51.0185 176.814 49.9866 176.086 49.3172C175.415 48.6478 174.632 48.3131 173.737 48.3131C172.841 48.3131 172.002 48.6757 171.219 49.4009C170.491 50.0702 170.156 51.1022 170.212 52.4967V55.5926C168.477 53.3613 165.344 51.5205 160.812 50.0702C156.28 48.6199 151.608 47.8948 146.796 47.8948C142.432 47.8948 138.18 48.4526 134.04 49.5682C129.899 50.628 126.486 52.5246 123.801 55.2579C121.115 57.9912 119.772 61.868 119.772 66.8883C119.772 71.797 121.395 75.5623 124.64 78.184C127.885 80.7499 132.137 82.5349 137.397 83.539L159.721 87.8899C163.526 88.6151 166.127 89.898 167.526 91.7388C168.925 93.5238 169.624 95.7551 169.624 98.4326C169.624 102.56 167.89 105.6 164.421 107.553C161.008 109.505 156.168 110.481 149.902 110.481V108.463C156.003 108.463 160.437 107.508 163.414 105.806L163.428 105.796C166.231 104.218 167.6 101.868 167.6 98.4326C167.6 96.1198 167.004 94.348 165.931 92.9791L165.912 92.9545C164.96 91.7063 162.956 90.5576 159.341 89.8685H159.331L137.007 85.5176C131.523 84.4693 126.943 82.5805 123.381 79.7639L123.366 79.7491C119.561 76.6744 117.748 72.2834 117.748 66.8883C117.748 61.511 119.194 57.0618 122.354 53.8453C125.327 50.82 129.08 48.7549 133.536 47.6142C137.844 46.4558 142.266 45.8768 146.796 45.8768C151.815 45.8768 156.695 46.6359 161.429 48.1507C164.076 48.9977 166.368 50.017 168.247 51.222C168.402 49.9792 168.874 48.8142 169.846 47.9194C170.926 46.9213 172.237 46.2952 173.737 46.2952C175.203 46.2952 176.493 46.8678 177.518 47.8898C178.765 49.0734 179.202 50.7192 179.202 52.413V69.3689L179.182 69.5018C178.999 70.8514 178.483 72.1348 177.424 73.0652C176.362 73.998 175.019 74.3449 173.653 74.3449C172.664 74.3449 171.661 74.1431 170.784 73.587C169.88 73.0132 169.285 72.1727 168.963 71.2097L168.953 71.1654L168.938 71.126C168.554 69.7873 168.361 67.9463 168.291 65.712C166.946 62.7724 164.501 60.5674 160.693 59.156L160.664 59.1462C156.642 57.5839 151.839 56.7738 146.209 56.7738C141.492 56.7738 137.596 57.5203 134.454 58.9345L134.43 58.9493C133.025 59.5592 132.07 60.3894 131.448 61.4102C130.817 62.4454 130.441 63.8168 130.441 65.6332C130.441 67.5886 131.017 69.1426 132.124 70.4173C133.14 71.5298 135.409 72.6883 139.47 73.6116L161.212 77.9625C166.336 78.9617 170.68 80.8927 174.171 83.8146L174.877 84.4298C178.286 87.616 179.789 92.472 179.789 98.5162C179.789 105.626 176.897 111.09 171.081 114.557L171.066 114.562C165.522 117.806 158.594 119.36 150.405 119.36C145.387 119.36 140.456 118.602 135.619 117.091L135.609 117.086C132.209 116.011 129.147 114.341 126.412 112.11V112.406C126.412 113.925 126.031 115.482 124.827 116.575C123.865 117.447 122.686 117.938 121.367 117.938C120.039 117.938 118.828 117.485 117.783 116.683L117.714 116.629L117.649 116.57C116.514 115.532 115.986 114.159 115.986 112.657V93.747C115.986 91.9804 116.351 90.2027 117.585 88.9727L117.615 88.9481L117.644 88.9186C118.609 88.0312 119.804 87.378 121.199 87.378C122.456 87.378 123.605 87.7976 124.576 88.5888C125.379 89.2146 125.753 90.1224 125.948 90.8824C126.161 91.711 126.244 92.6872 126.244 93.747C126.244 96.3957 127.155 98.7642 129.073 100.923L129.873 101.745C131.82 103.61 134.348 105.178 137.51 106.416C141.17 107.771 145.294 108.463 149.902 108.463V110.481C145.09 110.481 140.726 109.756 136.809 108.306C132.949 106.8 129.871 104.792 127.577 102.281C125.339 99.7713 124.22 96.9265 124.22 93.747Z" fill="#777777"/>
<path d="M13.2603 112.238C13.2603 110.784 13.8288 109.499 14.8055 108.444L14.8351 108.414L14.8598 108.385C16.0866 107.162 17.7436 106.706 19.4807 106.706V108.724C18.0819 108.724 17.0189 109.087 16.2915 109.812C15.6201 110.537 15.2844 111.346 15.2844 112.238C15.2844 113.131 15.6481 113.968 16.3754 114.749C17.1587 115.53 18.2498 115.92 19.6485 115.92H68.7452C70.144 115.92 71.1791 115.53 71.8505 114.749C72.5778 113.968 72.9415 113.131 72.9415 112.238C72.9415 111.346 72.6058 110.537 71.9344 109.812C71.263 109.087 70.2559 108.724 68.9131 108.724V106.706C70.6108 106.706 72.2442 107.174 73.4204 108.444C74.3971 109.499 74.9656 110.784 74.9656 112.238C74.9656 113.709 74.3529 114.992 73.3809 116.058C73.3725 116.068 73.3646 116.078 73.3562 116.087C73.3471 116.097 73.3407 116.112 73.3315 116.122L73.3266 116.117C72.1499 117.442 70.4865 117.938 68.7452 117.938H19.6485C17.8618 117.938 16.1997 117.428 14.9438 116.176L14.9191 116.146L14.8944 116.122C13.8912 115.045 13.2603 113.736 13.2603 112.238ZM85.2786 21.2034C85.2786 20.4225 84.9149 19.6973 84.1876 19.028C83.5162 18.3028 82.4531 17.9402 80.9984 17.9402V15.9223C82.6957 15.9223 84.3578 16.338 85.5551 17.5465C86.5806 18.4902 87.3027 19.7191 87.3027 21.2034C87.3027 22.629 86.668 23.8444 85.7032 24.8062L85.6686 24.8358L85.639 24.8653C84.4384 25.9625 82.809 26.3173 81.1662 26.3173H77.7055L51.4663 70.6141V106.706H68.9131V108.724H49.4422V70.0678L76.5503 24.2993H81.1662C82.565 24.2993 83.6001 23.9925 84.2715 23.3789C84.9429 22.7095 85.2786 21.9844 85.2786 21.2034ZM0 21.1198C0 19.6356 0.717432 18.4065 1.7427 17.4628C2.9735 16.3301 4.60707 15.9223 6.30432 15.9223L6.30432 17.9402C4.90555 17.9402 3.84249 18.2749 3.11513 18.9443C2.38777 19.6137 2.0241 20.3388 2.0241 21.1198C2.0241 21.9007 2.3598 22.6259 3.03121 23.2952C3.75856 23.9646 4.82163 24.2993 6.22039 24.2993H13.2702L41.3854 69.6495V108.724H19.4807V106.706H39.3613V70.2105L12.1495 26.3173H6.22039C4.52314 26.3173 2.88957 25.9094 1.65877 24.7767L1.62915 24.7472L1.59953 24.7226C0.634747 23.7607 0 22.5453 0 21.1198ZM38.2801 21.1198C38.2801 20.3388 37.9164 19.6137 37.1891 18.9443C36.5177 18.2749 35.4546 17.9402 33.9999 17.9402V15.9223C35.6833 15.9223 37.3501 16.3017 38.5566 17.4628C38.5764 17.4811 38.6011 17.4985 38.6207 17.517C39.6159 18.4536 40.3042 19.6628 40.3042 21.1198C40.3042 22.5755 39.6097 23.7814 38.6158 24.7177C38.5968 24.7366 38.5807 24.7582 38.5615 24.7767L38.5566 24.7718C37.3633 25.9226 35.7396 26.3173 34.0838 26.3173H26.2343L45.8038 58.9788L64.8155 26.3173H59.0098C57.3126 26.3173 55.679 25.9094 54.4482 24.7767L54.4186 24.7472L54.3889 24.7226C53.4242 23.7607 52.7894 22.5453 52.7894 21.1198C52.7894 19.6356 53.5068 18.4065 54.5321 17.4628C55.7629 16.3301 57.3965 15.9223 59.0937 15.9223V17.9402C57.695 17.9402 56.6319 18.2749 55.9045 18.9443C55.1772 19.6137 54.8135 20.3388 54.8135 21.1198C54.8135 21.9007 55.1492 22.6259 55.8206 23.2952C56.548 23.9646 57.611 24.2993 59.0098 24.2993H68.3256L45.8334 62.9557L22.6699 24.2993H34.0838C35.4826 24.2993 36.5177 23.9646 37.1891 23.2952C37.9164 22.6259 38.2801 21.9007 38.2801 21.1198ZM80.9984 15.9223V17.9402H59.0937V15.9223H80.9984ZM33.9999 15.9223V17.9402H6.30432L6.30432 15.9223H33.9999Z" fill="#777777"/>
<path d="M704.415 0C709.18 2.79193e-08 711.564 0.000583692 713.045 1.47656C714.524 2.95282 714.526 5.32929 714.526 10.08V115.92C714.526 120.671 714.524 123.047 713.045 124.523C711.564 125.999 709.18 126 704.415 126H633.641C628.876 126 626.492 125.999 625.011 124.523C623.531 123.047 623.53 120.672 623.53 115.92V10.08C623.53 5.32824 623.531 2.95274 625.011 1.47656C626.492 0.00136145 628.876 0 633.641 0H704.415ZM663.973 80.64C659.206 80.64 656.824 80.6404 655.343 82.1166C653.862 83.5927 653.862 85.9682 653.862 90.72V95.76C653.862 100.512 653.862 102.887 655.343 104.363C656.824 105.84 659.206 105.84 663.973 105.84H674.083C678.849 105.84 681.232 105.84 682.713 104.363C684.193 102.887 684.194 100.512 684.194 95.76V90.72C684.194 85.9682 684.193 83.5927 682.713 82.1166C681.232 80.6404 678.849 80.64 674.083 80.64H663.973Z" fill="#777777"/>
</g>
</svg>
