<svg width="1294" height="323" viewBox="0 0 1294 323" fill="none" xmlns="http://www.w3.org/2000/svg">
<rect width="1294" height="323" fill="#EFEFEF"/>
<path d="M1126 216.95C1124.87 216.95 1123.77 216.61 1122.69 215.93C1121.67 215.307 1120.51 213.578 1119.2 210.745L1094.22 156.94H1085.63C1084.22 156.94 1083.25 156.572 1082.74 155.835C1082.29 155.098 1082.06 154.305 1082.06 153.455C1082.06 152.548 1082.32 151.755 1082.83 151.075C1083.34 150.338 1084.39 149.97 1085.97 149.97H1112.75C1114.16 149.97 1115.07 150.338 1115.47 151.075C1115.86 151.812 1116.06 152.633 1116.06 153.54C1116.06 154.39 1115.86 155.183 1115.47 155.92C1115.07 156.6 1114.19 156.94 1112.83 156.94H1103.57L1126.26 207.94L1147 156.94H1139.77C1138.36 156.94 1137.45 156.6 1137.05 155.92C1136.66 155.183 1136.46 154.39 1136.46 153.54C1136.46 152.633 1136.66 151.812 1137.05 151.075C1137.51 150.338 1138.44 149.97 1139.86 149.97H1162.04C1163.68 149.97 1164.73 150.338 1165.19 151.075C1165.7 151.755 1165.95 152.548 1165.95 153.455C1165.95 154.305 1165.72 155.098 1165.27 155.835C1164.82 156.572 1163.85 156.94 1162.38 156.94H1154.82L1132.12 211.17C1131.05 213.777 1130.03 215.392 1129.06 216.015C1128.16 216.638 1127.14 216.95 1126 216.95Z" fill="#101010"/>
<path d="M1022.14 217.205C1014.61 217.205 1007.92 215.788 1002.09 212.955C996.307 210.065 991.774 205.928 988.488 200.545C985.258 195.162 983.644 188.702 983.644 181.165C983.644 173.912 985.343 167.707 988.743 162.55C992.199 157.393 996.761 153.455 1002.43 150.735C1008.15 148.015 1014.41 146.655 1021.21 146.655C1029.99 146.655 1037.27 149.063 1043.05 153.88C1048.89 158.697 1051.81 165.752 1051.81 175.045C1051.81 177.142 1051.21 178.898 1050.02 180.315C1048.83 181.732 1047.25 182.44 1045.26 182.44H991.803C992.086 191.677 995.004 198.618 1000.56 203.265C1006.11 207.912 1013.08 210.235 1021.46 210.235C1025.6 210.235 1029.74 209.47 1033.87 207.94C1038.01 206.41 1041.72 204.087 1045.01 200.97C1046.2 200.007 1047.36 199.525 1048.49 199.525C1049.51 199.525 1050.33 199.893 1050.96 200.63C1051.58 201.367 1051.89 202.245 1051.89 203.265C1051.89 204.512 1051.38 205.702 1050.36 206.835C1048.27 209.102 1045.57 211 1042.29 212.53C1039 214.06 1035.55 215.222 1031.92 216.015C1028.35 216.808 1025.09 217.205 1022.14 217.205ZM992.058 176.235H1044.58C1044.47 174.138 1044.13 171.815 1043.56 169.265C1043 166.658 1041.92 164.165 1040.33 161.785C1038.8 159.405 1036.51 157.45 1033.45 155.92C1030.45 154.39 1026.42 153.625 1021.38 153.625C1013.11 153.625 1006.39 155.58 1001.24 159.49C996.137 163.4 993.078 168.982 992.058 176.235Z" fill="#101010"/>
<path d="M908.766 217.205C902.137 217.205 896.414 215.703 891.598 212.7C886.782 209.64 883.071 205.475 880.464 200.205C877.914 194.878 876.639 188.787 876.639 181.93C876.639 175.187 877.943 169.152 880.549 163.825C883.155 158.498 886.838 154.305 891.598 151.245C896.414 148.185 902.137 146.655 908.766 146.655C914.262 146.655 918.88 147.477 922.62 149.12C926.359 150.763 929.787 152.945 932.904 155.665V123.025L920.325 123.96C919.305 124.017 918.484 123.705 917.86 123.025C917.294 122.345 917.01 121.58 917.01 120.73C917.01 120.05 917.237 119.342 917.69 118.605C918.2 117.812 919.107 117.358 920.41 117.245L937.238 115.46C938.655 115.347 939.646 115.63 940.213 116.31C940.78 116.99 941.063 117.812 941.063 118.775V208.535L954.152 207.6C955.342 207.6 956.191 207.912 956.701 208.535C957.268 209.102 957.551 209.782 957.551 210.575C957.551 211.368 957.268 212.162 956.701 212.955C956.191 213.748 955.398 214.202 954.322 214.315L937.918 216.015C935.482 216.015 934.179 214.598 934.009 211.765L933.669 206.665C931.176 209.668 927.748 212.19 923.385 214.23C919.022 216.213 914.149 217.205 908.766 217.205ZM908.936 210.235C914.659 210.235 919.475 209.073 923.385 206.75C927.294 204.37 930.467 201.423 932.904 197.91V164.59C930.241 161.247 926.983 158.583 923.13 156.6C919.277 154.617 914.659 153.625 909.276 153.625C903.893 153.625 899.361 154.957 895.678 157.62C892.051 160.227 889.332 163.683 887.518 167.99C885.705 172.24 884.799 176.887 884.799 181.93C884.799 186.973 885.705 191.648 887.518 195.955C889.388 200.262 892.108 203.718 895.678 206.325C899.247 208.932 903.667 210.235 908.936 210.235Z" fill="#101010"/>
<path d="M671.385 215.76C670.082 215.76 669.091 215.392 668.411 214.655C667.787 213.918 667.476 213.097 667.476 212.19C667.476 211.34 667.759 210.575 668.326 209.895C668.949 209.158 669.855 208.79 671.045 208.79H702.407V123.11L672.405 125.49C672.292 125.49 672.179 125.518 672.065 125.575C672.009 125.575 671.924 125.575 671.81 125.575C670.677 125.575 669.799 125.207 669.176 124.47C668.609 123.733 668.326 122.912 668.326 122.005C668.326 121.212 668.552 120.475 669.006 119.795C669.459 119.115 670.139 118.718 671.045 118.605L706.572 115.375C706.685 115.375 706.798 115.375 706.912 115.375C707.082 115.318 707.28 115.29 707.507 115.29C709.546 115.29 710.566 116.197 710.566 118.01V208.79H739.463C740.597 208.79 741.418 209.158 741.928 209.895C742.495 210.632 742.778 211.425 742.778 212.275C742.778 213.182 742.495 214.003 741.928 214.74C741.362 215.42 740.512 215.76 739.378 215.76H671.385Z" fill="#101010"/>
<path d="M565.996 215.76C564.693 215.76 563.701 215.392 563.021 214.655C562.398 213.918 562.086 213.097 562.086 212.19C562.086 211.34 562.37 210.575 562.936 209.895C563.56 209.158 564.466 208.79 565.656 208.79H597.018V123.11L567.016 125.49C566.903 125.49 566.789 125.518 566.676 125.575C566.619 125.575 566.534 125.575 566.421 125.575C565.288 125.575 564.409 125.207 563.786 124.47C563.22 123.733 562.936 122.912 562.936 122.005C562.936 121.212 563.163 120.475 563.616 119.795C564.069 119.115 564.749 118.718 565.656 118.605L601.182 115.375C601.296 115.375 601.409 115.375 601.522 115.375C601.692 115.318 601.891 115.29 602.117 115.29C604.157 115.29 605.177 116.197 605.177 118.01V208.79H634.074C635.207 208.79 636.029 209.158 636.539 209.895C637.105 210.632 637.389 211.425 637.389 212.275C637.389 213.182 637.105 214.003 636.539 214.74C635.972 215.42 635.122 215.76 633.989 215.76H565.996Z" fill="#101010"/>
<path d="M495.198 217.205C487.662 217.205 480.976 215.788 475.14 212.955C469.361 210.065 464.828 205.928 461.542 200.545C458.312 195.162 456.697 188.702 456.697 181.165C456.697 173.912 458.397 167.707 461.797 162.55C465.253 157.393 469.814 153.455 475.48 150.735C481.203 148.015 487.464 146.655 494.263 146.655C503.046 146.655 510.327 149.063 516.106 153.88C521.942 158.697 524.86 165.752 524.86 175.045C524.86 177.142 524.265 178.898 523.075 180.315C521.885 181.732 520.299 182.44 518.316 182.44H464.856C465.139 191.677 468.058 198.618 473.61 203.265C479.163 207.912 486.132 210.235 494.518 210.235C498.654 210.235 502.791 209.47 506.927 207.94C511.063 206.41 514.774 204.087 518.061 200.97C519.251 200.007 520.412 199.525 521.545 199.525C522.565 199.525 523.387 199.893 524.01 200.63C524.633 201.367 524.945 202.245 524.945 203.265C524.945 204.512 524.435 205.702 523.415 206.835C521.319 209.102 518.627 211 515.341 212.53C512.055 214.06 508.598 215.222 504.972 216.015C501.402 216.808 498.144 217.205 495.198 217.205ZM465.111 176.235H517.636C517.523 174.138 517.183 171.815 516.616 169.265C516.049 166.658 514.973 164.165 513.386 161.785C511.856 159.405 509.562 157.45 506.502 155.92C503.499 154.39 499.476 153.625 494.433 153.625C486.161 153.625 479.446 155.58 474.29 159.49C469.191 163.4 466.131 168.982 465.111 176.235Z" fill="#101010"/>
<path d="M349.948 215.76C348.645 215.76 347.653 215.392 346.973 214.655C346.35 213.862 346.038 213.012 346.038 212.105C346.038 211.255 346.322 210.49 346.888 209.81C347.511 209.13 348.418 208.79 349.608 208.79H358.787V123.025L346.208 123.79C345.188 123.847 344.367 123.563 343.743 122.94C343.177 122.317 342.894 121.58 342.894 120.73C342.894 120.05 343.092 119.313 343.488 118.52C343.942 117.727 344.678 117.302 345.698 117.245L361.762 115.63C362.102 115.573 362.413 115.545 362.697 115.545C362.98 115.488 363.235 115.46 363.461 115.46C365.785 115.46 366.946 116.565 366.946 118.775V161.445C369.099 157.252 372.641 153.738 377.57 150.905C382.5 148.072 387.882 146.655 393.718 146.655C401.934 146.655 407.969 148.78 411.822 153.03C415.675 157.223 417.601 163.032 417.601 170.455V208.79H426.865C427.998 208.79 428.848 209.158 429.415 209.895C429.981 210.575 430.265 211.34 430.265 212.19C430.265 213.097 429.953 213.918 429.33 214.655C428.763 215.392 427.885 215.76 426.695 215.76H397.373C396.07 215.76 395.078 215.392 394.398 214.655C393.775 213.862 393.463 213.012 393.463 212.105C393.463 211.255 393.747 210.49 394.313 209.81C394.937 209.13 395.843 208.79 397.033 208.79H409.442V169.86C409.442 164.817 408.167 160.85 405.617 157.96C403.124 155.07 399.299 153.625 394.143 153.625C388.704 153.625 383.944 154.673 379.865 156.77C375.785 158.867 372.612 161.445 370.346 164.505C368.079 167.565 366.946 170.568 366.946 173.515V208.79H375.87C377.23 208.79 378.25 209.158 378.93 209.895C379.61 210.575 379.95 211.34 379.95 212.19C379.95 213.097 379.581 213.918 378.845 214.655C378.165 215.392 377.117 215.76 375.7 215.76H349.948Z" fill="#101010"/>
<path d="M283.315 217.205C278.442 217.205 273.654 216.468 268.951 214.995C264.305 213.522 260.31 210.887 256.967 207.09V212.19C256.967 213.437 256.656 214.343 256.032 214.91C255.409 215.477 254.701 215.76 253.908 215.76C253.058 215.76 252.264 215.477 251.528 214.91C250.848 214.287 250.508 213.465 250.508 212.445V193.235C250.508 191.648 250.848 190.515 251.528 189.835C252.264 189.155 253.001 188.815 253.738 188.815C254.531 188.815 255.239 189.07 255.862 189.58C256.486 190.033 256.797 191.252 256.797 193.235C256.797 196.465 257.93 199.355 260.197 201.905C262.52 204.455 265.636 206.495 269.546 208.025C273.512 209.498 277.932 210.235 282.805 210.235C289.151 210.235 294.052 209.243 297.508 207.26C301.021 205.277 302.778 202.188 302.778 197.995C302.778 195.275 302.069 193.008 300.653 191.195C299.236 189.325 296.602 188.022 292.749 187.285L270.141 182.865C264.815 181.845 260.509 180.032 257.222 177.425C253.936 174.762 252.293 170.937 252.293 165.95C252.293 160.85 253.653 156.912 256.372 154.135C259.092 151.358 262.548 149.432 266.741 148.355C270.934 147.222 275.24 146.655 279.66 146.655C284.533 146.655 289.264 147.392 293.854 148.865C298.443 150.338 301.616 152.208 303.373 154.475V151.33C303.316 149.913 303.656 148.865 304.392 148.185C305.186 147.448 306.036 147.08 306.942 147.08C307.849 147.08 308.642 147.42 309.322 148.1C310.059 148.78 310.427 149.828 310.427 151.245V168.33C310.144 170.427 308.954 171.475 306.857 171.475C305.384 171.475 304.449 170.88 304.052 169.69C303.713 168.5 303.514 166.687 303.458 164.25C301.871 160.51 298.868 157.818 294.448 156.175C290.086 154.475 284.958 153.625 279.065 153.625C274.079 153.625 269.829 154.418 266.316 156.005C262.803 157.535 261.047 160.425 261.047 164.675C261.047 167.112 261.783 169.18 263.257 170.88C264.73 172.523 267.591 173.827 271.841 174.79L293.854 179.21C298.783 180.173 302.863 182.015 306.092 184.735C309.379 187.398 311.022 191.847 311.022 198.08C311.022 204.653 308.415 209.498 303.203 212.615C297.99 215.675 291.36 217.205 283.315 217.205Z" fill="#101010"/>
<path d="M150.898 215.76C149.481 215.76 148.377 215.363 147.583 214.57C146.847 213.777 146.478 212.927 146.478 212.02C146.478 211.113 146.818 210.292 147.498 209.555C148.235 208.818 149.311 208.45 150.728 208.45H172.911V168.755L144.439 122.685H137.299C135.883 122.685 134.806 122.345 134.07 121.665C133.39 120.985 133.05 120.248 133.05 119.455C133.05 118.662 133.418 117.925 134.155 117.245C134.891 116.565 135.968 116.225 137.384 116.225H165.432C166.905 116.225 167.981 116.565 168.661 117.245C169.398 117.925 169.766 118.662 169.766 119.455C169.766 120.248 169.398 120.985 168.661 121.665C167.981 122.345 166.933 122.685 165.517 122.685H153.958L177.415 161.955L200.193 122.685H190.759C189.342 122.685 188.266 122.345 187.529 121.665C186.849 120.985 186.509 120.248 186.509 119.455C186.509 118.662 186.878 117.925 187.614 117.245C188.351 116.565 189.427 116.225 190.844 116.225H213.027C214.5 116.225 215.576 116.593 216.256 117.33C216.993 118.01 217.361 118.747 217.361 119.54C217.361 120.333 217.021 121.07 216.341 121.75C215.661 122.373 214.613 122.685 213.197 122.685H208.522L181.07 169.18V208.45H200.788C202.148 208.45 203.168 208.818 203.848 209.555C204.528 210.292 204.868 211.113 204.868 212.02C204.868 212.927 204.499 213.777 203.763 214.57C203.083 215.363 202.034 215.76 200.618 215.76H150.898Z" fill="#101010"/>
<path d="M1080.01 153.455C1080.01 152.137 1080.39 150.904 1081.19 149.845C1082.31 148.296 1084.25 147.92 1085.97 147.92V149.97C1084.39 149.97 1083.34 150.338 1082.83 151.075C1082.32 151.755 1082.06 152.548 1082.06 153.455C1082.06 154.305 1082.29 155.098 1082.74 155.835C1083.25 156.572 1084.22 156.94 1085.63 156.94H1094.22L1119.2 210.745C1120.51 213.578 1121.67 215.307 1122.69 215.93C1123.77 216.61 1124.87 216.95 1126 216.95C1127.14 216.95 1128.16 216.638 1129.06 216.015C1130.03 215.392 1131.05 213.777 1132.12 211.17L1154.82 156.94H1162.38C1163.85 156.94 1164.82 156.572 1165.27 155.835C1165.72 155.098 1165.95 154.305 1165.95 153.455C1165.95 152.548 1165.7 151.755 1165.19 151.075C1164.73 150.338 1163.68 149.97 1162.04 149.97V147.92C1163.72 147.92 1165.72 148.26 1166.82 149.85L1166.83 149.845C1167.62 150.904 1168 152.137 1168 153.455C1168 154.691 1167.66 155.857 1167.02 156.91C1165.98 158.585 1164.06 158.99 1162.38 158.99H1156.18L1134.01 211.945L1134.02 211.95C1133.45 213.316 1132.88 214.489 1132.28 215.43C1131.72 216.326 1131.04 217.153 1130.22 217.7L1130.22 217.705C1130.21 217.715 1130.19 217.725 1130.18 217.735L1130.17 217.73C1128.93 218.574 1127.52 219 1126 219C1124.45 219 1122.98 218.526 1121.62 217.675C1120.74 217.135 1119.99 216.262 1119.35 215.31C1118.69 214.322 1118.02 213.072 1117.35 211.6L1092.91 158.99H1085.63C1083.95 158.99 1082.13 158.553 1081.06 157L1081 156.91C1080.35 155.857 1080.01 154.691 1080.01 153.455ZM1116.06 153.54C1116.06 152.633 1115.86 151.812 1115.47 151.075C1115.07 150.338 1114.16 149.97 1112.75 149.97V147.92C1114.17 147.92 1115.83 148.236 1116.87 149.5L1117.27 150.105L1117.64 150.915C1117.96 151.746 1118.11 152.627 1118.11 153.54C1118.11 154.723 1117.83 155.85 1117.27 156.89L1117.24 156.955L1117.23 156.95C1116.26 158.616 1114.38 158.99 1112.83 158.99H1106.72L1126.17 202.715L1143.96 158.99H1139.77C1138.21 158.99 1136.27 158.637 1135.28 156.95L1135.25 156.89C1134.69 155.85 1134.41 154.723 1134.41 153.54C1134.41 152.324 1134.68 151.164 1135.25 150.105L1135.28 150.05L1135.31 150C1136.33 148.345 1138.2 147.92 1139.86 147.92V149.97C1138.44 149.97 1137.51 150.338 1137.05 151.075C1136.66 151.812 1136.46 152.633 1136.46 153.54C1136.46 154.39 1136.66 155.183 1137.05 155.92C1137.45 156.6 1138.36 156.94 1139.77 156.94H1147L1126.26 207.94L1103.57 156.94H1112.83C1114.19 156.94 1115.07 156.6 1115.47 155.92C1115.86 155.183 1116.06 154.39 1116.06 153.54ZM1162.04 147.92V149.97H1139.86V147.92H1162.04ZM1112.75 147.92V149.97H1085.97V147.92H1112.75Z" fill="#101010"/>
<path d="M1051.81 175.045C1051.81 165.752 1048.89 158.697 1043.05 153.88C1037.27 149.063 1029.99 146.655 1021.21 146.655C1014.41 146.655 1008.15 148.015 1002.43 150.735C996.761 153.455 992.199 157.393 988.743 162.55C985.343 167.707 983.644 173.912 983.644 181.165C983.644 188.702 985.258 195.162 988.488 200.545C991.774 205.928 996.307 210.065 1002.09 212.955C1007.92 215.788 1014.61 217.205 1022.14 217.205C1025.09 217.205 1028.35 216.808 1031.92 216.015C1035.55 215.222 1039 214.06 1042.29 212.53C1045.57 211 1048.27 209.102 1050.36 206.835C1051.38 205.702 1051.89 204.512 1051.89 203.265C1051.89 202.245 1051.58 201.367 1050.96 200.63C1050.33 199.893 1049.51 199.525 1048.49 199.525C1047.36 199.525 1046.2 200.007 1045.01 200.97C1041.72 204.087 1038.01 206.41 1033.87 207.94C1029.74 209.47 1025.6 210.235 1021.46 210.235V208.185C1025.34 208.185 1029.24 207.471 1033.16 206.02C1037.03 204.589 1040.51 202.416 1043.6 199.485L1043.66 199.43L1043.72 199.38C1045.14 198.225 1046.75 197.475 1048.49 197.475C1050.07 197.475 1051.48 198.08 1052.52 199.305C1053.48 200.434 1053.94 201.791 1053.94 203.265C1053.94 205.124 1053.16 206.783 1051.88 208.205L1051.87 208.225C1049.56 210.718 1046.64 212.762 1043.15 214.385C1039.73 215.98 1036.13 217.185 1032.36 218.01C1028.68 218.828 1025.27 219.255 1022.14 219.255C1014.35 219.255 1007.35 217.784 1001.19 214.795L1001.17 214.785C995.058 211.728 990.23 207.33 986.738 201.61L986.733 201.6C983.278 195.84 981.594 188.998 981.594 181.165C981.594 173.583 983.378 166.971 987.033 161.425L987.043 161.41C990.706 155.946 995.55 151.766 1001.54 148.89L1001.55 148.885C1007.56 146.025 1014.13 144.605 1021.21 144.605C1030.38 144.605 1038.15 147.131 1044.36 152.3L1045.52 153.32C1051.14 158.563 1053.86 165.902 1053.86 175.045C1053.86 177.554 1053.13 179.796 1051.59 181.63C1049.98 183.547 1047.8 184.49 1045.26 184.49H993.973C994.594 192.22 997.292 197.862 1001.87 201.695C1007 205.985 1013.48 208.185 1021.46 208.185V210.235C1013.08 210.235 1006.11 207.912 1000.56 203.265C995.004 198.618 992.086 191.677 991.803 182.44H1045.26C1047.25 182.44 1048.83 181.732 1050.02 180.315C1051.21 178.898 1051.81 177.142 1051.81 175.045ZM1021.38 153.625C1026.42 153.625 1030.45 154.39 1033.45 155.92C1036.51 157.45 1038.8 159.405 1040.33 161.785L1038.61 162.89C1037.32 160.88 1035.33 159.149 1032.53 157.75L1032.52 157.745C1029.91 156.416 1026.25 155.675 1021.38 155.675C1013.43 155.675 1007.19 157.541 1002.48 161.11L1002.48 161.115C998.414 164.234 995.74 168.545 994.508 174.185H1042.34C1042.17 172.8 1041.92 171.308 1041.56 169.71V169.7C1041.05 167.361 1040.08 165.103 1038.63 162.92L1038.61 162.89L1040.33 161.785C1041.92 164.165 1043 166.658 1043.56 169.265C1044.13 171.815 1044.47 174.138 1044.58 176.235H992.058C993.078 168.982 996.137 163.4 1001.24 159.49C1006.39 155.58 1013.11 153.625 1021.38 153.625Z" fill="#101010"/>
<path d="M934.009 211.765C934.179 214.598 935.482 216.015 937.918 216.015L954.322 214.315C955.398 214.202 956.191 213.748 956.701 212.955C957.268 212.162 957.551 211.368 957.551 210.575C957.551 209.782 957.268 209.102 956.701 208.535C956.191 207.912 955.342 207.6 954.152 207.6L941.063 208.535V118.775C941.063 117.812 940.78 116.99 940.213 116.31C939.646 115.63 938.655 115.347 937.238 115.46L920.41 117.245C919.107 117.358 918.2 117.812 917.69 118.605C917.237 119.342 917.01 120.05 917.01 120.73C917.01 121.58 917.294 122.345 917.86 123.025C918.484 123.705 919.305 124.017 920.325 123.96L932.904 123.025V155.665C929.787 152.945 926.359 150.763 922.62 149.12C918.88 147.477 914.262 146.655 908.766 146.655C902.137 146.655 896.414 148.185 891.598 151.245C886.838 154.305 883.155 158.498 880.549 163.825C877.943 169.152 876.639 175.187 876.639 181.93C876.639 188.787 877.914 194.878 880.464 200.205C883.071 205.475 886.782 209.64 891.598 212.7C896.414 215.703 902.137 217.205 908.766 217.205C914.149 217.205 919.022 216.213 923.385 214.23L924.23 216.095C919.57 218.213 914.404 219.255 908.766 219.255C901.819 219.255 895.706 217.678 890.513 214.44L890.498 214.43C885.357 211.163 881.396 206.709 878.629 201.115L878.619 201.09C875.918 195.446 874.59 189.044 874.59 181.93C874.59 174.918 875.948 168.568 878.709 162.925C881.472 157.279 885.404 152.792 890.493 149.52L890.498 149.515C895.693 146.214 901.812 144.605 908.766 144.605C914.453 144.605 919.372 145.455 923.445 147.245C926.061 148.395 928.53 149.8 930.854 151.45V125.225L920.475 126L920.44 126.005C918.882 126.092 917.436 125.594 916.35 124.41L916.32 124.375L916.285 124.335C915.427 123.304 914.961 122.08 914.961 120.73C914.961 119.581 915.347 118.503 915.946 117.53L915.966 117.495C916.817 116.171 918.165 115.524 919.61 115.285L920.235 115.205L937.023 113.425L937.073 113.42C938.744 113.286 940.587 113.559 941.788 115C942.688 116.081 943.113 117.379 943.113 118.775V206.33L954.077 205.55H954.152C955.592 205.55 957.089 205.924 958.141 207.09L958.151 207.085C959.097 208.031 959.601 209.232 959.601 210.575C959.601 211.85 959.143 213.016 958.421 214.055L958.426 214.06C957.528 215.457 956.128 216.182 954.537 216.35L938.128 218.05L938.023 218.065H937.918C936.29 218.065 934.746 217.575 933.609 216.34C932.52 215.156 932.066 213.567 931.964 211.9L931.919 211.285C929.737 213.115 927.176 214.717 924.25 216.085L924.23 216.095L923.385 214.23C927.748 212.19 931.176 209.668 933.669 206.665L934.009 211.765ZM884.799 181.93C884.799 176.887 885.705 172.24 887.518 167.99C889.332 163.683 892.051 160.227 895.678 157.62C899.361 154.957 903.893 153.625 909.276 153.625C914.659 153.625 919.277 154.617 923.13 156.6C926.983 158.583 930.241 161.247 932.904 164.59V197.91C930.467 201.423 927.294 204.37 923.385 206.75C919.475 209.073 914.659 210.235 908.936 210.235V208.185C914.375 208.185 918.802 207.085 922.32 205C925.811 202.875 928.641 200.283 930.854 197.24V165.33C928.459 162.469 925.582 160.164 922.195 158.42C918.694 156.618 914.41 155.675 909.276 155.675C904.243 155.675 900.15 156.913 896.877 159.28L896.872 159.285C893.568 161.661 891.082 164.81 889.408 168.785L889.403 168.795C887.708 172.768 886.848 177.138 886.848 181.93C886.848 186.714 887.705 191.11 889.398 195.14L890.083 196.6C891.767 199.912 894.038 202.589 896.887 204.67C900.043 206.974 904.016 208.185 908.936 208.185V210.235C903.667 210.235 899.247 208.932 895.678 206.325C892.108 203.718 889.388 200.262 887.518 195.955C885.705 191.648 884.799 186.973 884.799 181.93Z" fill="#101010"/>
<path d="M665.426 212.19C665.426 210.84 665.892 209.616 666.751 208.585L666.761 208.57C667.862 207.268 669.406 206.74 671.045 206.74V208.79C669.855 208.79 668.949 209.158 668.326 209.895C667.759 210.575 667.476 211.34 667.476 212.19C667.476 213.097 667.787 213.918 668.411 214.655C669.091 215.392 670.082 215.76 671.385 215.76H739.378C740.512 215.76 741.362 215.42 741.928 214.74C742.495 214.003 742.778 213.182 742.778 212.275C742.778 211.425 742.495 210.632 741.928 209.895C741.418 209.158 740.597 208.79 739.463 208.79V206.74C741.036 206.74 742.553 207.274 743.548 208.645C743.561 208.662 743.575 208.683 743.588 208.7C743.595 208.71 743.606 208.72 743.613 208.73C744.39 209.771 744.828 210.964 744.828 212.275C744.828 213.645 744.387 214.905 743.553 215.99L743.503 216.05C742.443 217.322 740.935 217.81 739.378 217.81H671.385C669.692 217.81 668.081 217.318 666.906 216.045L666.876 216.01L666.846 215.98C665.931 214.899 665.426 213.614 665.426 212.19ZM710.566 118.01C710.566 116.197 709.546 115.29 707.507 115.29C707.28 115.29 707.082 115.318 706.912 115.375H706.572L671.045 118.605C670.139 118.718 669.459 119.115 669.006 119.795C668.552 120.475 668.326 121.212 668.326 122.005C668.326 122.912 668.609 123.733 669.176 124.47C669.799 125.207 670.677 125.575 671.81 125.575H672.065C672.179 125.518 672.292 125.49 672.405 125.49L702.407 123.11V208.79H671.045V206.74H700.357V125.325L672.765 127.51L672.55 127.625H671.81C670.191 127.625 668.692 127.073 667.611 125.795L667.581 125.755L667.551 125.72C666.716 124.635 666.276 123.375 666.276 122.005C666.276 120.795 666.631 119.665 667.301 118.66C668.125 117.423 669.372 116.753 670.79 116.575L670.86 116.565L706.387 113.335L706.477 113.325H706.722C706.992 113.273 707.255 113.24 707.507 113.24C708.787 113.24 710.129 113.522 711.161 114.44C712.24 115.399 712.616 116.721 712.616 118.01V206.74H739.463V208.79H710.566V118.01Z" fill="#101010"/>
<path d="M560.037 212.19C560.037 210.84 560.503 209.616 561.361 208.585L561.371 208.57C562.473 207.268 564.017 206.74 565.656 206.74V208.79C564.466 208.79 563.56 209.158 562.936 209.895C562.37 210.575 562.086 211.34 562.086 212.19C562.086 213.097 562.398 213.918 563.021 214.655C563.701 215.392 564.693 215.76 565.996 215.76H633.989C635.122 215.76 635.972 215.42 636.539 214.74C637.105 214.003 637.389 213.182 637.389 212.275C637.389 211.425 637.105 210.632 636.539 209.895C636.029 209.158 635.207 208.79 634.074 208.79V206.74C635.647 206.74 637.163 207.274 638.159 208.645C638.172 208.662 638.186 208.683 638.199 208.7C638.206 208.71 638.216 208.72 638.224 208.73C639 209.771 639.439 210.964 639.439 212.275C639.439 213.645 638.998 214.905 638.164 215.99L638.114 216.05C637.054 217.322 635.546 217.81 633.989 217.81H565.996C564.302 217.81 562.692 217.318 561.516 216.045L561.486 216.01L561.456 215.98C560.542 214.899 560.037 213.614 560.037 212.19ZM605.177 118.01C605.177 116.197 604.157 115.29 602.117 115.29C601.891 115.29 601.692 115.318 601.522 115.375H601.182L565.656 118.605C564.749 118.718 564.069 119.115 563.616 119.795C563.163 120.475 562.936 121.212 562.936 122.005C562.936 122.912 563.22 123.733 563.786 124.47C564.409 125.207 565.288 125.575 566.421 125.575H566.676C566.789 125.518 566.903 125.49 567.016 125.49L597.018 123.11V208.79H565.656V206.74H594.968V125.325L567.376 127.51L567.161 127.625H566.421C564.802 127.625 563.303 127.073 562.221 125.795L562.191 125.755L562.161 125.72C561.327 124.635 560.886 123.375 560.886 122.005C560.886 120.795 561.241 119.665 561.911 118.66C562.736 117.423 563.982 116.753 565.401 116.575L565.471 116.565L600.997 113.335L601.087 113.325H601.332C601.603 113.273 601.866 113.24 602.117 113.24C603.397 113.24 604.739 113.522 605.772 114.44C606.851 115.399 607.227 116.721 607.227 118.01V206.74H634.074V208.79H605.177V118.01Z" fill="#101010"/>
<path d="M524.86 175.045C524.86 165.752 521.942 158.697 516.106 153.88C510.327 149.063 503.046 146.655 494.263 146.655C487.464 146.655 481.203 148.015 475.48 150.735C469.814 153.455 465.253 157.393 461.797 162.55C458.397 167.707 456.697 173.912 456.697 181.165C456.697 188.702 458.312 195.162 461.542 200.545C464.828 205.928 469.361 210.065 475.14 212.955C480.976 215.788 487.662 217.205 495.198 217.205C498.144 217.205 501.402 216.808 504.972 216.015C508.598 215.222 512.055 214.06 515.341 212.53C518.627 211 521.319 209.102 523.415 206.835C524.435 205.702 524.945 204.512 524.945 203.265C524.945 202.245 524.633 201.367 524.01 200.63C523.387 199.893 522.565 199.525 521.545 199.525C520.412 199.525 519.251 200.007 518.061 200.97C514.774 204.087 511.063 206.41 506.927 207.94C502.791 209.47 498.654 210.235 494.518 210.235V208.185C498.396 208.185 502.293 207.471 506.217 206.02C510.086 204.589 513.56 202.416 516.651 199.485L516.711 199.43L516.771 199.38C518.198 198.225 519.802 197.475 521.545 197.475C523.128 197.475 524.538 198.08 525.575 199.305C526.53 200.434 526.995 201.791 526.995 203.265C526.995 205.124 526.214 206.783 524.935 208.205L524.92 208.225C522.615 210.718 519.692 212.762 516.206 214.385C512.781 215.98 509.181 217.185 505.412 218.01C501.731 218.828 498.324 219.255 495.198 219.255C487.402 219.255 480.402 217.784 474.245 214.795L474.225 214.785C468.111 211.728 463.283 207.33 459.792 201.61L459.787 201.6C456.331 195.84 454.647 188.998 454.647 181.165C454.647 173.583 456.431 166.971 460.087 161.425L460.097 161.41C463.759 155.946 468.604 151.766 474.595 148.89L474.6 148.885C480.617 146.025 487.182 144.605 494.263 144.605C503.437 144.605 511.205 147.131 517.411 152.3L518.571 153.32C524.196 158.563 526.91 165.902 526.91 175.045C526.91 177.554 526.185 179.796 524.645 181.63C523.035 183.547 520.854 184.49 518.316 184.49H467.026C467.647 192.22 470.345 197.862 474.925 201.695C480.052 205.985 486.533 208.185 494.518 208.185V210.235C486.132 210.235 479.163 207.912 473.61 203.265C468.058 198.618 465.139 191.677 464.856 182.44H518.316C520.299 182.44 521.885 181.732 523.075 180.315C524.265 178.898 524.86 177.142 524.86 175.045ZM494.433 153.625C499.476 153.625 503.499 154.39 506.502 155.92C509.562 157.45 511.856 159.405 513.386 161.785L511.661 162.89C510.368 160.88 508.385 159.149 505.587 157.75L505.572 157.745C502.964 156.416 499.3 155.675 494.433 155.675C486.486 155.675 480.241 157.541 475.53 161.11L475.535 161.115C471.467 164.234 468.793 168.545 467.561 174.185H515.391C515.224 172.8 514.971 171.308 514.616 169.71V169.7C514.108 167.361 513.136 165.103 511.681 162.92L511.661 162.89L513.386 161.785C514.973 164.165 516.049 166.658 516.616 169.265C517.183 171.815 517.523 174.138 517.636 176.235H465.111C466.131 168.982 469.191 163.4 474.29 159.49C479.446 155.58 486.161 153.625 494.433 153.625Z" fill="#101010"/>
<path d="M343.988 212.105C343.988 210.755 344.455 209.531 345.313 208.5L345.348 208.46L345.378 208.425C346.494 207.208 348.021 206.74 349.608 206.74V208.79C348.418 208.79 347.511 209.13 346.888 209.81C346.322 210.49 346.038 211.255 346.038 212.105C346.038 213.012 346.35 213.862 346.973 214.655C347.653 215.392 348.645 215.76 349.948 215.76H375.7C377.117 215.76 378.165 215.392 378.845 214.655C379.581 213.918 379.95 213.097 379.95 212.19C379.95 211.34 379.61 210.575 378.93 209.895C378.25 209.158 377.23 208.79 375.87 208.79V206.74C377.562 206.74 379.188 207.201 380.375 208.445C381.384 209.454 382 210.724 382 212.19C382 213.722 381.353 215.046 380.295 216.105L380.29 216.1C379.088 217.361 377.42 217.81 375.7 217.81H349.948C348.254 217.81 346.644 217.318 345.468 216.045L345.413 215.985L345.363 215.92C344.49 214.809 343.988 213.522 343.988 212.105ZM391.414 212.105C391.414 210.755 391.88 209.531 392.738 208.5L392.773 208.46L392.803 208.425C393.92 207.208 395.446 206.74 397.033 206.74V208.79C395.843 208.79 394.937 209.13 394.313 209.81C393.747 210.49 393.463 211.255 393.463 212.105C393.463 213.012 393.775 213.862 394.398 214.655C395.078 215.392 396.07 215.76 397.373 215.76H426.695C427.885 215.76 428.763 215.392 429.33 214.655C429.953 213.918 430.265 213.097 430.265 212.19C430.265 211.34 429.981 210.575 429.415 209.895C428.848 209.158 427.998 208.79 426.865 208.79V206.74C428.453 206.74 429.946 207.279 430.985 208.585C431.001 208.605 431.023 208.625 431.04 208.645C431.868 209.664 432.314 210.866 432.314 212.19C432.314 213.614 431.809 214.899 430.895 215.98L430.89 215.975C429.831 217.297 428.296 217.81 426.695 217.81H397.373C395.68 217.81 394.069 217.318 392.893 216.045L392.838 215.985L392.788 215.92C391.916 214.809 391.414 213.522 391.414 212.105ZM417.601 170.455C417.601 163.032 415.675 157.223 411.822 153.03C407.969 148.78 401.934 146.655 393.718 146.655C387.882 146.655 382.5 148.072 377.57 150.905C372.641 153.738 369.099 157.252 366.946 161.445V118.775C366.946 116.565 365.785 115.46 363.461 115.46C363.235 115.46 362.98 115.488 362.697 115.545C362.413 115.545 362.102 115.573 361.762 115.63L345.698 117.245C344.678 117.302 343.942 117.727 343.488 118.52C343.092 119.313 342.894 120.05 342.894 120.73C342.894 121.58 343.177 122.317 343.743 122.94C344.367 123.563 345.188 123.847 346.208 123.79L358.787 123.025V208.79H349.608V206.74H356.737V125.2L346.333 125.835H346.323C344.823 125.918 343.396 125.492 342.294 124.39L342.259 124.355L342.229 124.32C341.316 123.316 340.844 122.084 340.844 120.73C340.844 119.65 341.162 118.599 341.659 117.605L341.709 117.505C342.536 116.057 343.915 115.317 345.493 115.205L361.557 113.59C361.869 113.542 362.18 113.51 362.487 113.5C362.807 113.445 363.135 113.41 363.461 113.41C364.914 113.41 366.383 113.756 367.486 114.805C368.608 115.872 368.996 117.327 368.996 118.775V155.04C371.062 152.811 373.581 150.836 376.55 149.13C381.799 146.113 387.534 144.605 393.718 144.605C402.25 144.605 408.942 146.816 413.326 151.645C417.621 156.319 419.651 162.679 419.651 170.455V206.74H426.865V208.79H417.601V170.455ZM407.392 169.86C407.392 165.159 406.211 161.728 404.082 159.315L404.067 159.3C402.087 157.004 398.924 155.675 394.143 155.675C388.969 155.675 384.541 156.667 380.8 158.59C376.943 160.572 374.035 162.964 371.991 165.725C369.909 168.535 368.996 171.121 368.996 173.515V206.74H375.87V208.79H366.946V173.515C366.946 170.568 368.079 167.565 370.346 164.505C372.612 161.445 375.785 158.867 379.865 156.77C383.944 154.673 388.704 153.625 394.143 153.625C399.299 153.625 403.124 155.07 405.617 157.96C408.167 160.85 409.442 164.817 409.442 169.86V208.79H397.033V206.74H407.392V169.86Z" fill="#101010"/>
<path d="M256.797 193.235C256.797 191.252 256.486 190.033 255.862 189.58C255.239 189.07 254.531 188.815 253.738 188.815C253.001 188.815 252.264 189.155 251.528 189.835C250.848 190.515 250.508 191.648 250.508 193.235V212.445C250.508 213.465 250.848 214.287 251.528 214.91C252.264 215.477 253.058 215.76 253.908 215.76C254.701 215.76 255.409 215.477 256.032 214.91C256.656 214.343 256.967 213.437 256.967 212.19V207.09C260.31 210.887 264.305 213.522 268.951 214.995C273.654 216.468 278.442 217.205 283.315 217.205C291.36 217.205 297.99 215.675 303.203 212.615C308.415 209.498 311.022 204.653 311.022 198.08C311.022 191.847 309.379 187.398 306.092 184.735C302.863 182.015 298.783 180.173 293.854 179.21L271.841 174.79C267.591 173.827 264.73 172.523 263.257 170.88C261.783 169.18 261.047 167.112 261.047 164.675C261.047 160.425 262.803 157.535 266.316 156.005C269.829 154.418 274.079 153.625 279.065 153.625C284.958 153.625 290.086 154.475 294.448 156.175C298.868 157.818 301.871 160.51 303.458 164.25C303.514 166.687 303.713 168.5 304.052 169.69C304.449 170.88 305.384 171.475 306.857 171.475C308.954 171.475 310.144 170.427 310.427 168.33V151.245C310.427 149.828 310.059 148.78 309.322 148.1C308.642 147.42 307.849 147.08 306.942 147.08C306.036 147.08 305.186 147.448 304.392 148.185C303.656 148.865 303.316 149.913 303.373 151.33V154.475C301.616 152.208 298.443 150.338 293.854 148.865C289.264 147.392 284.533 146.655 279.66 146.655C275.24 146.655 270.934 147.222 266.741 148.355C262.548 149.432 259.092 151.358 256.372 154.135C253.653 156.912 252.293 160.85 252.293 165.95C252.293 170.937 253.936 174.762 257.222 177.425C260.509 180.032 264.815 181.845 270.141 182.865L292.749 187.285C296.602 188.022 299.236 189.325 300.653 191.195C302.069 193.008 302.778 195.275 302.778 197.995C302.778 202.188 301.021 205.277 297.508 207.26C294.052 209.243 289.151 210.235 282.805 210.235V208.185C288.984 208.185 293.474 207.214 296.488 205.485L296.503 205.475C299.341 203.872 300.728 201.485 300.728 197.995C300.728 195.646 300.124 193.846 299.038 192.455L299.018 192.43C298.054 191.162 296.025 189.995 292.364 189.295H292.354L269.746 184.875C264.192 183.81 259.555 181.891 255.947 179.03L255.932 179.015C252.079 175.891 250.243 171.431 250.243 165.95C250.243 160.487 251.707 155.968 254.907 152.7C257.918 149.627 261.719 147.529 266.231 146.37C270.594 145.193 275.072 144.605 279.66 144.605C284.743 144.605 289.685 145.376 294.478 146.915C297.159 147.775 299.48 148.811 301.383 150.035C301.54 148.773 302.018 147.589 303.003 146.68C304.096 145.666 305.423 145.03 306.942 145.03C308.427 145.03 309.734 145.612 310.772 146.65C312.034 147.852 312.477 149.524 312.477 151.245V168.47L312.457 168.605C312.271 169.976 311.749 171.28 310.677 172.225C309.601 173.173 308.241 173.525 306.857 173.525C305.856 173.525 304.84 173.32 303.952 172.755C303.037 172.172 302.434 171.318 302.108 170.34L302.098 170.295L302.083 170.255C301.694 168.895 301.499 167.025 301.428 164.755C300.065 161.769 297.59 159.529 293.734 158.095L293.704 158.085C289.63 156.498 284.766 155.675 279.065 155.675C274.289 155.675 270.343 156.433 267.161 157.87L267.136 157.885C265.714 158.505 264.747 159.348 264.117 160.385C263.477 161.437 263.097 162.83 263.097 164.675C263.097 166.661 263.681 168.24 264.801 169.535C265.831 170.665 268.128 171.842 272.241 172.78L294.258 177.2C299.448 178.215 303.847 180.177 307.382 183.145L308.097 183.77C311.549 187.007 313.072 191.94 313.072 198.08C313.072 205.302 310.143 210.853 304.252 214.375L304.237 214.38C298.623 217.676 291.608 219.255 283.315 219.255C278.232 219.255 273.239 218.484 268.341 216.95L268.331 216.945C264.887 215.853 261.787 214.156 259.017 211.89V212.19C259.017 213.734 258.631 215.315 257.412 216.425C256.437 217.311 255.244 217.81 253.908 217.81C252.563 217.81 251.337 217.35 250.278 216.535L250.208 216.48L250.143 216.42C248.993 215.365 248.458 213.971 248.458 212.445V193.235C248.458 191.44 248.829 189.634 250.078 188.385L250.108 188.36L250.138 188.33C251.114 187.428 252.325 186.765 253.738 186.765C255.011 186.765 256.174 187.191 257.157 187.995C257.971 188.631 258.349 189.553 258.547 190.325C258.762 191.167 258.847 192.158 258.847 193.235C258.847 195.926 259.769 198.332 261.712 200.525L262.522 201.36C264.494 203.255 267.053 204.847 270.256 206.105C273.962 207.482 278.139 208.185 282.805 208.185V210.235C277.932 210.235 273.512 209.498 269.546 208.025C265.636 206.495 262.52 204.455 260.197 201.905C257.93 199.355 256.797 196.465 256.797 193.235Z" fill="#101010"/>
<path d="M144.429 212.02C144.429 210.542 145.004 209.237 145.993 208.165L146.023 208.135L146.048 208.105C147.291 206.863 148.969 206.4 150.728 206.4V208.45C149.311 208.45 148.235 208.818 147.498 209.555C146.818 210.292 146.478 211.113 146.478 212.02C146.478 212.927 146.847 213.777 147.583 214.57C148.377 215.363 149.481 215.76 150.898 215.76H200.618C202.034 215.76 203.083 215.363 203.763 214.57C204.499 213.777 204.868 212.927 204.868 212.02C204.868 211.113 204.528 210.292 203.848 209.555C203.168 208.818 202.148 208.45 200.788 208.45V206.4C202.507 206.4 204.161 206.875 205.352 208.165C206.342 209.237 206.917 210.542 206.917 212.02C206.917 213.514 206.297 214.817 205.312 215.9C205.304 215.91 205.296 215.92 205.287 215.93C205.278 215.94 205.272 215.955 205.262 215.965L205.257 215.96C204.066 217.306 202.381 217.81 200.618 217.81H150.898C149.089 217.81 147.405 217.292 146.133 216.02L146.108 215.99L146.083 215.965C145.068 214.871 144.429 213.541 144.429 212.02ZM217.361 119.54C217.361 118.747 216.993 118.01 216.256 117.33C215.576 116.593 214.5 116.225 213.027 116.225V114.175C214.746 114.175 216.429 114.597 217.641 115.825C218.68 116.784 219.411 118.032 219.411 119.54C219.411 120.988 218.768 122.223 217.791 123.2L217.756 123.23L217.726 123.26C216.51 124.375 214.86 124.735 213.197 124.735H209.692L183.12 169.735V206.4H200.788V208.45H181.07V169.18L208.522 122.685H213.197C214.613 122.685 215.661 122.373 216.341 121.75C217.021 121.07 217.361 120.333 217.361 119.54ZM131 119.455C131 117.947 131.727 116.699 132.765 115.74C134.011 114.589 135.666 114.175 137.384 114.175L137.384 116.225C135.968 116.225 134.891 116.565 134.155 117.245C133.418 117.925 133.05 118.662 133.05 119.455C133.05 120.248 133.39 120.985 134.07 121.665C134.806 122.345 135.883 122.685 137.299 122.685H144.439L172.911 168.755V208.45H150.728V206.4H170.861V169.325L143.304 124.735H137.299C135.581 124.735 133.926 124.321 132.68 123.17L132.65 123.14L132.62 123.115C131.643 122.138 131 120.903 131 119.455ZM169.766 119.455C169.766 118.662 169.398 117.925 168.661 117.245C167.981 116.565 166.905 116.225 165.432 116.225V114.175C167.136 114.175 168.824 114.56 170.046 115.74C170.066 115.759 170.091 115.776 170.111 115.795C171.119 116.746 171.816 117.975 171.816 119.455C171.816 120.934 171.113 122.159 170.106 123.11C170.087 123.129 170.07 123.151 170.051 123.17L170.046 123.165C168.838 124.334 167.193 124.735 165.517 124.735H157.567L177.385 157.915L196.638 124.735H190.759C189.04 124.735 187.386 124.321 186.139 123.17L186.109 123.14L186.079 123.115C185.102 122.138 184.46 120.903 184.46 119.455C184.46 117.947 185.186 116.699 186.224 115.74C187.471 114.589 189.125 114.175 190.844 114.175V116.225C189.427 116.225 188.351 116.565 187.614 117.245C186.878 117.925 186.509 118.662 186.509 119.455C186.509 120.248 186.849 120.985 187.529 121.665C188.266 122.345 189.342 122.685 190.759 122.685H200.193L177.415 161.955L153.958 122.685H165.517C166.933 122.685 167.981 122.345 168.661 121.665C169.398 120.985 169.766 120.248 169.766 119.455ZM213.027 114.175V116.225H190.844V114.175H213.027ZM165.432 114.175V116.225H137.384L137.384 114.175H165.432Z" fill="#101010"/>
<path d="M844.358 98C849.183 98 851.598 98.0006 853.097 99.5C854.595 101 854.597 103.414 854.597 108.24V215.76C854.597 220.586 854.595 223 853.097 224.5C851.598 225.999 849.183 226 844.358 226H772.685C767.859 226 765.445 225.999 763.946 224.5C762.446 223 762.446 220.587 762.446 215.76V108.24C762.446 103.413 762.446 101 763.946 99.5C765.445 98.0014 767.859 98 772.685 98H844.358ZM803.402 179.92C798.575 179.92 796.162 179.92 794.663 181.42C793.163 182.92 793.163 185.333 793.163 190.16V195.28C793.163 200.107 793.163 202.52 794.663 204.02C796.162 205.52 798.575 205.52 803.402 205.52H813.641C818.468 205.52 820.881 205.52 822.38 204.02C823.879 202.52 823.88 200.107 823.88 195.28V190.16C823.88 185.333 823.879 182.92 822.38 181.42C820.881 179.92 818.468 179.92 813.641 179.92H803.402Z" fill="#101010"/>
</svg>
