<?xml version="1.0" encoding="UTF-8"?><svg id="a" xmlns="http://www.w3.org/2000/svg" viewBox="0 0 256 256"><defs><style>.b{fill:#020202;}.b,.c{stroke-width:0px;}.c{fill:#fff;}</style></defs><rect class="b" width="256" height="256" rx="57.68" ry="57.68"/><path class="c" d="m172.93,203.25c-.54-32.98-12.01-61.4-35.27-84.72-23.28-23.34-51.71-34.84-84.7-35.54v-30.37c36.83.6,69.48,12.4,97.49,36.33,41.44,35.4,53.16,82.21,52.67,114.3h-30.2Z"/><path class="c" d="m152.12,203.3h-30.26c-.45-18.84-7.12-35.18-20.45-48.51-13.29-13.3-29.56-19.99-48.46-20.5v-30.04c48.84-1.44,99.17,40.57,99.17,99.05Z"/><path class="c" d="m52.86,182.86c-.15-11.83,10.04-20.52,20.46-20.48,9.98.03,20.37,7.99,20.44,20.56.06,11.16-9.27,20.43-20.42,20.45-11.3.02-20.51-9.21-20.48-20.52Z"/></svg>